<?xml version="1.0" encoding="UTF-8"?>
<svg id="Layer_1" xmlns="http://www.w3.org/2000/svg" version="1.1" viewBox="0 0 165.1 18">
  <!-- Generator: Adobe Illustrator 30.0.0, SVG Export Plug-In . SVG Version: 2.1.1 Build 123)  -->
  <defs>
    <style>
      .st0, .st1 {
        fill: #a6a6a6;
      }

      .st1 {
        font-family: AmazingSlabTrial-Regular, 'Amazing Slab Trial';
        font-size: 14px;
      }
    </style>
  </defs>
  <path class="st0" d="M8.2,6.8h1.5c.2,0,.4,0,.5.2.1.1.2.3.2.5s0,.4.2.5c.1.1.3.2.5.2s.4,0,.5-.2c.1-.1.2-.3.2-.5,0-.6-.2-1.2-.7-1.6-.4-.4-1-.7-1.6-.7h-1.5c-.6,0-1.2.2-1.6.7-.4.4-.7,1-.7,1.6v3c0,.6.2,1.2.7,1.6.4.4,1,.7,1.6.7h1.5c.6,0,1.2-.2,1.6-.7.4-.4.7-1,.7-1.6s0-.4-.2-.5c-.1-.1-.3-.2-.5-.2s-.4,0-.5.2c-.1.1-.2.3-.2.5s0,.4-.2.5c-.1.1-.3.2-.5.2h-1.5c-.2,0-.4,0-.5-.2-.1-.1-.2-.3-.2-.5v-3c0-.2,0-.4.2-.5.1-.1.3-.2.5-.2ZM9,1.5c-1.5,0-2.9.4-4.2,1.3-1.2.8-2.2,2-2.8,3.4-.6,1.4-.7,2.9-.4,4.3.3,1.5,1,2.8,2.1,3.8,1,1,2.4,1.8,3.8,2.1,1.5.3,3,.1,4.3-.4,1.4-.6,2.5-1.5,3.4-2.8.8-1.2,1.3-2.7,1.3-4.2s-.2-2-.6-2.9c-.4-.9-.9-1.7-1.6-2.4-.7-.7-1.5-1.2-2.4-1.6-.9-.4-1.9-.6-2.9-.6ZM9,15c-1.2,0-2.3-.4-3.3-1-1-.7-1.8-1.6-2.2-2.7-.5-1.1-.6-2.3-.3-3.5.2-1.2.8-2.2,1.6-3.1s1.9-1.4,3.1-1.6c1.2-.2,2.4-.1,3.5.3,1.1.5,2,1.2,2.7,2.2.7,1,1,2.1,1,3.3s-.6,3.1-1.8,4.2c-1.1,1.1-2.7,1.8-4.2,1.8Z"/>
  <path class="st0" d="M115.1,13c-.2,0-.4.1-.7.1-.7,0-1.1-.4-1.1-1.1-.4.4-.8.6-1.3.8-.5.2-.9.3-1.4.3-.7,0-1.3-.2-1.8-.5-.4-.4-.6-.9-.6-1.5s.2-1.2.7-1.6c.5-.4,1.2-.5,2.1-.5s1.4,0,2.2.2v-.6c0-.7-.2-1.1-.5-1.5-.3-.3-.8-.5-1.4-.5s-1.4.1-1.9.4v1.3h-.6v-1.7c.8-.5,1.7-.7,2.6-.7s1.5.2,1.9.6c.4.4.6,1.1.6,1.9v3.2c0,.5.2.8.7.8s.3,0,.4,0v.6ZM110.8,12.5c.4,0,.8-.1,1.3-.3.5-.2.9-.5,1.2-.8v-1.7c-.4,0-.7,0-1.1-.1-.3,0-.7,0-1.1,0-.7,0-1.2.1-1.6.4-.4.3-.6.6-.6,1.1s.2.8.5,1.1c.3.3.8.4,1.4.4Z"/>
  <path class="st0" d="M105.6,13v-6.4h-1v-.5c.4,0,1,0,1.7,0v7h-.7ZM105.7,4.5c-.2,0-.3,0-.4-.1-.1,0-.2-.2-.2-.4s0-.3.2-.4c.1,0,.2-.1.4-.1s.3,0,.4.1c.1,0,.2.2.2.4s0,.3-.2.4c-.1,0-.2.1-.4.1Z"/>
  <path class="st0" d="M103.5,13c-.2,0-.4.1-.6.1-.7,0-1-.3-1.1-1-.3.3-.7.6-1,.8-.4.2-.8.3-1.4.3s-1.2-.1-1.6-.4c-.5-.3-.8-.7-1.1-1.2-.3-.5-.4-1.2-.4-1.9s.1-1.4.4-1.9c.3-.5.6-.9,1.1-1.2.5-.3,1-.4,1.6-.4,1,0,1.8.3,2.4,1v-3.2h-1v-.5c.4,0,1,0,1.7,0v8.6c0,.5.2.8.7.8s.3,0,.4,0v.6ZM99.3,12.5c.6,0,1-.1,1.4-.3.4-.2.7-.5,1-.9v-3.5c-.3-.4-.6-.7-1-.9-.4-.2-.8-.3-1.4-.3s-1.4.3-1.8.8c-.4.5-.7,1.2-.7,2.2s.2,1.7.7,2.2c.4.5,1.1.8,1.8.8Z"/>
  <path class="st0" d="M89.5,9.7c0,.9.3,1.6.7,2.1.5.5,1.1.7,1.9.7s1.7-.2,2.4-.7l.2.5c-.8.5-1.6.8-2.6.8s-1.8-.3-2.4-.9c-.6-.6-.9-1.5-.9-2.7s.3-2,.8-2.6c.6-.6,1.3-1,2.3-1s1.6.3,2.2.9c.5.6.8,1.4.8,2.5v.4h-5.4ZM92,6.6c-.7,0-1.3.2-1.7.7-.4.4-.7,1.1-.7,1.9h4.7c0-.8-.2-1.5-.6-1.9-.4-.4-.9-.6-1.7-.6Z"/>
  <path class="st0" d="M87.9,13c-.2,0-.4.1-.6.1-.8,0-1.1-.5-1.1-1.4v-2.8c0-1.5-.6-2.3-1.8-2.3s-.9,0-1.2.3c-.4.2-.7.5-1,.8,0,.3.1.7.1,1v4.3h-.7v-4.1c0-1.5-.6-2.3-1.8-2.3s-.9,0-1.2.3c-.3.2-.7.5-1,.9v5.3h-.7v-5.7c0-.5-.2-.8-.7-.8s-.2,0-.4,0v-.6c.2,0,.4-.1.6-.1.7,0,1,.4,1.1,1.1.3-.4.7-.6,1.1-.8.4-.2.8-.3,1.4-.3s.9.1,1.2.3c.4.2.6.5.8.9.7-.8,1.6-1.2,2.6-1.2s1.3.2,1.7.7c.4.5.6,1.2.6,2.1v3c0,.5.2.8.7.8s.3,0,.4,0v.6Z"/>
  <path class="st0" d="M74.9,13c-.2,0-.4.1-.7.1-.8,0-1.1-.5-1.1-1.4v-2.9c0-.8-.2-1.4-.5-1.7-.3-.4-.8-.5-1.5-.5s-.9.1-1.4.3c-.5.2-.9.5-1.1.9v5.2h-.7V3.7h-1v-.6c.4,0,1,0,1.7,0v3.9c.3-.3.8-.6,1.2-.8.5-.2,1-.3,1.5-.3.9,0,1.5.2,1.9.7.4.5.6,1.2.6,2.1v3c0,.5.2.8.7.8s.3,0,.4,0v.6Z"/>
  <path class="st0" d="M65.8,12.3c-.7.5-1.6.8-2.6.8s-1.9-.3-2.4-.9c-.6-.6-.9-1.5-.9-2.7s.3-2,.9-2.6c.6-.6,1.4-1,2.5-1s1,0,1.4.2c.4.1.8.4,1.1.7v1.9h-.6v-1.6c-.5-.4-1.1-.6-1.9-.6s-1.5.3-2,.8c-.5.5-.7,1.2-.7,2.2s.2,1.7.7,2.2c.5.5,1.1.8,2,.8s1.7-.2,2.4-.7l.2.5Z"/>
  <path class="st0" d="M58.9,13c-.2,0-.4.1-.7.1-.7,0-1.1-.4-1.1-1.1-.4.4-.8.6-1.3.8-.5.2-.9.3-1.4.3-.7,0-1.3-.2-1.8-.5-.4-.4-.6-.9-.6-1.5s.2-1.2.7-1.6c.5-.4,1.2-.5,2.1-.5s1.4,0,2.2.2v-.6c0-.7-.2-1.1-.5-1.5-.3-.3-.8-.5-1.4-.5s-1.4.1-1.9.4v1.3h-.6v-1.7c.8-.5,1.7-.7,2.6-.7s1.5.2,1.9.6c.4.4.6,1.1.6,1.9v3.2c0,.5.2.8.7.8s.3,0,.4,0v.6ZM54.6,12.5c.4,0,.8-.1,1.3-.3.5-.2.9-.5,1.2-.8v-1.7c-.4,0-.7,0-1.1-.1-.3,0-.7,0-1.1,0-.7,0-1.2.1-1.6.4-.4.3-.6.6-.6,1.1s.2.8.5,1.1c.3.3.8.4,1.4.4Z"/>
  <path class="st0" d="M45.3,9.7c0,.9.3,1.6.7,2.1.5.5,1.1.7,1.9.7s1.7-.2,2.4-.7l.2.5c-.8.5-1.6.8-2.6.8s-1.8-.3-2.4-.9c-.6-.6-.9-1.5-.9-2.7s.3-2,.8-2.6c.6-.6,1.3-1,2.3-1s1.6.3,2.2.9c.5.6.8,1.4.8,2.5v.4h-5.4ZM47.7,6.6c-.7,0-1.3.2-1.7.7-.4.4-.7,1.1-.7,1.9h4.7c0-.8-.2-1.5-.6-1.9-.4-.4-.9-.6-1.7-.6Z"/>
  <path class="st0" d="M43.6,6.1v2h-.6v-1.5c-.2,0-.4,0-.6,0-.5,0-.9,0-1.2.3-.3.2-.6.5-.9.9v5.3h-.7v-5.7c0-.5-.2-.8-.7-.8s-.2,0-.4,0v-.6c.2,0,.4-.1.6-.1.6,0,1,.3,1.1,1,.3-.3.6-.6,1-.7.4-.2.8-.2,1.2-.2s.7,0,1.1.1h0Z"/>
  <path class="st0" d="M36.1,13v-6.4h-1v-.5c.4,0,1,0,1.7,0v7h-.7ZM36.3,4.5c-.2,0-.3,0-.4-.1-.1,0-.2-.2-.2-.4s0-.3.2-.4c.1,0,.2-.1.4-.1s.3,0,.4.1c.1,0,.2.2.2.4s0,.3-.2.4c-.1,0-.2.1-.4.1Z"/>
  <path class="st0" d="M28.5,9.7c0,.9.3,1.6.7,2.1.5.5,1.1.7,1.9.7s1.7-.2,2.4-.7l.2.5c-.8.5-1.6.8-2.6.8s-1.8-.3-2.4-.9c-.6-.6-.9-1.5-.9-2.7s.3-2,.8-2.6c.6-.6,1.3-1,2.3-1s1.6.3,2.2.9c.5.6.8,1.4.8,2.5v.4h-5.4ZM30.9,6.6c-.7,0-1.3.2-1.7.7-.4.4-.7,1.1-.7,1.9h4.7c0-.8-.2-1.5-.6-1.9-.4-.4-.9-.6-1.7-.6Z"/>
  <path class="st0" d="M26.9,13c-.2,0-.4.1-.7.1-.8,0-1.1-.5-1.1-1.4v-2.9c0-.8-.2-1.4-.5-1.7-.3-.4-.8-.5-1.5-.5s-.9.1-1.4.3c-.5.2-.9.5-1.1.9v5.2h-.7V3.7h-1v-.6c.4,0,1,0,1.7,0v3.9c.3-.3.8-.6,1.2-.8.5-.2,1-.3,1.5-.3.9,0,1.5.2,1.9.7.4.5.6,1.2.6,2.1v3c0,.5.2.8.7.8s.3,0,.4,0v.6Z"/>
  <text class="st1" transform="translate(118.1 13.3)"><tspan x="0" y="0">@</tspan></text>
  <path d="M124.6-414.5c54.6,0,75.3,35.4,75.3,65.7s-27.1,56.8-59.6,80c-27.1,19.3-54.3,38.6-60.3,69.6h91.1l1.8-55.7h29.3l-2.1,86.8H45c1.1-70.3,46.8-102.8,78.9-126.4,22.5-16.4,40.3-29.6,40.3-53.6s-15.4-38.2-39.3-38.2c-34.6,0-41.4,21.8-41.8,63.9v2.1h-32.1c0-5-.4-9.3-.4-13.2,0-55,31.4-81.1,73.9-81.1Z"/>
  <path d="M321-414.5c52.5,0,83.9,46.1,83.9,125s-31.1,125.3-83.9,125.3-84.3-46.8-84.3-125.3,31.1-125,84.3-125ZM271.3-289.5c0,61.8,14.3,97.1,49.3,97.1s49.6-26.4,49.6-97.1-20-96.8-50-96.8-48.9,44.6-48.9,96.8Z"/>
  <path d="M511.6-414.5c54.6,0,75.3,35.4,75.3,65.7s-27.1,56.8-59.6,80c-27.1,19.3-54.3,38.6-60.3,69.6h91.1l1.8-55.7h29.3l-2.1,86.8h-155c1.1-70.3,46.8-102.8,78.9-126.4,22.5-16.4,40.3-29.6,40.3-53.6s-15.4-38.2-39.3-38.2c-34.6,0-41.4,21.8-41.8,63.9v2.1h-32.1c0-5-.4-9.3-.4-13.2,0-55,31.4-81.1,73.9-81.1Z"/>
  <path d="M774.8-410.6v64.6h-30v-33.6h-74.3l-5.4,71.4c13.9-11.8,30.7-17.9,49.3-17.9,44.3,0,74.6,32.5,74.6,80s-28.2,81.8-83.2,81.8-78.6-28.6-82.1-81.4h31.4c4.6,34.3,22.9,53.2,50.7,53.2s48.6-21.4,48.6-53.2-17.9-51.1-45-51.1-34.3,8.2-48.9,28.9c-12.1-11.8-23.6-17.1-25.4-17.9l10.4-125h129.3Z"/>
  <g>
    <path class="st0" d="M132.7,14.1c.1-2.6,1.9-3.9,3.1-4.8h0c1-.8,1.9-1.4,1.8-2.7s-.8-2-2.1-2c-1.9,0-2.1,1.4-2.1,2.9h-.7c0,0,0-.1,0-.2,0-2,1-3.2,2.8-3.2s2.9,1.3,2.9,2.4-1,2.2-2.4,3.2h0c-1.2.9-2.4,1.8-2.7,3.3v.4c0,0,4.6,0,4.6,0v-2.4s.6,0,.6,0v3.1s-6,0-6,0Z"/>
    <path class="st0" d="M144.2,14.1c-1,0-1.8-.4-2.4-1.2-.6-.9-.9-2.2-.9-3.8s.3-2.9.8-3.8c.6-.9,1.4-1.3,2.4-1.3s1.8.4,2.4,1.2c.6.9.9,2.2,1,3.8s-.3,2.9-.8,3.8c-.6.9-1.3,1.3-2.4,1.3ZM144.1,4.5c-.6,0-1.5.3-2,1.5-.3.7-.4,1.7-.4,3.1s.2,2.5.6,3.2c.4.9,1.1,1.3,2,1.3,2.5,0,2.4-3.4,2.4-4.6s-.2-2.7-.7-3.4c-.4-.7-1.1-1.1-1.9-1Z"/>
    <path class="st0" d="M149.4,13.9c.1-2.6,1.9-3.9,3.1-4.8h0c1-.8,1.9-1.4,1.8-2.7s-.8-2-2.1-2c-1.9,0-2.1,1.4-2.1,2.9h-.7c0,0,0-.1,0-.2,0-2,1-3.2,2.8-3.2s2.9,1.3,2.9,2.4-1,2.2-2.4,3.2h0c-1.2.9-2.4,1.8-2.7,3.3v.4c0,0,4.6,0,4.6,0v-2.4s.6,0,.6,0v3.1s-6,0-6,0Z"/>
    <path class="st0" d="M160.9,13.9c-1,0-1.7-.2-2.3-.8-.5-.5-.8-1.1-.9-2h.7c.3,1.5,1.2,2.3,2.5,2.3s2.4-1.1,2.4-2.7-1-2.5-2.3-2.5-1.5.4-2.1,1.1c-.3-.2-.5-.4-.7-.5l.3-4.8h4.9c0,0,0,2,0,2h-.6s0-1.4,0-1.4h-3.9c0,0-.3,4.3-.3,4.3l.6-.5c.5-.5,1.2-.7,1.9-.7,1.7,0,2.9,1.2,2.9,3.1s-.8,3.2-3.2,3.2Z"/>
  </g>
</svg>