<svg width="65" height="65" viewBox="0 0 65 65" fill="none" xmlns="http://www.w3.org/2000/svg">
<path d="M0.234302 65H0V46.0426H0.234302C5.30959 46.0426 9.43634 41.7361 9.43634 36.4397V29.7907H0V4.6772H24.0651V40.131C24.0651 53.8433 13.3741 65 0.234302 65ZM0.472384 46.5317V64.507C13.2419 64.3729 23.5927 53.4923 23.5927 40.135V5.17016H0.472384V29.2977H9.90872V36.4397C9.90872 41.9254 5.69506 46.4015 0.472384 46.5317Z" fill="#003D8F"/>
<path d="M60.5178 65H36.4526V29.5462C36.4526 15.8339 47.1436 4.6772 60.2835 4.6772H60.5178V23.6346H60.2835C55.2082 23.6346 51.0814 27.9411 51.0814 33.2375V39.8865H60.5178V65ZM36.925 64.507H60.0454V40.3795H50.609V33.2375C50.609 27.7518 54.8227 23.2757 60.0454 23.1455V5.17016C47.2759 5.30425 36.925 16.1849 36.925 29.5422V64.5031V64.507Z" fill="#003D8F"/>
<path d="M41.407 59.8298V24.6205C41.407 11.0226 51.9695 0 64.9997 0V18.4644C59.7884 18.4644 55.5634 22.8734 55.5634 28.3118V35.2054H64.9997V59.8259H41.407V59.8298Z" fill="white"/>
<path d="M28.547 0V35.2093C28.547 48.8072 17.9845 59.8298 4.95426 59.8298V41.3654C10.1656 41.3654 14.3906 36.9564 14.3906 31.518V24.6244H4.95426V0H28.547Z" fill="white"/>
</svg>
