<?xml version="1.0" encoding="UTF-8"?>
<svg id="Layer_2" data-name="Layer 2" xmlns="http://www.w3.org/2000/svg" xmlns:xlink="http://www.w3.org/1999/xlink" viewBox="0 0 210 100">
  <defs>
    <style>
      .cls-1 {
        fill: url(#linear-gradient-15);
      }

      .cls-2 {
        fill: url(#linear-gradient-13);
      }

      .cls-3 {
        fill: url(#linear-gradient-2);
      }

      .cls-4 {
        fill: url(#linear-gradient-10);
      }

      .cls-5 {
        fill: url(#linear-gradient-12);
      }

      .cls-6 {
        fill: #fff;
      }

      .cls-7 {
        fill: url(#linear-gradient-4);
      }

      .cls-8 {
        fill: url(#linear-gradient-3);
      }

      .cls-9 {
        fill: url(#linear-gradient-5);
      }

      .cls-10 {
        fill: url(#linear-gradient-8);
      }

      .cls-11 {
        opacity: 0;
      }

      .cls-12 {
        fill: url(#linear-gradient-14);
      }

      .cls-13 {
        fill: url(#linear-gradient-20);
      }

      .cls-14 {
        fill: url(#linear-gradient-17);
      }

      .cls-15 {
        fill: url(#linear-gradient-7);
      }

      .cls-16 {
        fill: url(#linear-gradient-9);
      }

      .cls-17 {
        fill: url(#linear-gradient-11);
      }

      .cls-18 {
        fill: url(#linear-gradient-19);
      }

      .cls-19 {
        fill: url(#linear-gradient-6);
      }

      .cls-20 {
        fill: url(#linear-gradient-16);
      }

      .cls-21 {
        fill: url(#linear-gradient);
      }

      .cls-22 {
        fill: url(#linear-gradient-18);
      }
    </style>
    <linearGradient id="linear-gradient" x1="101.43" y1="39.52" x2="120.46" y2="39.52" gradientUnits="userSpaceOnUse">
      <stop offset="0" stop-color="#e7e2e5"/>
      <stop offset="0" stop-color="#e4dee2"/>
      <stop offset=".1" stop-color="#ccb8ca"/>
      <stop offset=".21" stop-color="#b797b5"/>
      <stop offset=".32" stop-color="#a77da5"/>
      <stop offset=".44" stop-color="#9a6898"/>
      <stop offset=".57" stop-color="#905a8e"/>
      <stop offset=".74" stop-color="#8b5189"/>
      <stop offset="1" stop-color="#8a4f88"/>
    </linearGradient>
    <linearGradient id="linear-gradient-2" x1="100.76" y1="31.21" x2="118.65" y2="31.21" xlink:href="#linear-gradient"/>
    <linearGradient id="linear-gradient-3" x1="100.18" y1="29.15" x2="115.03" y2="29.15" xlink:href="#linear-gradient"/>
    <linearGradient id="linear-gradient-4" x1="33.37" y1="145.7" x2="36.26" y2="138.73" gradientTransform="translate(90.15 -94.37)" gradientUnits="userSpaceOnUse">
      <stop offset="0" stop-color="#009bd8"/>
      <stop offset=".07" stop-color="#039cd8"/>
      <stop offset=".13" stop-color="#0fa0da"/>
      <stop offset=".19" stop-color="#22a8dd"/>
      <stop offset=".25" stop-color="#3cb2e1"/>
      <stop offset=".31" stop-color="#5fc0e6"/>
      <stop offset=".37" stop-color="#89d0ed"/>
      <stop offset=".42" stop-color="#bbe4f4"/>
      <stop offset=".48" stop-color="#f4fafd"/>
      <stop offset=".49" stop-color="#fff"/>
      <stop offset=".53" stop-color="#d2edf8"/>
      <stop offset=".58" stop-color="#a1daf0"/>
      <stop offset=".62" stop-color="#76c9ea"/>
      <stop offset=".68" stop-color="#51bbe4"/>
      <stop offset=".73" stop-color="#34afdf"/>
      <stop offset=".78" stop-color="#1da6dc"/>
      <stop offset=".84" stop-color="#0c9fd9"/>
      <stop offset=".91" stop-color="#039cd8"/>
      <stop offset="1" stop-color="#009bd8"/>
    </linearGradient>
    <linearGradient id="linear-gradient-5" x1="695.62" y1="1858.79" x2="698.5" y2="1851.81" gradientTransform="translate(30.25 -1925.92) rotate(18)" gradientUnits="userSpaceOnUse">
      <stop offset="0" stop-color="#4db37d"/>
      <stop offset=".08" stop-color="#50b47f"/>
      <stop offset=".15" stop-color="#5cb988"/>
      <stop offset=".22" stop-color="#6fc195"/>
      <stop offset=".3" stop-color="#89cca9"/>
      <stop offset=".37" stop-color="#acdbc2"/>
      <stop offset=".43" stop-color="#d5ede0"/>
      <stop offset=".49" stop-color="#fff"/>
      <stop offset=".53" stop-color="#e0f2e9"/>
      <stop offset=".58" stop-color="#b6e0cb"/>
      <stop offset=".64" stop-color="#91d1b2"/>
      <stop offset=".7" stop-color="#74c49d"/>
      <stop offset=".76" stop-color="#5dbb8d"/>
      <stop offset=".83" stop-color="#4cb481"/>
      <stop offset=".9" stop-color="#43b07b"/>
      <stop offset="1" stop-color="#40af79"/>
    </linearGradient>
    <linearGradient id="linear-gradient-6" x1="1854.82" y1="3283.38" x2="1857.7" y2="3276.41" gradientTransform="translate(539.26 -3686.34) rotate(36)" gradientUnits="userSpaceOnUse">
      <stop offset="0" stop-color="#d4373b"/>
      <stop offset=".07" stop-color="#d43a3e"/>
      <stop offset=".14" stop-color="#d74649"/>
      <stop offset=".21" stop-color="#db595c"/>
      <stop offset=".28" stop-color="#e17376"/>
      <stop offset=".35" stop-color="#e89698"/>
      <stop offset=".41" stop-color="#f1c0c1"/>
      <stop offset=".48" stop-color="#fcf1f1"/>
      <stop offset=".49" stop-color="#fff"/>
      <stop offset=".53" stop-color="#f7d6d7"/>
      <stop offset=".59" stop-color="#eeacad"/>
      <stop offset=".64" stop-color="#e7878a"/>
      <stop offset=".7" stop-color="#e26a6c"/>
      <stop offset=".76" stop-color="#dd5356"/>
      <stop offset=".83" stop-color="#da4246"/>
      <stop offset=".9" stop-color="#d8393c"/>
      <stop offset="1" stop-color="#d8363a"/>
    </linearGradient>
    <linearGradient id="linear-gradient-7" x1="3397.51" y1="4280.04" x2="3400.39" y2="4273.07" gradientTransform="translate(1567.35 -5203.3) rotate(54)" gradientUnits="userSpaceOnUse">
      <stop offset="0" stop-color="#f68435"/>
      <stop offset=".07" stop-color="#f68638"/>
      <stop offset=".14" stop-color="#f68d44"/>
      <stop offset=".21" stop-color="#f79857"/>
      <stop offset=".28" stop-color="#f8a971"/>
      <stop offset=".34" stop-color="#fabd94"/>
      <stop offset=".41" stop-color="#fcd7be"/>
      <stop offset=".47" stop-color="#fef5ef"/>
      <stop offset=".49" stop-color="#fff"/>
      <stop offset=".54" stop-color="#fde5d5"/>
      <stop offset=".59" stop-color="#fbccab"/>
      <stop offset=".64" stop-color="#f9b586"/>
      <stop offset=".7" stop-color="#f8a369"/>
      <stop offset=".76" stop-color="#f79552"/>
      <stop offset=".83" stop-color="#f68b41"/>
      <stop offset=".9" stop-color="#f68538"/>
      <stop offset="1" stop-color="#f68435"/>
    </linearGradient>
    <linearGradient id="linear-gradient-8" x1="5172.68" y1="4751.21" x2="5175.56" y2="4744.23" gradientTransform="translate(3013.9 -6328.32) rotate(72)" xlink:href="#linear-gradient-4"/>
    <linearGradient id="linear-gradient-9" x1="7006.56" y1="4650.75" x2="7009.45" y2="4643.77" gradientTransform="translate(4737.29 -6951.27) rotate(90)" xlink:href="#linear-gradient-5"/>
    <linearGradient id="linear-gradient-10" x1="8719.65" y1="3988.51" x2="8722.54" y2="3981.53" gradientTransform="translate(6568.84 -7011.17) rotate(108)" xlink:href="#linear-gradient-6"/>
    <linearGradient id="linear-gradient-11" x1="10144.25" y1="2829.3" x2="10147.13" y2="2822.33" gradientTransform="translate(8329.26 -6502.16) rotate(126)" xlink:href="#linear-gradient-7"/>
    <linearGradient id="linear-gradient-12" x1="11140.91" y1="1286.61" x2="11143.79" y2="1279.64" gradientTransform="translate(9846.22 -5474.07) rotate(144)" xlink:href="#linear-gradient-4"/>
    <linearGradient id="linear-gradient-13" x1="11612.07" y1="-488.56" x2="11614.95" y2="-495.53" gradientTransform="translate(10971.24 -4027.52) rotate(162)" xlink:href="#linear-gradient-5"/>
    <linearGradient id="linear-gradient-14" x1="11511.61" y1="-2322.44" x2="11514.5" y2="-2329.42" gradientTransform="translate(11594.19 -2304.13) rotate(-180)" xlink:href="#linear-gradient-6"/>
    <linearGradient id="linear-gradient-15" x1="10849.37" y1="-4035.53" x2="10852.26" y2="-4042.5" gradientTransform="translate(11654.09 -472.58) rotate(-162)" xlink:href="#linear-gradient-7"/>
    <linearGradient id="linear-gradient-16" x1="9690.17" y1="-5460.13" x2="9693.05" y2="-5467.1" gradientTransform="translate(11145.08 1287.84) rotate(-144)" xlink:href="#linear-gradient-4"/>
    <linearGradient id="linear-gradient-17" x1="8147.48" y1="-6456.78" x2="8150.36" y2="-6463.76" gradientTransform="translate(10116.99 2804.8) rotate(-126)" xlink:href="#linear-gradient-5"/>
    <linearGradient id="linear-gradient-18" x1="6372.3" y1="-6927.95" x2="6375.19" y2="-6934.92" gradientTransform="translate(8670.44 3929.82) rotate(-108)" xlink:href="#linear-gradient-6"/>
    <linearGradient id="linear-gradient-19" x1="4538.42" y1="-6827.49" x2="4541.31" y2="-6834.47" gradientTransform="translate(6947.05 4552.77) rotate(-90)" xlink:href="#linear-gradient-7"/>
    <linearGradient id="linear-gradient-20" x1="2825.33" y1="-6165.25" x2="2828.22" y2="-6172.22" gradientTransform="translate(5115.5 4612.67) rotate(-72)" xlink:href="#linear-gradient-4"/>
  </defs>
  <g id="Layer_1-2" data-name="Layer 1">
    <rect class="cls-11" width="210" height="100"/>
    <g>
      <g>
        <path class="cls-6" d="M59,74.08l7.38,9.72h-3.36l-1.52-2.11h-8.17l-1.47,2.11h-3.02l7.28-9.72h2.89ZM60.22,79.92l-2.79-3.96-2.89,3.96h5.68Z"/>
        <path class="cls-6" d="M81.6,74.08c.6,0,1.52.04,2.12.4.72.43.77,1.09.77,1.49v2.32c0,.75-.35,1.19-.7,1.41-.6.4-1.62.43-2.19.43h-1.74l5.93,3.67h-4.29l-5.18-3.67h-2.82v3.67h-2.99v-9.72h11.09ZM73.5,75.73v2.73h6.85c.2,0,.6-.04.82-.15.32-.19.32-.47.32-.62v-1.19c0-.15,0-.43-.32-.62-.25-.15-.75-.15-.87-.15h-6.8Z"/>
        <path class="cls-6" d="M97.45,74.08l7.38,9.72h-3.36l-1.52-2.11h-8.17l-1.47,2.11h-3.02l7.28-9.72h2.89ZM98.67,79.92l-2.79-3.96-2.89,3.96h5.68Z"/>
        <path class="cls-6" d="M121.98,74.08v1.77h-10.02v2.56h5.41v1.77h-5.41v3.62h-2.99v-9.72h13.01Z"/>
        <path class="cls-6" d="M131.8,74.08l7.38,9.72h-3.36l-1.52-2.11h-8.17l-1.47,2.11h-3.02l7.28-9.72h2.89ZM133.02,79.92l-2.79-3.96-2.89,3.96h5.68Z"/>
        <path class="cls-6" d="M146.3,74.08v3.77h9.37v-3.77h2.99v9.72h-2.99v-4.18h-9.37v4.18h-2.99v-9.72h2.99Z"/>
      </g>
      <g>
        <path class="cls-6" d="M35.45,92.15v3.26h3.69v-1.15h-1.92v-.87h3.11v1.75c0,.22,0,.7-.28.96-.25.24-.67.25-.99.25h-3.54c-.33,0-.74,0-.99-.25-.28-.27-.28-.74-.28-.96v-2.7c0-.22,0-.7.28-.96.25-.24.67-.25.99-.25h3.54c.3,0,.72,0,.98.24.27.24.29.62.29.92v.14l-1.19.21v-.58h-3.69Z"/>
        <path class="cls-6" d="M47.28,91.21c.24,0,.61.02.84.21.29.23.31.58.31.78v1.22c0,.4-.14.63-.28.74-.24.21-.65.23-.87.23h-.7l2.36,1.94h-1.71l-2.07-1.94h-1.12v1.94h-1.19v-5.12h4.42ZM44.05,92.09v1.44h2.73c.08,0,.24-.02.33-.08.13-.1.13-.25.13-.33v-.63c0-.08,0-.23-.13-.33-.1-.08-.3-.08-.35-.08h-2.71Z"/>
        <path class="cls-6" d="M50.72,92.42c0-.22,0-.7.28-.96.25-.24.67-.25.99-.25h3.77c.33,0,.74,0,.99.25.28.27.28.74.28.96v2.7c0,.22,0,.7-.28.96-.25.24-.67.25-.99.25h-3.77c-.33,0-.74,0-.99-.25-.28-.27-.28-.74-.28-.96v-2.7ZM55.85,95.4v-3.26h-3.93v3.26h3.93Z"/>
        <path class="cls-6" d="M60.74,95.4h3.4v-4.19h1.19v3.91c0,.22,0,.7-.28.96-.25.24-.67.25-.99.25h-3.24c-.33,0-.74,0-.99-.25-.28-.27-.28-.74-.28-.96v-3.91h1.19v4.19Z"/>
        <path class="cls-6" d="M72.38,91.21c.25,0,.59.03.81.22.28.22.3.54.3.77v1.14c0,.13,0,.53-.27.75-.26.23-.74.24-.88.24h-3.2v2h-1.19v-5.12h4.43ZM69.14,92.09v1.38h2.62c.2,0,.33-.02.41-.08.13-.1.13-.25.13-.33v-.57c0-.08,0-.23-.13-.33-.08-.06-.21-.08-.41-.08h-2.62Z"/>
        <path class="cls-6" d="M79.07,92.42c0-.22,0-.7.28-.96.25-.24.67-.25.99-.25h3.77c.33,0,.74,0,.99.25.28.27.28.74.28.96v2.7c0,.22,0,.7-.28.96-.25.24-.67.25-.99.25h-3.77c-.33,0-.74,0-.99-.25-.28-.27-.28-.74-.28-.96v-2.7ZM84.19,95.4v-3.26h-3.93v3.26h3.93Z"/>
        <path class="cls-6" d="M93.08,91.21v.93h-3.99v1.35h2.15v.93h-2.15v1.91h-1.19v-5.12h5.18Z"/>
        <path class="cls-6" d="M99.59,96.34h-1.19v-5.12h1.19v5.12Z"/>
        <path class="cls-6" d="M106.62,94.23c.17.14.23.16.59.56l-.05-.88v-2.69h1.07v5.12h-.81l-3.76-3.17s-.26-.22-.43-.42l.03.42s0,.09,0,.13c.01.13.01.17.01.27v2.77h-1.07v-5.12h.81l3.6,3.02Z"/>
        <path class="cls-6" d="M111.94,92.15v1.1h3.19c.32,0,.75,0,1,.25.19.18.28.51.28.84v.92c0,.31-.09.65-.28.82-.25.23-.7.25-.85.25h-3.41c-.22,0-.67,0-.91-.25-.28-.27-.28-.74-.28-.96v-.11l1.05-.22v.61h3.62v-1.22h-3.32c-.18,0-.64-.02-.87-.24-.28-.26-.28-.75-.28-.97v-.55c0-.22,0-.72.28-.97.24-.22.68-.24.88-.24h3.09c.25,0,.71.03.94.26.25.25.26.69.26.86v.15l-1.05.25v-.59h-3.35Z"/>
        <path class="cls-6" d="M120.6,96.34h-1.19v-4.19h-2.35v-.93h5.9v.93h-2.35v4.19Z"/>
        <path class="cls-6" d="M125.6,96.34h-1.19v-5.12h1.19v5.12Z"/>
        <path class="cls-6" d="M130.61,96.34h-1.19v-4.19h-2.35v-.93h5.9v.93h-2.35v4.19Z"/>
        <path class="cls-6" d="M135.61,95.4h3.4v-4.19h1.19v3.91c0,.22,0,.7-.28.96-.25.24-.67.25-.99.25h-3.24c-.33,0-.74,0-.99-.25-.28-.27-.28-.74-.28-.96v-3.91h1.19v4.19Z"/>
        <path class="cls-6" d="M145.21,96.34h-1.19v-4.19h-2.35v-.93h5.9v.93h-2.35v4.19Z"/>
        <path class="cls-6" d="M150.21,96.34h-1.19v-5.12h1.19v5.12Z"/>
        <path class="cls-6" d="M152.72,92.42c0-.22,0-.7.28-.96.25-.24.67-.25.99-.25h3.77c.33,0,.74,0,.99.25.28.27.28.74.28.96v2.7c0,.22,0,.7-.28.96-.25.24-.67.25-.99.25h-3.77c-.33,0-.74,0-.99-.25-.28-.27-.28-.74-.28-.96v-2.7ZM157.85,95.4v-3.26h-3.93v3.26h3.93Z"/>
        <path class="cls-6" d="M165.96,94.23c.17.14.23.16.59.56l-.05-.88v-2.69h1.07v5.12h-.81l-3.76-3.17s-.26-.22-.43-.42l.03.42s0,.09,0,.13c.01.13.01.17.01.27v2.77h-1.07v-5.12h.81l3.6,3.02Z"/>
        <path class="cls-6" d="M171.28,92.15v1.1h3.19c.32,0,.75,0,1,.25.19.18.28.51.28.84v.92c0,.31-.09.65-.28.82-.25.23-.7.25-.85.25h-3.41c-.22,0-.67,0-.91-.25-.28-.27-.28-.74-.28-.96v-.11l1.05-.22v.61h3.62v-1.22h-3.32c-.18,0-.64-.02-.87-.24-.28-.26-.28-.75-.28-.97v-.55c0-.22,0-.72.28-.97.24-.22.68-.24.88-.24h3.09c.25,0,.71.03.94.26.25.25.26.69.26.86v.15l-1.05.25v-.59h-3.35Z"/>
      </g>
      <g>
        <path class="cls-6" d="M93.16,50.77c.4,0,.58-.22.81-.71l2.26-4.74h.19l2.19,4.82c.11.24.22.4.33.49.12.1.26.14.45.14v.16h-2.3v-.17c.44,0,.61-.09.61-.36,0-.07-.02-.16-.06-.25l-.46-1.04h-2.36l-.39.88c-.09.2-.13.34-.13.44,0,.23.19.33.6.33h.05v.17h-1.81v-.17ZM97.08,48.8l-1.01-2.31-1.09,2.31h2.11Z"/>
        <path class="cls-6" d="M100.33,50.06c.27,0,.49.22.49.49s-.22.49-.49.49-.49-.22-.49-.49.22-.49.49-.49Z"/>
        <path class="cls-6" d="M104.73,51.07c-1.83,0-3.02-1.15-3.02-2.82s1.24-2.95,3.04-2.95c.89,0,1.36.34,1.62.34.13,0,.22-.1.27-.3h.14l.09,1.7h-.17c-.39-1-.92-1.42-1.87-1.42-1.3,0-2.17,1-2.17,2.57s.89,2.58,2.21,2.58c.5,0,.96-.17,1.26-.43v-1.49c0-.61-.05-.69-.83-.72v-.18h2.36v.18c-.6.02-.66.16-.66.66v1.6c-.69.45-1.45.68-2.26.68Z"/>
        <path class="cls-6" d="M108.78,50.06c.27,0,.49.22.49.49s-.22.49-.49.49-.49-.22-.49-.49.22-.49.49-.49Z"/>
        <path class="cls-6" d="M110.04,50.77c.66-.02.81-.17.81-.74v-3.7c0-.57-.18-.73-.81-.74v-.17h2.51v.17c-.64.02-.81.16-.81.74v3.7c0,.57.17.73.81.74v.17h-2.51v-.17Z"/>
      </g>
      <path class="cls-21" d="M120.43,40.8c-.72-.28-1.29-.34-2.51-.66-8.22-2.18-15.49-.31-16.49-.03,6.42-1.94,12.2-2.7,18.68-.68.09.12.22.33.3.63.08.32.05.59.02.74Z"/>
      <path class="cls-6" d="M119.66,42.5l.32.1-.2.64-.32-.1c-3.94-1.26-8.02-1.96-12.1-2.1-2.08-.07-4.2.01-6.28.24-.49.57-1.27.82-2,.61-.6-.17-1.07-.63-1.27-1.22l-12.29,2.72-.15-.66,12.61-2.79c.09-.02.19,0,.26.05.08.05.13.14.14.23.07.48.42.88.88,1.02.5.14,1.04-.05,1.36-.48.06-.08.14-.13.24-.14,2.16-.24,4.35-.33,6.51-.26,4.15.14,8.28.85,12.29,2.13Z"/>
      <path class="cls-3" d="M112.22,28.85c-3.76,3.56-7.49,7.16-11.46,10.49,4.52-5.01,9.35-9.71,14.2-14.39l-2.4-1.95,1.76-.45c.18.23,1.77,2.26,1.89,2.41-.52.52-1.04,1.03-1.57,1.54.7.81,2.76,3.17,2.89,3.31l-.45.27c-.16.1-.33.2-.52.32.52.95,1.9,3.53,2.08,3.82l-.57.19-16.85,5.47,15.91-6.15-1.92-2.5c-2.05,1.24-4.63,2.8-6.11,3.69-2.37,1.37-5.65,3.47-8.07,4.69,2.15-1.63,5.48-3.68,7.74-5.21,1.79-1.17,5.26-3.42,7.32-4.75l-2.47-2.16c-.47.46-.95.91-1.42,1.37Z"/>
      <path class="cls-8" d="M115.03,19.71c-4.95,6.39-9.9,12.78-14.85,19.18,4.06-6.49,8.11-12.98,12.17-19.46.89.09,1.79.19,2.68.29Z"/>
      <g>
        <g id="_Radial_Repeat_" data-name="&amp;lt;Radial Repeat&amp;gt;">
          <path class="cls-7" d="M121.71,43.13c1.11.25,2.23.5,3.34.75.82.18,1.7.39,2.26,1.07.5.62.53,1.47.46,2.23-.16,1.66-1.01,3.26-.77,4.95.09.65.33,1.27.63,1.85.02.05-.03.09-.07.07l-.56-.37-1.39-.93-1.79-1.19-1.75-1.16c-.42-.28-.85-.56-1.27-.84-.17-.12-.35-.25-.45-.44-.11-.21-.1-.46-.05-.69.1-.5.42-.94.72-1.35.15-.2.3-.39.43-.59.65-1,.8-2.25.28-3.34Z"/>
        </g>
        <g id="_Radial_Repeat_-2" data-name="&amp;lt;Radial Repeat&amp;gt;">
          <path class="cls-9" d="M118.23,48.49c.98.58,1.96,1.16,2.95,1.75.72.43,1.5.9,1.81,1.72.29.74.05,1.56-.25,2.26-.66,1.53-1.96,2.79-2.26,4.47-.11.64-.08,1.31.02,1.95,0,.05-.06.08-.09.04l-.42-.53-1.04-1.31-1.33-1.68-1.3-1.64c-.32-.4-.63-.8-.95-1.19-.13-.16-.26-.35-.3-.56-.04-.24.05-.47.17-.67.25-.45.69-.77,1.1-1.06.2-.14.4-.28.59-.43.93-.75,1.45-1.89,1.3-3.09Z"/>
        </g>
        <g id="_Radial_Repeat_-3" data-name="&amp;lt;Radial Repeat&amp;gt;">
          <path class="cls-19" d="M113.26,52.51c.75.86,1.51,1.71,2.26,2.57.55.63,1.15,1.31,1.19,2.19.05.79-.43,1.5-.94,2.07-1.1,1.25-2.73,2.05-3.53,3.55-.31.58-.48,1.22-.58,1.86,0,.05-.08.06-.1.01l-.24-.63-.58-1.57-.75-2.01-.73-1.97c-.18-.48-.35-.95-.53-1.43-.07-.2-.14-.41-.11-.62.03-.24.2-.43.37-.59.38-.35.9-.52,1.38-.67.23-.07.47-.14.7-.23,1.12-.43,1.96-1.35,2.19-2.54Z"/>
        </g>
        <g id="_Radial_Repeat_-4" data-name="&amp;lt;Radial Repeat&amp;gt;">
          <path class="cls-15" d="M107.3,54.8c.45,1.05.91,2.1,1.36,3.14.33.77.68,1.6.46,2.45-.2.77-.88,1.29-1.53,1.68-1.43.85-3.23,1.1-4.46,2.28-.47.45-.83,1.01-1.13,1.59-.02.05-.09.03-.1-.02l-.03-.67-.07-1.67-.09-2.15-.09-2.1c-.02-.51-.04-1.02-.06-1.52,0-.21,0-.43.09-.62.1-.22.32-.35.53-.45.47-.21,1.01-.21,1.51-.21.24,0,.49.01.73,0,1.19-.06,2.28-.67,2.87-1.74Z"/>
        </g>
        <g id="_Radial_Repeat_-5" data-name="&amp;lt;Radial Repeat&amp;gt;">
          <path class="cls-10" d="M100.92,55.13c.11,1.14.21,2.27.32,3.41.08.84.15,1.74-.32,2.48-.43.67-1.23.96-1.98,1.13-1.62.36-3.41.05-4.94.79-.59.29-1.1.71-1.56,1.17-.04.04-.1,0-.09-.05l.18-.65.45-1.61.58-2.07.56-2.02c.14-.49.27-.98.41-1.47.06-.2.13-.41.27-.57.17-.17.41-.23.64-.26.51-.06,1.03.11,1.51.27.23.08.46.16.7.22,1.15.31,2.38.06,3.26-.77Z"/>
        </g>
        <g id="_Radial_Repeat_-6" data-name="&amp;lt;Radial Repeat&amp;gt;">
          <path class="cls-16" d="M94.74,53.48c-.25,1.11-.5,2.23-.75,3.34-.18.82-.39,1.7-1.07,2.26-.62.5-1.47.53-2.23.46-1.66-.16-3.26-1.01-4.95-.77-.65.09-1.27.33-1.85.63-.05.02-.09-.03-.07-.07l.37-.56.93-1.39,1.19-1.79,1.16-1.75c.28-.42.56-.85.84-1.27.12-.17.25-.35.44-.45.21-.11.46-.1.69-.05.5.1.94.42,1.35.72.2.15.39.3.59.43,1,.65,2.25.8,3.34.28Z"/>
        </g>
        <g id="_Radial_Repeat_-7" data-name="&amp;lt;Radial Repeat&amp;gt;">
          <path class="cls-4" d="M89.38,50c-.58.98-1.16,1.96-1.75,2.95-.43.72-.9,1.5-1.72,1.81-.74.29-1.56.05-2.26-.25-1.53-.66-2.79-1.96-4.47-2.26-.64-.11-1.31-.08-1.95.02-.05,0-.08-.06-.04-.09l.53-.42,1.31-1.04,1.68-1.33,1.64-1.3c.4-.32.8-.63,1.19-.95.16-.13.35-.26.56-.3.24-.04.47.05.67.17.45.25.77.69,1.06,1.1.14.2.28.4.43.59.75.93,1.89,1.45,3.09,1.3Z"/>
        </g>
        <g id="_Radial_Repeat_-8" data-name="&amp;lt;Radial Repeat&amp;gt;">
          <path class="cls-17" d="M85.36,45.03c-.86.75-1.71,1.51-2.57,2.26-.63.55-1.31,1.15-2.19,1.19-.79.05-1.5-.43-2.07-.94-1.25-1.1-2.05-2.73-3.55-3.53-.58-.31-1.22-.48-1.86-.58-.05,0-.06-.08-.01-.1l.63-.24,1.57-.58,2.01-.75,1.97-.73c.48-.18.95-.35,1.43-.53.2-.07.41-.14.62-.11.24.03.43.2.59.37.35.38.52.9.67,1.38.07.23.14.47.23.7.43,1.12,1.35,1.96,2.54,2.19Z"/>
        </g>
        <g id="_Radial_Repeat_-9" data-name="&amp;lt;Radial Repeat&amp;gt;">
          <path class="cls-5" d="M83.07,39.07c-1.05.45-2.1.91-3.14,1.36-.77.33-1.6.68-2.45.46-.77-.2-1.29-.88-1.68-1.53-.85-1.43-1.1-3.23-2.28-4.46-.45-.47-1.01-.83-1.59-1.13-.05-.02-.03-.09.02-.1l.67-.03,1.67-.07,2.15-.09,2.1-.09c.51-.02,1.02-.04,1.52-.06.21,0,.43,0,.62.09.22.1.35.32.45.53.21.47.21,1.01.21,1.51,0,.24-.01.49,0,.73.06,1.19.67,2.28,1.74,2.87Z"/>
        </g>
        <g id="_Radial_Repeat_-10" data-name="&amp;lt;Radial Repeat&amp;gt;">
          <path class="cls-2" d="M82.74,32.69c-1.14.11-2.27.21-3.41.32-.84.08-1.74.15-2.48-.32-.67-.43-.96-1.23-1.13-1.98-.36-1.62-.05-3.41-.79-4.94-.29-.59-.71-1.1-1.17-1.56-.04-.04,0-.1.05-.09l.65.18,1.61.45,2.07.58,2.02.56c.49.14.98.27,1.47.41.2.06.41.13.57.27.17.17.23.41.26.64.06.51-.11,1.03-.27,1.51-.08.23-.16.46-.22.7-.31,1.15-.06,2.38.77,3.26Z"/>
        </g>
        <g id="_Radial_Repeat_-11" data-name="&amp;lt;Radial Repeat&amp;gt;">
          <path class="cls-12" d="M84.39,26.52c-1.11-.25-2.23-.5-3.34-.75-.82-.18-1.7-.39-2.26-1.07-.5-.62-.53-1.47-.46-2.23.16-1.66,1.01-3.26.77-4.95-.09-.65-.33-1.27-.63-1.85-.02-.05.03-.09.07-.07l.56.37,1.39.93,1.79,1.19,1.75,1.16c.42.28.85.56,1.27.84.17.12.35.25.45.44.11.21.1.46.05.69-.1.5-.42.94-.72,1.35-.15.2-.3.39-.43.59-.65,1-.8,2.25-.28,3.34Z"/>
        </g>
        <g id="_Radial_Repeat_-12" data-name="&amp;lt;Radial Repeat&amp;gt;">
          <path class="cls-1" d="M87.87,21.16c-.98-.58-1.96-1.16-2.95-1.75-.72-.43-1.5-.9-1.81-1.72-.29-.74-.05-1.56.25-2.26.66-1.53,1.96-2.79,2.26-4.47.11-.64.08-1.31-.02-1.95,0-.05.06-.08.09-.04l.42.53,1.04,1.31,1.33,1.68,1.3,1.64c.32.4.63.8.95,1.19.13.16.26.35.3.56.04.24-.05.47-.17.67-.25.45-.69.77-1.1,1.06-.2.14-.4.28-.59.43-.93.75-1.45,1.89-1.3,3.09Z"/>
        </g>
        <g id="_Radial_Repeat_-13" data-name="&amp;lt;Radial Repeat&amp;gt;">
          <path class="cls-20" d="M92.84,17.13c-.75-.86-1.51-1.71-2.26-2.57-.55-.63-1.15-1.31-1.19-2.19-.05-.79.43-1.5.94-2.07,1.1-1.25,2.73-2.05,3.53-3.55.31-.58.48-1.22.58-1.86,0-.05.08-.06.1-.01l.24.63.58,1.57.75,2.01.73,1.97c.18.48.35.95.53,1.43.07.2.14.41.11.62-.03.24-.2.43-.37.59-.38.35-.9.52-1.38.67-.23.07-.47.14-.7.23-1.12.43-1.96,1.35-2.19,2.54Z"/>
        </g>
        <g id="_Radial_Repeat_-14" data-name="&amp;lt;Radial Repeat&amp;gt;">
          <path class="cls-14" d="M98.8,14.84c-.45-1.05-.91-2.1-1.36-3.14-.33-.77-.68-1.6-.46-2.45.2-.77.88-1.29,1.53-1.68,1.43-.85,3.23-1.1,4.46-2.28.47-.45.83-1.01,1.13-1.59.02-.05.09-.03.1.02l.03.67.07,1.67.09,2.15.09,2.1c.02.51.04,1.02.06,1.52,0,.21,0,.43-.09.62-.1.22-.32.35-.53.45-.47.21-1.01.21-1.51.21-.24,0-.49-.01-.73,0-1.19.06-2.28.67-2.87,1.74Z"/>
        </g>
        <g id="_Radial_Repeat_-15" data-name="&amp;lt;Radial Repeat&amp;gt;">
          <path class="cls-22" d="M105.19,14.51c-.11-1.14-.21-2.27-.32-3.41-.08-.84-.15-1.74.32-2.48.43-.67,1.23-.96,1.98-1.13,1.62-.36,3.41-.05,4.94-.79.59-.29,1.1-.71,1.56-1.17.04-.04.1,0,.09.05l-.18.65-.45,1.61-.58,2.07-.56,2.02c-.14.49-.27.98-.41,1.47-.06.2-.13.41-.27.57-.17.17-.41.23-.64.26-.51.06-1.03-.11-1.51-.27-.23-.08-.46-.16-.7-.22-1.15-.31-2.38-.06-3.26.77Z"/>
        </g>
        <g id="_Radial_Repeat_-16" data-name="&amp;lt;Radial Repeat&amp;gt;">
          <path class="cls-18" d="M111.36,16.16c.25-1.11.5-2.23.75-3.34.18-.82.39-1.7,1.07-2.26.62-.5,1.47-.53,2.23-.46,1.66.16,3.26,1.01,4.95.77.65-.09,1.27-.33,1.85-.63.05-.02.09.03.07.07l-.37.56-.93,1.39-1.19,1.79-1.16,1.75c-.28.42-.56.85-.84,1.27-.12.17-.25.35-.44.45-.21.11-.46.1-.69.05-.5-.1-.94-.42-1.35-.72-.2-.15-.39-.3-.59-.43-1-.65-2.25-.8-3.34-.28Z"/>
        </g>
        <g id="_Radial_Repeat_-17" data-name="&amp;lt;Radial Repeat&amp;gt;">
          <path class="cls-13" d="M116.72,19.64c.58-.98,1.16-1.96,1.75-2.95.43-.72.9-1.5,1.72-1.81.74-.29,1.56-.05,2.26.25,1.53.66,2.79,1.96,4.47,2.26.64.11,1.31.08,1.95-.02.05,0,.08.06.04.09l-.53.42-1.31,1.04-1.68,1.33-1.64,1.3c-.4.32-.8.63-1.19.95-.16.13-.35.26-.56.3-.24.04-.47-.05-.67-.17-.45-.25-.77-.69-1.06-1.1-.14-.2-.28-.4-.43-.59-.75-.93-1.89-1.45-3.09-1.3Z"/>
        </g>
      </g>
    </g>
  </g>
</svg>