<?xml version="1.0" encoding="UTF-8"?>
<svg id="Layer_2" data-name="Layer 2" xmlns="http://www.w3.org/2000/svg" xmlns:xlink="http://www.w3.org/1999/xlink" viewBox="0 0 210 100">
  <defs>
    <style>
      .cls-1 {
        fill: url(#linear-gradient-2);
      }

      .cls-2 {
        fill: #fff;
      }

      .cls-3 {
        fill: url(#linear-gradient-4);
      }

      .cls-4 {
        fill: url(#linear-gradient-3);
      }

      .cls-5 {
        clip-path: url(#clippath-1);
      }

      .cls-6 {
        clip-path: url(#clippath-3);
      }

      .cls-7 {
        opacity: 0;
      }

      .cls-8 {
        clip-rule: evenodd;
        fill: none;
      }

      .cls-9 {
        clip-path: url(#clippath-2);
      }

      .cls-10 {
        fill: url(#linear-gradient);
      }

      .cls-11 {
        clip-path: url(#clippath);
      }
    </style>
    <clipPath id="clippath">
      <path class="cls-8" d="M4.89,50.27c-1.57,0-3.43-.19-3.08-1.26.16-.29,7.25-1.42,7.04-1.46l-4.21.47c-.53,0-1.06-.04-1.61-.13l-.23-.02-.78.05c-.87,0-1.34-.15-1.47-.98.03-.77,3.13-.36,1.91-.72l.22-.76c3.23-1.2,6.34-1.9,9.23-3.05l.46-.19c.42-.18,2.76-2.29,2.64-2.29l-3.53,1.36c-1.09.38-2.16.81-3.12,1.41-.47.29-3.12,1.51-4.37,1.51l-.48-.06c-.1-.14,6.07-2.57,6.75-2.73l.77-.21c2.24-.95,3.51-2.55,4.8-4.08l2.53-2.83c.16-.18.33-.36.49-.53.78-.84,1.39-4.04,1.68-4.04l.08.06.03.13-.1-1.19c1.79-.82,1.55-1.76,1.76-2.58l.17-.41.65-.62c.35-.68,1.57-1.36,2.46-1.36l.99.26-.57,1.66c-.43.6,1.53.77.22,1.51l-.61.54c-1.27,1.72-3.22,4.14-3.07,6.19l-1.4,1.73c2.83-1.35,4.27-3.65,3.94-5.7l.62-1.14c1.32-1.2,2.83-2.43,2.35-4.14-.22-.84,1.11-1.69,1.72-1.69l.42.2c-1.05,1.78-.5,1.63.38,2.28l.02.38v1.48s0,.16,0,.16v.24l.02.44.03.46.02.24.03.33.02.22.23,1.89-.09.17-3.14,4.44c-1.05,1.15-2.06,2.37-3,3.62l.15.75c1.21-.86,1.72-1.71,2.28-2.52l2.62-3.6c.46-.82.87-1.67,1.24-2.54l.07.38.04.19.11.55.13.58v.05s.02.03.02.03v.04s.02.04.02.04v.03s0,0,0,0l.06.23.11.44.93,3.19c-.19.35-.36.71-.5,1.09-.61,1.66-2.13,2.52-3.29,3.67l-2.06,2.17c-.09.08-.72.72-.99.72h-.06s.57-1.04.57-1.04c1.56-1.47,5.95-4.43,5.45-7.06h0c-.25,0-5.32,5.38-6.12,5.98l-.9.8c-.88.2-.96.47-1,.82-.44,2.7-6.88,4.28-8.95,4.82-2.28.58-4.68.89-7.13.89h-.64c-.26,0-1.04.06-1.92.06l-.03-.03ZM20.87,38.76l.54-.45c.68-.59,1.2-1.1,1.69-1.63l-.2.08.6-.55.24-.3.02-.04c-.16,0-2.05,1.36-2.63,1.82l-.23.19-.15.42.79-.43-.43.45-.19.38-.06.07h0ZM22.33,37.05l.57-.49-.02.18-.55.31ZM14.22,43.25l.96-.45,2.68-1.83-3.83,2.25.19.03ZM22.02,42.76l.28-.2.19-.22-.29.24-.19.18h0ZM9.77,49.3c1.48-.28,2.88-.88,4.21-1.5l.23-.1,4.32-2.07c.08-.33.17-.66.24-.99l-2.89,1.2c-.75.36-1.48.72-2.24,1.06l-1.81.78c-.93.44-1.91.84-4.06,1.2l2.01.41h0Z"/>
    </clipPath>
    <linearGradient id="linear-gradient" x1="-5.06" y1="53.72" x2="38.6" y2="19.15" gradientUnits="userSpaceOnUse">
      <stop offset="0" stop-color="#f3352f"/>
      <stop offset="1" stop-color="#f99527"/>
    </linearGradient>
    <clipPath id="clippath-1">
      <path class="cls-8" d="M43.4,51.69l-.71-.36c-2.05-.75-2.89-2.27-4.05-3.44l-2.17-2.06c-.09-.1-.87-.87-.69-1.08l1.01.59c1.4,1.47,4.12,5.49,6.64,5.49h.28c.35-.1-5.24-5.35-5.84-6.16l-.8-.9c-.2-.88-.47-.96-.82-.99-2.7-.44-4.28-6.88-4.82-8.96-.63-2.48-.94-5.09-.88-7.76,0-.63-.43-5.05.96-5.05h.16c.38.2,1.47,7.08,1.55,7.08-.27-1.91-.69-3.79-.35-5.83.15-.94-.52-2.26.96-2.48.65.03.46,2.19.6,2.19l.07-.08h.83c1.2,3.24,1.9,6.35,3.06,9.24l.19.46c.18.41,2.19,2.65,2.29,2.65h0l-1.36-3.54c-.38-1.09-.81-2.16-1.41-3.12-.35-.56-2.08-4.37-1.31-4.96,0,0,2.43,6.18,2.6,6.86l.2.77c.95,2.24,2.55,3.51,4.08,4.8l2.83,2.53c.18.16.36.33.53.49.95.88,4.96,1.56,3.85,1.77l1.19-.1c.82,1.79,1.76,1.55,2.58,1.76l.41.17.62.65c1.09.56,2.22,3.4.4,3.48l-.97-.6-.12-.07-.59.74-.62-.12-.73-.95c-1.65-1.22-3.96-3.08-5.96-3.08h-.15l-1.8-1.4c1.22,2.55,3.23,3.99,5.12,3.99l.38-.02,1.32.59c1.04,1.15,2.11,2.44,3.5,2.44l.42-.03.35-.08c1.08,0,2.03,2.04,1.32,2.04l-.25-.05-.89-.47c-.58,0-.66.44-1.09,1.03l-.5.03h-.46c-1.85,0-3.38.11-4.87.36l-.17-.09-4.44-3.14c-1.15-1.05-2.37-2.06-3.62-3l-.75.15c.86,1.2,1.71,1.72,2.52,2.28l3.6,2.62c.82.46,1.67.87,2.54,1.24l-2.21.47c-.76.2-2.09.54-3.51,1.01h-.05ZM36.12,38.02l-1.2-2.89c-.36-.75-.72-1.48-1.06-2.24l-.78-1.81c-.44-.93-.84-1.91-1.2-4.06l-.41,2.01c.28,1.48.88,2.88,1.5,4.21l.1.23,2.07,4.32c.33.08.66.17.99.24h0ZM39.78,37.11c-.28-.54-2.14-3.65-2.27-3.65h0l.45.97,1.83,2.68ZM44.89,43.02c.12,0-1.34-2.02-1.81-2.63l-.19-.23-.42-.15.43.79-.45-.43-.39-.19-.07-.06.45.54c.59.68,1.1,1.2,1.63,1.69l-.08-.2.55.6.3.24.03.02h0ZM38.41,41.75l-.24-.29-.18-.19.2.28.22.19h0ZM44.21,42.15l-.18-.02-.31-.55.49.57Z"/>
    </clipPath>
    <linearGradient id="linear-gradient-2" x1="37.34" y1="26.83" x2="51.24" y2="44.92" gradientUnits="userSpaceOnUse">
      <stop offset="0" stop-color="#ffd300"/>
      <stop offset="1" stop-color="#fff100"/>
    </linearGradient>
    <clipPath id="clippath-2">
      <path class="cls-8" d="M31.79,77.02l-.42-.2c1.05-1.78.5-1.63-.39-2.28l-.03-.5c.04-1.88-.08-3.63-.36-5.33l3.23-4.62c1.05-1.15,2.06-2.37,3-3.62l-.15-.75c-1.21.86-1.72,1.72-2.27,2.52l-2.62,3.6c-.46.82-.87,1.67-1.24,2.54l-.47-2.21c-.2-.76-.54-2.09-1.01-3.51l.36-.71c.75-2.05,2.27-2.89,3.44-4.05l2.06-2.17c.09-.08.72-.72.99-.72h.06s-.57,1.04-.57,1.04c-1.55,1.47-5.95,4.43-5.45,7.06h0c.25,0,5.32-5.38,6.12-5.98l.9-.8c.88-.2.96-.47.99-.82.44-2.7,6.88-4.28,8.96-4.82,2.28-.58,4.67-.89,7.13-.89h.65c.26,0,1.04-.06,1.91-.06,1.57,0,3.43.19,3.08,1.26-.16.29-7.25,1.42-7.04,1.46l4.21-.47c.53,0,1.07.04,1.61.13l.23.03.78-.05c.87,0,1.34.15,1.47.98-.03.77-3.13.36-1.91.72l-.22.76c-3.23,1.2-6.34,1.9-9.23,3.06l-.46.19c-.42.18-2.76,2.29-2.64,2.29l3.53-1.36c1.09-.38,2.16-.81,3.12-1.41.47-.29,3.12-1.51,4.37-1.51l.48.06c.1.14-6.07,2.57-6.76,2.73l-.77.21c-2.24.95-3.51,2.55-4.8,4.08l-2.51,2.8c-.16.18-.33.36-.49.53-.78.84-1.39,4.05-1.68,4.05l-.08-.06.08,1.06c-1.79.82-1.55,1.76-1.76,2.58l-.17.41-.65.62c-.35.68-1.57,1.36-2.46,1.36l-.99-.26.57-1.66c.43-.6-1.53-.77-.22-1.51l.61-.54c1.27-1.72,3.22-4.14,3.07-6.19l1.4-1.73c-2.83,1.35-4.27,3.65-3.94,5.7l-.62,1.14c-1.32,1.2-2.83,2.43-2.35,4.14.21.84-1.11,1.69-1.72,1.69h0ZM42.72,55.38l2.89-1.2c.75-.36,1.48-.72,2.24-1.06l1.81-.79c.93-.44,1.92-.84,4.06-1.2l-2.01-.41c-1.49.28-2.88.88-4.21,1.5l-.23.1-4.32,2.07c-.08.33-.17.66-.24.99ZM43.63,59.04c.55-.29,3.83-2.25,3.64-2.28l-.96.45-2.68,1.83h0ZM39.01,57.67l.29-.24.18-.18-.28.2-.19.22h0ZM37.75,64.15c.15,0,2.03-1.36,2.62-1.82l.23-.19.15-.42-.79.42.43-.45.19-.38.06-.07-.54.45c-.68.59-1.2,1.1-1.69,1.64l.2-.08-.6.55-.24.3-.02.04h0ZM38.6,63.45l.02-.18.55-.31-.57.49Z"/>
    </clipPath>
    <linearGradient id="linear-gradient-3" x1="37.79" y1="69.1" x2="50.89" y2="58.73" gradientUnits="userSpaceOnUse">
      <stop offset="0" stop-color="#b4d447"/>
      <stop offset="1" stop-color="#00b163"/>
    </linearGradient>
    <clipPath id="clippath-3">
      <path class="cls-8" d="M27.69,80.21c-.65-.03-.46-2.19-.6-2.19l-.07.08h-.83c-1.2-3.24-1.9-6.35-3.06-9.24l-.19-.46c-.18-.41-2.19-2.65-2.29-2.65l1.36,3.54c.38,1.09.81,2.16,1.41,3.12.35.56,2.08,4.36,1.31,4.96,0,0-2.43-6.18-2.6-6.86l-.21-.77c-.95-2.24-2.55-3.51-4.08-4.8l-2.83-2.53c-.18-.16-.36-.33-.53-.49-.95-.88-4.96-1.56-3.85-1.77l-1.19.1c-.82-1.79-1.76-1.55-2.58-1.76l-.41-.17-.62-.65c-1.09-.56-2.22-3.4-.4-3.48l.97.6.12.07.59-.74.62.12.73.95c1.65,1.22,3.96,3.08,5.96,3.08h.15l1.8,1.4c-1.22-2.55-3.23-3.99-5.12-3.99l-.39.02-1.32-.59c-1.04-1.15-2.11-2.44-3.5-2.44l-.42.03-.35.08c-1.08,0-2.03-2.04-1.32-2.04l.25.05.89.47c.58,0,.66-.44,1.09-1.03l.5-.03h.46c1.85,0,3.38-.11,4.87-.36l.17.09,4.44,3.14c1.16,1.05,2.37,2.06,3.62,3l.75-.15c-.86-1.21-1.71-1.72-2.52-2.28l-3.6-2.62c-.82-.46-1.67-.87-2.54-1.24l5.72-1.48c.35.19.71.36,1.09.5,1.66.61,2.52,2.13,3.67,3.29l2.17,2.06c.09.1.87.87.69,1.08l-1.01-.59c-3.51-3.7-5.25-5.5-5.45-5.5-.23,0,1.34,2.09,4.38,6.17l.8.9c.2.88.47.96.82,1,2.7.44,4.28,6.88,4.82,8.96.63,2.48.94,5.09.88,7.76,0,.63.43,5.05-.96,5.05h-.16c-.38-.2-1.47-7.08-1.55-7.08.27,1.91.69,3.79.35,5.83-.15.94.52,2.26-.96,2.48l.04.02ZM19.04,60.02l-.43-.79.45.43.38.19.07.06-.45-.54c-.59-.68-1.1-1.2-1.63-1.69l.08.2-.55-.6-.3-.24-.03-.02c-.13,0,1.33,2.02,1.81,2.63l.19.23.42.15h0ZM17.79,58.44l-.49-.57.18.02.31.55ZM23.51,58.74l-.2-.28-.22-.19.24.29.18.18h0ZM29.62,72.99l.41-2.01c-.28-1.48-.88-2.88-1.5-4.21l-.1-.23-2.06-4.32c-.33-.08-.66-.17-1-.24l1.2,2.89c.36.75.72,1.48,1.06,2.24l.78,1.81c.44.93.84,1.91,1.2,4.06h0ZM23.99,66.54h0l-.45-.97-1.83-2.68,2.14,3.65h.13Z"/>
    </clipPath>
    <linearGradient id="linear-gradient-4" x1="2.74" y1="45.28" x2="33.31" y2="85.07" gradientUnits="userSpaceOnUse">
      <stop offset="0" stop-color="#0096d4"/>
      <stop offset="1" stop-color="#3d45a3"/>
    </linearGradient>
  </defs>
  <g id="Layer_1-2" data-name="Layer 1">
    <rect class="cls-7" width="210" height="100"/>
    <g>
      <g>
        <path class="cls-2" d="M68.25,34.54c0-.17.14-.33.33-.33h4.01c2.08,0,3.7,1.4,3.7,3.24,0,1.35-1.1,2.4-1.93,2.79.93.3,2.28,1.24,2.28,2.86,0,1.96-1.68,3.38-3.82,3.38h-4.24c-.19,0-.33-.16-.33-.33v-11.6ZM72.39,39.36c.89,0,1.51-.7,1.51-1.58s-.61-1.49-1.51-1.49h-1.87v3.07h1.87ZM72.63,44.4c.88,0,1.58-.68,1.58-1.59s-.88-1.52-1.79-1.52h-1.91v3.12h2.12Z"/>
        <path class="cls-2" d="M79.46,34.54c0-.17.14-.33.33-.33h5.01c2.1,0,3.82,1.68,3.82,3.77,0,1.61-1.07,2.92-2.59,3.54l2.4,4.45c.12.23,0,.51-.3.51h-1.84c-.16,0-.24-.09-.28-.16l-2.33-4.64h-1.94v4.47c0,.17-.16.33-.33.33h-1.61c-.19,0-.33-.16-.33-.33v-11.6ZM84.61,39.79c.93,0,1.73-.81,1.73-1.79,0-.93-.81-1.7-1.73-1.7h-2.85v3.49h2.85Z"/>
        <path class="cls-2" d="M91.52,34.54c0-.17.16-.33.33-.33h1.63c.17,0,.33.16.33.33v11.6c0,.17-.16.33-.33.33h-1.63c-.18,0-.33-.16-.33-.33v-11.6Z"/>
        <path class="cls-2" d="M99.05,36.31h-2.68c-.19,0-.33-.16-.33-.33v-1.44c0-.17.14-.33.33-.33h7.65c.19,0,.33.16.33.33v1.44c0,.17-.14.33-.33.33h-2.68v9.83c0,.17-.16.33-.33.33h-1.63c-.18,0-.33-.16-.33-.33v-9.83Z"/>
        <path class="cls-2" d="M106.58,34.54c0-.17.16-.33.33-.33h1.63c.17,0,.33.16.33.33v11.6c0,.17-.16.33-.33.33h-1.63c-.18,0-.33-.16-.33-.33v-11.6Z"/>
        <path class="cls-2" d="M111.75,44.75l.63-1.09c.14-.25.44-.25.6-.12.09.05,1.51,1.09,2.64,1.09.91,0,1.59-.6,1.59-1.35,0-.89-.75-1.51-2.23-2.1-1.65-.67-3.29-1.72-3.29-3.78,0-1.56,1.16-3.36,3.94-3.36,1.79,0,3.15.91,3.5,1.17.17.1.23.4.1.58l-.67,1c-.14.21-.4.35-.61.21-.14-.09-1.47-.96-2.43-.96s-1.54.67-1.54,1.23c0,.82.65,1.38,2.07,1.96,1.7.68,3.66,1.7,3.66,3.96,0,1.8-1.56,3.47-4.03,3.47-2.21,0-3.5-1.03-3.85-1.37-.16-.16-.24-.25-.09-.53Z"/>
        <path class="cls-2" d="M122.36,34.54c0-.17.16-.33.33-.33h1.63c.19,0,.33.16.33.33v4.64h5.71v-4.64c0-.17.14-.33.33-.33h1.61c.17,0,.33.16.33.33v11.6c0,.17-.16.33-.33.33h-1.61c-.19,0-.33-.16-.33-.33v-4.83h-5.71v4.83c0,.17-.14.33-.33.33h-1.63c-.17,0-.33-.16-.33-.33v-11.6Z"/>
        <path class="cls-2" d="M140.5,34.54c0-.17.16-.33.33-.33h1.63c.17,0,.33.16.33.33v11.6c0,.17-.16.33-.33.33h-1.63c-.17,0-.33-.16-.33-.33v-11.6Z"/>
        <path class="cls-2" d="M145.66,44.75l.63-1.09c.14-.25.44-.25.6-.12.09.05,1.51,1.09,2.64,1.09.91,0,1.59-.6,1.59-1.35,0-.89-.75-1.51-2.22-2.1-1.65-.67-3.29-1.72-3.29-3.78,0-1.56,1.16-3.36,3.94-3.36,1.79,0,3.15.91,3.5,1.17.17.1.23.4.1.58l-.67,1c-.14.21-.4.35-.61.21-.14-.09-1.47-.96-2.43-.96s-1.54.67-1.54,1.23c0,.82.65,1.38,2.07,1.96,1.7.68,3.66,1.7,3.66,3.96,0,1.8-1.56,3.47-4.03,3.47-2.21,0-3.5-1.03-3.85-1.37-.16-.16-.24-.25-.09-.53Z"/>
        <path class="cls-2" d="M156.27,34.54c0-.17.14-.33.33-.33h1.61c.17,0,.33.16.33.33v9.83h4.47c.19,0,.33.16.33.33v1.44c0,.17-.14.33-.33.33h-6.41c-.19,0-.33-.16-.33-.33v-11.6Z"/>
        <path class="cls-2" d="M164.48,46.01l5.45-11.79c.05-.1.14-.19.3-.19h.17c.17,0,.24.09.3.19l5.39,11.79c.11.23-.03.46-.3.46h-1.52c-.26,0-.38-.1-.51-.35l-.86-1.89h-5.24l-.86,1.89c-.07.17-.23.35-.51.35h-1.52c-.26,0-.4-.23-.3-.46ZM172.05,42.28l-1.75-3.85h-.05l-1.72,3.85h3.52Z"/>
        <path class="cls-2" d="M179.37,34.29c.02-.14.12-.26.32-.26h.28c.14,0,.25.07.3.17l3.85,8.27h.05l3.85-8.27c.05-.1.14-.17.3-.17h.28c.19,0,.3.12.32.26l2.07,11.77c.05.24-.09.4-.32.4h-1.59c-.16,0-.3-.14-.33-.26l-1.03-6.64h-.05l-3.07,6.88c-.03.1-.14.19-.3.19h-.32c-.16,0-.24-.09-.3-.19l-3.1-6.88h-.05l-1.02,6.64c-.02.12-.16.26-.32.26h-1.58c-.23,0-.37-.16-.33-.4l2.08-11.77Z"/>
        <path class="cls-2" d="M193.78,34.54c0-.17.16-.33.33-.33h1.63c.17,0,.33.16.33.33v11.6c0,.17-.16.33-.33.33h-1.63c-.18,0-.33-.16-.33-.33v-11.6Z"/>
        <path class="cls-2" d="M205.09,34.03c1.77,0,3.05.56,4.24,1.63.16.14.16.35.02.49l-1.07,1.1c-.12.14-.3.14-.44,0-.74-.65-1.72-1.03-2.7-1.03-2.24,0-3.91,1.87-3.91,4.08s1.68,4.05,3.92,4.05c1.05,0,1.94-.4,2.68-1,.14-.12.33-.1.44,0l1.09,1.12c.14.12.1.35-.02.47-1.19,1.16-2.7,1.7-4.26,1.7-3.5,0-6.32-2.79-6.32-6.29s2.82-6.32,6.32-6.32Z"/>
      </g>
      <g>
        <path class="cls-2" d="M97.02,53.62c0-.18.16-.32.33-.32h.44l7.29,7.74h.02v-7.23c0-.17.14-.33.33-.33h1.61c.17,0,.33.16.33.33v11.79c0,.18-.16.32-.33.32h-.42l-7.32-8.04h-.02v7.53c0,.17-.14.33-.33.33h-1.59c-.17,0-.33-.16-.33-.33v-11.79Z"/>
        <path class="cls-2" d="M111.43,53.81c0-.17.16-.33.33-.33h1.66c.19,0,.33.16.33.33v7.16c0,1.49,1.02,2.66,2.54,2.66s2.56-1.17,2.56-2.65v-7.18c0-.17.14-.33.33-.33h1.66c.17,0,.33.16.33.33v7.29c0,2.66-2.12,4.82-4.89,4.82s-4.87-2.15-4.87-4.82v-7.29Z"/>
        <path class="cls-2" d="M125.24,53.81c0-.17.14-.33.33-.33h5.01c2.1,0,3.82,1.68,3.82,3.77,0,1.61-1.07,2.92-2.59,3.54l2.4,4.45c.12.23,0,.51-.3.51h-1.84c-.16,0-.24-.09-.28-.16l-2.33-4.64h-1.94v4.47c0,.17-.16.33-.33.33h-1.61c-.19,0-.33-.16-.33-.33v-11.6ZM130.39,59.07c.93,0,1.73-.81,1.73-1.79,0-.93-.81-1.7-1.73-1.7h-2.85v3.49h2.85Z"/>
        <path class="cls-2" d="M137.24,64.02l.63-1.09c.14-.25.44-.25.6-.12.09.05,1.51,1.09,2.64,1.09.91,0,1.59-.6,1.59-1.35,0-.89-.75-1.51-2.22-2.1-1.65-.67-3.29-1.72-3.29-3.78,0-1.56,1.16-3.36,3.94-3.36,1.79,0,3.15.91,3.5,1.17.17.1.23.4.1.58l-.67,1c-.14.21-.4.35-.61.21-.14-.09-1.47-.96-2.43-.96s-1.54.67-1.54,1.23c0,.82.65,1.38,2.07,1.96,1.7.68,3.66,1.7,3.66,3.96,0,1.8-1.56,3.47-4.03,3.47-2.21,0-3.5-1.03-3.85-1.37-.16-.16-.24-.25-.09-.53Z"/>
        <path class="cls-2" d="M148.5,53.81c0-.17.14-.33.33-.33h7.13c.19,0,.33.16.33.33v1.44c0,.17-.14.33-.33.33h-5.18v2.87h4.33c.18,0,.33.16.33.33v1.45c0,.19-.16.33-.33.33h-4.33v3.07h5.18c.19,0,.33.16.33.33v1.44c0,.17-.14.33-.33.33h-7.13c-.19,0-.33-.16-.33-.33v-11.6Z"/>
        <path class="cls-2" d="M159.84,53.81c0-.17.14-.33.33-.33h5.01c2.1,0,3.82,1.68,3.82,3.77,0,1.61-1.07,2.92-2.59,3.54l2.4,4.45c.12.23,0,.51-.3.51h-1.84c-.16,0-.24-.09-.28-.16l-2.33-4.64h-1.94v4.47c0,.17-.16.33-.33.33h-1.61c-.19,0-.33-.16-.33-.33v-11.6ZM164.99,59.07c.93,0,1.73-.81,1.73-1.79,0-.93-.81-1.7-1.73-1.7h-2.85v3.49h2.85Z"/>
        <path class="cls-2" d="M174.9,59.84l-3.99-5.85c-.14-.23,0-.51.28-.51h1.79c.14,0,.23.09.28.16l2.8,4.03,2.8-4.03c.05-.07.14-.16.28-.16h1.8c.28,0,.42.28.28.51l-4.05,5.83v5.59c0,.17-.16.33-.33.33h-1.61c-.19,0-.33-.16-.33-.33v-5.57Z"/>
      </g>
      <g>
        <g class="cls-11">
          <rect class="cls-10" x=".55" y="22.99" width="31.91" height="27.31"/>
        </g>
        <g class="cls-5">
          <rect class="cls-1" x="30.13" y="19.79" width="28.13" height="31.91"/>
        </g>
        <g class="cls-9">
          <rect class="cls-4" x="29.06" y="49.75" width="31.89" height="27.28"/>
        </g>
        <g class="cls-6">
          <rect class="cls-3" x="3.27" y="48.3" width="28.1" height="31.91"/>
        </g>
      </g>
    </g>
  </g>
</svg>