<?xml version="1.0" encoding="UTF-8"?>
<svg id="Layer_2" data-name="Layer 2" xmlns="http://www.w3.org/2000/svg" viewBox="0 0 210 100">
  <defs>
    <style>
      .cls-1 {
        fill: #fff;
      }

      .cls-2 {
        opacity: 0;
      }

      .cls-3 {
        fill: #ddd;
      }

      .cls-4 {
        fill: #a2a2a2;
      }
    </style>
  </defs>
  <g id="Layer_1-2" data-name="Layer 1">
    <rect class="cls-2" width="210" height="100"/>
    <g id="c">
      <g id="d">
        <g>
          <g>
            <path class="cls-1" d="M127.35,51.66h-2.39l-.29.81h-1.51l2.47-5.76h1.05l2.47,5.76h-1.51l-.3-.81h0ZM125.37,50.51h1.57l-.78-2.17-.79,2.17Z"/>
            <path class="cls-1" d="M129.83,52.47v-6h1.35v6h-1.35Z"/>
            <path class="cls-1" d="M135.27,48.94v-.62h1.32v4.06c0,1.08-1.01,1.89-2.32,1.89-1.15,0-1.99-.49-2.29-1.48h1.34c.15.3.47.44.93.44.55,0,.99-.29.99-.86v-.66c-.19.34-.68.65-1.27.65-1.2,0-2.03-.89-2.03-2.07s.83-2.07,2.03-2.07c.63,0,1.1.3,1.29.72h0ZM135.25,50.3c0-.56-.4-.97-1-.97s-.97.41-.97.97.39.97.97.97,1-.41,1-.97Z"/>
            <path class="cls-1" d="M141.97,50.4c0,1.12-.83,2.17-2.3,2.17s-2.3-1.05-2.3-2.17.83-2.17,2.3-2.17,2.3,1.05,2.3,2.17ZM140.65,50.4c0-.55-.33-1.05-.99-1.05s-.99.5-.99,1.05.33,1.05.99,1.05.99-.5.99-1.05Z"/>
            <path class="cls-1" d="M145.4,49.63h-.27c-.74,0-1.04.3-1.04,1.11v1.73h-1.35v-4.15h1.31v.82c.17-.67.68-.86,1.23-.86h.13v1.34h0,0Z"/>
            <path class="cls-1" d="M146.72,47.86c-.43,0-.77-.33-.77-.76s.35-.76.77-.76.77.34.77.76-.34.76-.77.76ZM146.04,52.47v-4.15h1.35v4.15h-1.35Z"/>
            <path class="cls-1" d="M150.95,51.39v1.07c-.14.06-.52.12-.8.12-1,0-1.45-.59-1.45-1.51v-1.63h-.72v-1.11h.72v-1.24h1.35v1.24h.94v1.11h-.94v1.55c0,.32.15.47.47.47.16,0,.3-.03.43-.07h0Z"/>
            <path class="cls-1" d="M153.04,52.47h-1.35v-6h1.35v2.44c.18-.4.66-.68,1.21-.68,1,0,1.49.68,1.49,1.67v2.57h-1.35v-2.35c0-.43-.2-.73-.66-.73-.4,0-.69.25-.69.72v2.36h0Z"/>
            <path class="cls-1" d="M158.04,52.47h-1.35v-4.15h1.31v.62c.18-.4.64-.72,1.22-.72.63,0,1.04.27,1.27.72.25-.41.74-.72,1.38-.72,1,0,1.47.68,1.47,1.67v2.57h-1.35v-2.35c0-.43-.18-.73-.63-.73-.4,0-.67.25-.67.68v2.4h-1.35v-2.35c0-.43-.18-.73-.63-.73-.42,0-.67.25-.67.72v2.36h0Z"/>
            <path class="cls-1" d="M167.74,50.98v1.49h-1.4v-5.76h2.71c1.22,0,2.12.94,2.12,2.14s-.91,2.13-2.12,2.13h-1.31ZM168.85,49.78c.52,0,.92-.37.92-.93s-.4-.94-.92-.94h-1.11v1.87h1.11Z"/>
            <path class="cls-1" d="M176.17,50.4c0,1.12-.83,2.17-2.3,2.17s-2.3-1.05-2.3-2.17.83-2.17,2.3-2.17,2.3,1.05,2.3,2.17ZM174.85,50.4c0-.55-.33-1.05-.99-1.05s-.99.5-.99,1.05.33,1.05.99,1.05.99-.5.99-1.05Z"/>
            <path class="cls-1" d="M181.33,50.87l.66-2.54h1.31l-1.31,4.15h-1.15l-.99-2.55-.99,2.55h-1.15l-1.31-4.15h1.31l.66,2.54.93-2.54h1.1l.93,2.54h0,0Z"/>
            <path class="cls-1" d="M186.65,51.18h1.24c-.25.78-1.08,1.39-2.12,1.39-1.45,0-2.27-.91-2.27-2.18s.92-2.17,2.21-2.17,2.2.84,2.2,2.18v.4h-3.09c.08.45.36.78.95.78.4,0,.72-.15.87-.41h0ZM184.83,49.98h1.8c-.07-.49-.39-.81-.9-.81s-.83.3-.91.81Z"/>
            <path class="cls-1" d="M191.37,49.63h-.27c-.74,0-1.04.3-1.04,1.11v1.73h-1.35v-4.15h1.31v.82c.17-.67.68-.86,1.23-.86h.13v1.34h0Z"/>
            <path class="cls-1" d="M194.85,51.18h1.24c-.25.78-1.08,1.39-2.12,1.39-1.45,0-2.27-.91-2.27-2.18s.92-2.17,2.21-2.17,2.2.84,2.2,2.18v.4h-3.09c.08.45.36.78.95.78.4,0,.72-.15.87-.41h0ZM193.03,49.98h1.8c-.07-.49-.39-.81-.9-.81s-.83.3-.91.81Z"/>
            <path class="cls-1" d="M200.04,48.94v-2.47h1.35v6h-1.3v-.62c-.23.4-.71.72-1.33.72-1.2,0-2.07-.94-2.07-2.17s.87-2.17,2.07-2.17c.63,0,1.09.3,1.28.72h0ZM200.04,50.4c0-.61-.42-1.05-1.01-1.05s-1,.45-1,1.05.41,1.05,1,1.05,1.01-.44,1.01-1.05Z"/>
          </g>
          <path class="cls-3" d="M33.88,25.12c6.1,0,10.91,1.58,14.94,4.27,2.88,1.92,3.2,6.03.7,8.42l-.12.11c-1.79,1.7-4.51,1.99-6.6.67-2.64-1.67-5.67-2.66-8.92-2.66-8.32,0-13.69,6.22-13.69,14.07s5.37,14.07,13.69,14.07c3.23,0,6.23-.97,8.86-2.62,2.12-1.33,4.87-1.03,6.66.72h0c2.45,2.4,2.1,6.46-.75,8.35-3.99,2.64-8.87,4.35-14.76,4.35-14.77,0-25.27-10.96-25.27-24.88s10.5-24.88,25.27-24.88h0Z"/>
          <path class="cls-3" d="M82.87,30.39h0c0,2.91-2.36,5.27-5.27,5.27h-21.12v-10.55h21.12c2.91,0,5.27,2.36,5.27,5.27Z"/>
          <path class="cls-3" d="M123.35,74.88c-1.65,0-3.2-.77-4.2-2.08l-10.77-14.15h0l2.44-3.21,1.6-2.1.02-.03c1.51-2,1.5-4.77-.02-6.76l-.08-.11-1.17-1.55-2.78-3.65h0l10.68-14.04c1-1.31,2.55-2.08,4.2-2.08,4.36,0,6.83,4.99,4.2,8.46l-12.13,15.94-.32.42.32.42,12.22,16.06c2.64,3.47.17,8.47-4.2,8.47h0Z"/>
          <rect class="cls-3" x="56.48" y="60.71" width="10.55" height="14.17"/>
          <rect class="cls-3" x="56.48" y="25.45" width="10.55" height="14.17"/>
          <path class="cls-4" d="M112.45,53.31l-.02.03-1.6,2.1-2.44,3.21h0l-10.77,14.15c-1,1.31-2.55,2.08-4.2,2.08-3.13,0-5.28-2.57-5.28-5.3,0-1.08.34-2.19,1.08-3.17l8.35-10.98h-41.1v-10.55h41.44l-8.61-11.31c-2.64-3.47-.16-8.46,4.2-8.46.82,0,1.62.19,2.34.55.72.36,1.35.88,1.85,1.53l10.68,14.04h0l2.78,3.66,1.17,1.55.08.11c1.52,1.99,1.53,4.76.02,6.76h0Z"/>
        </g>
      </g>
    </g>
  </g>
</svg>