<?xml version="1.0" encoding="UTF-8"?>
<svg id="Layer_2" data-name="Layer 2" xmlns="http://www.w3.org/2000/svg" viewBox="0 0 210 100">
  <defs>
    <style>
      .cls-1 {
        fill: #fff;
      }

      .cls-2 {
        opacity: 0;
      }

      .cls-3 {
        fill: #464646;
      }
    </style>
  </defs>
  <g id="Layer_1-2" data-name="Layer 1">
    <rect class="cls-2" width="210" height="100"/>
    <g>
      <g>
        <path class="cls-3" d="M54.05,26.09l-4.53,7.49c-3.46-2.31-7.25-3.87-13.01-3.87-9.92,0-17.58,6.65-18.65,17.59-3.03,1.89-5.67,3.76-8.01,5.67h-.01c-.68.58-1.55,1.3-2.46,2.15-.23-1.65-.35-3.37-.35-5.15,0-16.55,10.46-29.73,29.48-29.73,7.49,0,13.75,2.39,17.54,5.85Z"/>
        <path class="cls-3" d="M60.79,66.98c.36.42-4.82,5.47-5.35,5.93-2.34,2.05-5.03,3.69-7.92,4.84-6.52,2.59-14,2.58-20.67.56-4.76-1.45-9.14-4.02-12.49-7.72,3.65-.24,7.51-1.02,10.67-1.82.49-.12.96-.25,1.4-.37.01-.05.02-.11.03-.17.06-.34.07-.68.05-1.04,0-.03,0-.05,0-.08-.17-1.91-1.07-3.69-1.26-5.61-.33-3.43,1.83-6.96,3.67-8.65.51-.47.97-.8,1.29-1.01-.06.44-.08,1.04.03,1.73.18,1.07.61,1.87.91,2.33.94-.06,1.78.06,2.52.39.43.19.82.46,1.18.8.2.19.38.41.56.66.52.74,1.16,1.22,2.08,1.3.47.04.62.3.56.74-.21,1.53-.9,2.74-2.38,3.32-.67.26-1.41.32-2.12.48-.96.2-1.37.82-1.1,1.56.25.69.86,1.21,1.34,1.74.34.37.53.6.78.93.32.43.55.8.69,1.06l3.53.09c.64-3.75,1.08-5.34,1.38-6.09.22-.57.32-.86.52-1.44.18-.55.35-1.09.49-1.65.37-1.53-.36-2.86-1.82-3.43-.5-.19-1.04-.33-1.57-.39-.17-.02-.33-.04-.49-.07-.62-.1-1.18-.29-1.66-.55-1.08-.59-1.82-1.57-2.2-2.94-.35-1.27-.42-2.61-.59-3.93-.08-.59.24-.79.81-.78,1.47.03,2.95-.06,4.41.05,1.31.1,2.22-.32,2.99-1.38,1.19-1.64,2.94-2.29,4.9-2.32,3.94-.05,9.38,2.27,10.13,6.55,0,.04.01.08.02.13,0,.07.07.73-.08,1.6-.16.91-.55,2.06-1.5,3.03-.4.41-1.35,1.38-2.82,1.46-.35.02-.74,0-1.11-.09-.47-.1-.92-.29-1.31-.56-.28-.2-.52-.44-.7-.73-.07-.11-.11-.21-.15-.29-.46-1.08-.56-2.77-.55-4.16-.03,1.18-.05,2.35.07,3.5.29,2.77,3.78,3.44,5.75,1.97.33-.25.65-.52,1.02-.82-.23.19.71,2.86.83,3.22.36,1.11.83,2.18,1.43,3.18,1.07,1.77,2.48,3.37,3.83,4.93Z"/>
        <path class="cls-3" d="M20.98,61.73c-.24.09-.49.18-.74.27-3.47,1.18-6.85,2.25-10.14,2.27-.43-.88-.81-1.79-1.15-2.74,1.91-2.75,4.71-5.03,7.45-7.14.51-.37,1.03-.74,1.55-1.11.42,3.19,1.47,6.04,3.03,8.45Z"/>
        <path class="cls-1" d="M25.22,66.78c.04.22.07.44.07.65-4.93,1.29-10.4,2.46-15.52,1.9-2.16-.24-4.89-.96-5.99-3.01s-.2-4.58,1.01-6.38c1.59-2.37,3.73-4.32,5.95-6.11,3.9-3.15,8.13-5.86,12.51-8.29.33-.18,1.67-1.18,2-1.09.96.27,1.81.79,2.49,1.47-3.06,1.6-6.01,3.33-8.75,5.15-.4.26-.79.53-1.18.8-.73.5-1.45,1.01-2.15,1.52-1.87,1.44-3.72,2.92-5.37,4.61-.99,1.01-1.99,2.04-2.74,3.25-.53.86-1.51,2.53-.69,3.47.2.23.48.37.76.48,1.23.48,2.59.51,3.91.39,2.25-.21,4.45-.78,6.58-1.5.48-.16,5.95-2.03,5.91-2.2.32,1.45.75,2.86,1.07,4.31.04.19.09.39.12.58Z"/>
        <path class="cls-1" d="M57.11,49.61c-.47-1.72-1.57-2.92-2.51-3.68.18.15,2.74-2.28,3.05-2.59,1-.99,3.38-3.27,2.55-4.89-.2-.38-.59-.62-.97-.8-2.93-1.38-6.34-.48-9.35.12-4.22.85-8.64,2.22-13.01,3.96-1.16-.15-2.21-.64-3.05-1.38,2.36-1.01,4.75-1.93,7.17-2.77,4.98-1.72,10.33-3.33,15.65-3.28,1.25.01,2.52.13,3.69.57,7.68,2.88-.05,11.57-3.22,14.72Z"/>
        <path class="cls-1" d="M37.57,43.02c-2.01-.07-4.05.98-5.32,2.5-1.03,1.23-1.61,2.82-1.61,4.42,0,0,0,.02,0,.03,0-2.14-1.01-4.17-2.69-5.49-.84-.65-1.82-1.11-2.86-1.32-.45-.09-.92-.14-1.4-.14,2.21,0,4.33-1.08,5.63-2.87.86-1.18,1.32-2.62,1.32-4.08,0,2.16,1.03,4.21,2.74,5.52,1.23.94,2.66,1.37,4.19,1.43Z"/>
      </g>
      <g>
        <g>
          <path class="cls-3" d="M98.26,51.23c-1.71,1.82-5.16,3.07-8.69,3.07-8.31,0-14.01-5.55-14.01-14.01,0-7.8,4.93-14.01,13.9-14.01,3.53,0,6.48,1.13,8.27,2.76l-2.13,3.53c-1.63-1.09-3.42-1.82-6.13-1.82-5.05,0-8.85,3.65-8.85,9.55s3.84,9.55,9.39,9.55c2.29,0,4.58-.74,6.44-2.17l1.82,3.57Z"/>
          <path class="cls-3" d="M109.01,35.98c5.78,0,9.51,3.92,9.51,9.16s-3.73,9.16-9.51,9.16-9.51-3.92-9.51-9.16,3.73-9.16,9.51-9.16ZM109.01,50.14c2.76,0,4.77-1.98,4.77-5.01s-2.06-4.97-4.77-4.97-4.74,1.94-4.74,4.97,2.02,5.01,4.74,5.01Z"/>
          <path class="cls-3" d="M121.82,41.29c0-3.42,2.79-5.32,6.4-5.32,3.38,0,5.55,1.2,6.64,2.21l-1.67,3.18c-1.05-.82-2.87-1.67-4.74-1.67-1.36,0-2.17.74-2.17,1.51,0,2.91,9.43,1.32,9.43,7.49,0,3.45-2.79,5.59-7.06,5.59-3.22,0-6.48-1.75-7.3-2.99l2.17-2.91c1.05,1.13,3.69,2.17,5.43,2.17,1.28,0,2.29-.54,2.29-1.63,0-2.83-9.43-1.28-9.43-7.65Z"/>
          <path class="cls-3" d="M166.14,53.87h-4.46v-10.25c0-2.17-.89-3.34-2.99-3.34-1.67,0-2.99.82-3.61,2.02,0,.27.04.89.04,1.28v10.29h-4.46v-10.56c0-1.82-1.01-3.03-2.91-3.03-1.59,0-2.87.7-3.65,1.86v11.72h-4.46v-17.47h4.46v1.94c1.24-1.4,3.3-2.25,5.47-2.25,2.68,0,4.46,1.2,5.08,2.79,1.24-1.63,3.18-2.79,5.9-2.79,3.18,0,5.59,1.59,5.59,6.37v11.41Z"/>
          <path class="cls-3" d="M179.11,35.98c5.78,0,9.51,3.92,9.51,9.16s-3.73,9.16-9.51,9.16-9.51-3.92-9.51-9.16,3.73-9.16,9.51-9.16ZM179.11,50.14c2.76,0,4.77-1.98,4.77-5.01s-2.06-4.97-4.77-4.97-4.74,1.94-4.74,4.97,2.02,5.01,4.74,5.01Z"/>
          <path class="cls-3" d="M191.92,41.29c0-3.42,2.79-5.32,6.4-5.32,3.38,0,5.55,1.2,6.64,2.21l-1.67,3.18c-1.05-.82-2.87-1.67-4.74-1.67-1.36,0-2.17.74-2.17,1.51,0,2.91,9.43,1.32,9.43,7.49,0,3.45-2.79,5.59-7.06,5.59-3.22,0-6.48-1.75-7.3-2.99l2.17-2.91c1.05,1.13,3.69,2.17,5.43,2.17,1.28,0,2.29-.54,2.29-1.63,0-2.83-9.43-1.28-9.43-7.65Z"/>
        </g>
        <g>
          <path class="cls-1" d="M86.41,68.75c-.82.87-2.47,1.47-4.16,1.47-3.97,0-6.7-2.65-6.7-6.7,0-3.73,2.36-6.7,6.65-6.7,1.69,0,3.1.54,3.95,1.32l-1.02,1.69c-.78-.52-1.63-.87-2.93-.87-2.41,0-4.23,1.75-4.23,4.57s1.84,4.57,4.49,4.57c1.1,0,2.19-.35,3.08-1.04l.87,1.71Z"/>
          <path class="cls-1" d="M91.55,61.46c2.77,0,4.55,1.87,4.55,4.38s-1.78,4.38-4.55,4.38-4.55-1.87-4.55-4.38,1.78-4.38,4.55-4.38ZM91.55,68.23c1.32,0,2.28-.95,2.28-2.39s-.98-2.38-2.28-2.38-2.26.93-2.26,2.38.97,2.39,2.26,2.39Z"/>
          <path class="cls-1" d="M110.64,70.01h-2.13v-4.9c0-1.04-.43-1.6-1.43-1.6-.8,0-1.43.39-1.73.97,0,.13.02.43.02.61v4.92h-2.13v-5.05c0-.87-.48-1.45-1.39-1.45-.76,0-1.37.33-1.75.89v5.61h-2.13v-8.35h2.13v.93c.59-.67,1.58-1.08,2.62-1.08,1.28,0,2.13.58,2.43,1.34.59-.78,1.52-1.34,2.82-1.34,1.52,0,2.67.76,2.67,3.04v5.46Z"/>
          <path class="cls-1" d="M112.81,61.66h2.13v.8c.52-.56,1.5-1,2.58-1,2.3,0,3.79,1.78,3.79,4.25s-1.75,4.51-4.42,4.51c-.74,0-1.47-.13-1.95-.41v3.92h-2.13v-12.07ZM114.94,64.37v3.38c.58.37,1.06.48,1.76.48,1.49,0,2.34-1.08,2.34-2.47s-.78-2.3-2.19-2.3c-.72,0-1.39.33-1.91.91Z"/>
          <path class="cls-1" d="M123.28,62.25c.72-.43,1.86-.8,2.95-.8,2.47,0,3.34,1.26,3.34,3.47v5.09h-1.86v-.97c-.45.63-1.34,1.08-2.47,1.08-1.52,0-2.62-.95-2.62-2.56,0-1.84,1.36-2.71,3.04-2.71.74,0,1.49.24,1.89.54.06-1.39-.32-2.15-1.56-2.15-.97,0-1.58.3-2.19.58l-.54-1.56ZM127.57,67.56v-.85c-.37-.28-.85-.41-1.47-.41-.71,0-1.34.33-1.34,1.04,0,.63.52.98,1.19.98.89,0,1.36-.39,1.62-.76Z"/>
          <path class="cls-1" d="M131.76,61.66h2.13v.84c.5-.54,1.39-.98,2.39-.98,2.04,0,3.43.98,3.43,3.6v4.9h-2.13v-4.53c0-1.34-.69-1.97-1.87-1.97-.72,0-1.32.3-1.82.8v5.7h-2.13v-8.35Z"/>
          <path class="cls-1" d="M143.33,57.41c.61,0,1.23.48,1.23,1.24,0,.85-.61,1.34-1.23,1.34-.72,0-1.34-.48-1.34-1.34,0-.76.61-1.24,1.34-1.24ZM142.21,61.66h2.13v8.35h-2.13v-8.35Z"/>
          <path class="cls-1" d="M151.07,61.46c2.77,0,4.55,1.87,4.55,4.38s-1.78,4.38-4.55,4.38-4.55-1.87-4.55-4.38,1.78-4.38,4.55-4.38ZM151.07,68.23c1.32,0,2.28-.95,2.28-2.39s-.98-2.38-2.28-2.38-2.26.93-2.26,2.38.97,2.39,2.26,2.39Z"/>
          <path class="cls-1" d="M157.47,61.66h2.13v.84c.5-.54,1.39-.98,2.39-.98,2.04,0,3.43.98,3.43,3.6v4.9h-2.13v-4.53c0-1.34-.69-1.97-1.87-1.97-.72,0-1.32.3-1.82.8v5.7h-2.13v-8.35Z"/>
          <path class="cls-1" d="M182.05,68.75c-.82.87-2.47,1.47-4.16,1.47-3.97,0-6.7-2.65-6.7-6.7,0-3.73,2.36-6.7,6.65-6.7,1.69,0,3.1.54,3.95,1.32l-1.02,1.69c-.78-.52-1.63-.87-2.93-.87-2.41,0-4.23,1.75-4.23,4.57s1.84,4.57,4.49,4.57c1.1,0,2.19-.35,3.08-1.04l.87,1.71Z"/>
          <path class="cls-1" d="M183.81,62.25c.72-.43,1.86-.8,2.95-.8,2.47,0,3.34,1.26,3.34,3.47v5.09h-1.86v-.97c-.45.63-1.34,1.08-2.47,1.08-1.52,0-2.62-.95-2.62-2.56,0-1.84,1.35-2.71,3.04-2.71.74,0,1.49.24,1.89.54.06-1.39-.32-2.15-1.56-2.15-.97,0-1.58.3-2.19.58l-.54-1.56ZM188.1,67.56v-.85c-.37-.28-.85-.41-1.47-.41-.71,0-1.34.33-1.34,1.04,0,.63.52.98,1.19.98.89,0,1.36-.39,1.62-.76Z"/>
          <path class="cls-1" d="M192.3,61.66h2.13v.82c.39-.54.91-.97,1.91-.97.69,0,1.02.11,1.3.32l-.76,2c-.41-.24-.63-.32-1.08-.32-.74,0-1.13.41-1.37.89v5.61h-2.13v-8.35Z"/>
          <path class="cls-1" d="M206.04,69.18c-.84.71-2.02,1.04-3.19,1.04-2.69,0-4.49-1.74-4.49-4.38,0-2.43,1.67-4.38,4.42-4.38,2.15,0,3.95,1.54,3.95,3.88,0,.52-.04.84-.13,1.15h-6.03c.19,1.26,1.19,1.95,2.51,1.95,1.02,0,1.87-.37,2.36-.76l.61,1.5ZM200.49,65.06h4.1c.02-1.02-.69-1.82-1.91-1.82s-1.97.72-2.19,1.82Z"/>
        </g>
      </g>
    </g>
  </g>
</svg>