<?xml version="1.0" encoding="UTF-8"?>
<svg id="Layer_2" data-name="Layer 2" xmlns="http://www.w3.org/2000/svg" xmlns:xlink="http://www.w3.org/1999/xlink" viewBox="0 0 210 100">
  <defs>
    <style>
      .cls-1 {
        fill: url(#linear-gradient-2);
      }

      .cls-2 {
        fill: #eaeaea;
        stroke: #eaeaea;
        stroke-linecap: round;
        stroke-linejoin: round;
        stroke-width: .4px;
      }

      .cls-3 {
        opacity: 0;
      }

      .cls-4 {
        fill: url(#linear-gradient);
      }
    </style>
    <linearGradient id="linear-gradient" x1="5.02" y1="50" x2="69.83" y2="50" gradientUnits="userSpaceOnUse">
      <stop offset="0" stop-color="#afafaf"/>
      <stop offset="1" stop-color="#eaeaea"/>
    </linearGradient>
    <linearGradient id="linear-gradient-2" x1="81.23" y1="42.2" x2="204.98" y2="42.2" xlink:href="#linear-gradient"/>
  </defs>
  <g id="Layer_1-2" data-name="Layer 1">
    <rect class="cls-3" width="210" height="100"/>
    <g>
      <path class="cls-4" d="M5.71,82.07c-1.57-2.83-.18-6.53,1.38-9.05,5.24-8.46,15.15-11.75,24.3-13.96,1.72-.42,3.44-.81,5.17-1.23l-4.92-10.88c-1.77-3.92-7.17-4.43-9.59-.87-.02.04-.04.07-.07.11-.75,1.14-2.19,1.61-3.44,1.06h-.03c2.22-4.87,4.43-9.74,6.65-14.6.55-1.2,1.09-2.4,1.64-3.59,1.38-3.03,2.77-6.07,4.15-9.1,1.23-2.7,5.08-2.7,6.3,0l5.72,12.65,4.06,8.99,4.87,10.77c3.01-1.72,5.76-3.91,7.87-6.68.74-.98,1.55-1.67-.01-1.92-.96-.15-1.94-.05-2.9.02-1.82.14-3.97.44-5.48-.85-.84-.72-1.27-1.83-1.35-2.93-.08-1.1.15-2.2.45-3.27.4-1.43.94-2.85,1.92-3.97,2.83-3.26,6.88-1.1,9.17,1.61.14.17.28.34.42.52,2.9,3.77,4.22,8.92,2.73,13.44-1.46,4.44-5.33,7.68-9.44,9.92-.19.1-.38.2-.57.3l6.96,15.39c1.82,3.45,2.8,4.82,3.51,5.69,1.12,1.49,2.99,2.24,4.67,2.42h-29.88c1.68-.18,3.36-.93,4.85-2.42.39-.49.68-1.03.69-2.05l-6.19-13.69c-.59.15-1.18.29-1.78.44-6.09,1.48-12.26,2.87-17.95,5.51-5.69,2.64-10.95,6.66-13.86,12.22h0ZM59.28,38.79c-1.04-1.31-4.52-4.32-5.95-2-.23.38-.21.9.05,1.26.43.59,1.18.77,2.03.79,1.34.03,2.92-.32,3.88-.05ZM48.05,26.73c2.39.63,4.74,1.37,7.05,2.21.29.11.47-.05.56-.46.83-3.22,1.11-5.27.84-6.12-.07-.22-1.25-.69-3.55-1.4-2.3-.71-3.58-1.03-3.83-.96-.17.06-.29.26-.35.61l-.86,5.67c-.02.26.03.41.14.45h0Z"/>
      <g>
        <path class="cls-1" d="M84.97,36.74c4.7,0,5.49-.14,5.49-.14v3h-.14s0-1.5-.82-2.06c-.76-.54-2.8-.65-4.52-.65h-.31c-.11,0-.42,0-.59.14-.14.17-.14.62-.14,5.32v.14h.17c1.67,0,3.85.06,4.36-.14.62-.23.51-1.67.51-1.78h.14v4.02h-.14c0-.14.11-1.53-.51-1.78-.51-.17-2.69-.14-4.36-.14h-.14c0,4.7.17,4.92.42,5.23.17.23.45.34.73.37h-3.87c.25-.03.51-.14.73-.37.23-.31.42-.54.42-5.23v-.31c0-4.7-.2-4.92-.42-5.23-.2-.2-.42-.34-.65-.37h3.65ZM99.93,48.25h-1.53c-.31,0-1.02-.14-1.02-.85v-1.13c-.37,1.24-1.27,1.98-2.77,1.98-1.75,0-3.34-.68-3.34-2.01,0-1.58,1.73-2.6,6.11-3.17v-.31c0-2.15-.31-2.94-1.75-2.94s-3.11,1.61-3.62,3.37v-2.46c.99-.79,2.4-1.05,3.82-1.05,1.78,0,2.97.73,2.97,3.11v1.19c0,3.14.2,3.59.42,3.9.17.23.45.34.71.37h0ZM97.39,43.25c-3.28.42-4.52,1.58-4.52,2.94,0,1.08.62,1.92,1.92,1.92,1.47,0,2.55-1.22,2.6-3.05v-1.81h0ZM103.05,41.13v-1.56c-.25.14-1.67.45-2.49.45.23.03.45.14.65.37.2.28.4.88.45,3.82-.06,3.2-.25,3.42-.45,3.68-.23.23-.48.34-.71.37h3.68c-.25-.03-.54-.14-.71-.37-.25-.31-.42-.54-.42-5.23v-.45c.06-1.92,1.19-2.35,1.95-2.35.85,0,1.5,1.39,1.87,2.71v-2.74c-.34-.11-.99-.25-1.53-.25-.9,0-1.89.45-2.29,1.56h0ZM117.58,47.89c-.25-.31-.45-.76-.45-4.07,0-2.91-1.24-4.13-3.22-4.13-1.67,0-3,.96-3.42,2.97v-6.5c-.23.28-1.7.59-2.52.59.23.03.45.14.65.37.23.31.48.54.48,5.23v.31c0,4.7-.25,4.92-.48,5.23-.23.23-.48.34-.71.37h3.73c-.28-.03-.51-.14-.71-.37-.23-.28-.42-.51-.45-4.04.06-2.57,1.58-4.02,3.22-4.02s2.04,1.33,2.04,3.99c0,3.34-.2,3.76-.45,4.07-.2.23-.45.34-.71.37h3.71c-.28-.03-.54-.14-.71-.37h0ZM127.96,43.98h-7.49c0,2.46.79,4.13,3.03,4.13s3.73-1.39,4.16-2.49l.2.08c-.42,1.13-2.04,2.55-4.36,2.55-2.63,0-4.61-1.84-4.61-4.27s2.09-4.3,4.55-4.3,4.52,1.84,4.52,4.3h0ZM126.38,43.81c-.06-2.38-.96-3.99-2.94-3.99s-2.94,1.61-2.97,3.99h5.91ZM138,43.98h-7.49c0,2.46.79,4.13,3.03,4.13s3.73-1.39,4.16-2.49l.2.08c-.42,1.13-2.04,2.55-4.36,2.55-2.63,0-4.61-1.84-4.61-4.27s2.09-4.3,4.55-4.3,4.52,1.84,4.52,4.3h0ZM136.42,43.81c-.06-2.38-.96-3.99-2.94-3.99s-2.94,1.61-2.97,3.99h5.91ZM148.44,47.89c-.25-.31-.45-.76-.45-4.07,0-2.91-1.22-4.13-3.2-4.13-1.64,0-3.03.96-3.48,2.86v-2.97c-.25.14-1.67.45-2.49.45.23.03.48.14.65.37.23.28.42.88.48,3.82-.06,3.2-.25,3.42-.48,3.68-.2.23-.48.34-.71.37h3.68c-.25-.03-.51-.14-.71-.37-.2-.28-.4-.48-.42-3.96.06-2.63,1.64-4.1,3.25-4.1s2.04,1.33,2.04,3.99c0,3.34-.17,3.76-.45,4.07-.2.23-.45.34-.71.37h3.71c-.28-.03-.54-.14-.71-.37h0ZM174.4,41.66l-4.95,6.45h4.21c.85,0,1.47-1.33,1.87-2.66v2.8h-11.48c.25-.03.51-.14.73-.37.23-.28.23-.68-1.5-4.67-1.02-.08-2.06,0-3,.28-1.41.45-2.43,1.27-3.11,2.38-.59,1.53-.54,1.81-.37,2.01.17.23.73.34.99.37h-3.08c.28-.03.76-.08,1.05-.37.37-.37.73-1.05,2.57-5.35,0,0,1.58-3.68,2.46-5.8h1.44c.28.76.71,1.89,1.33,3.28l1.05,2.52c1.84,4.3,2.32,5.03,2.57,5.35.14.19.37.3.58.34l5.41-6.99.93-1.24h-3.62c-.85,0-1.47,1.3-1.87,2.63v-2.8h7.18c-.37.48-.82,1.1-1.41,1.84h0ZM163.2,43.05l-.06-.17-1.08-2.52-1.3-2.94c-.88,2.01-2.35,5.46-2.35,5.46l-1.02,2.4c.68-.9,1.61-1.56,2.83-1.92.93-.28,1.98-.4,2.97-.31h0ZM186.09,43.98h-7.49c0,2.46.79,4.13,3.03,4.13s3.73-1.39,4.16-2.49l.2.08c-.42,1.13-2.04,2.55-4.36,2.55-2.63,0-4.61-1.84-4.61-4.27s2.09-4.3,4.55-4.3,4.52,1.84,4.52,4.3h0ZM184.5,43.81c-.06-2.38-.96-3.99-2.94-3.99s-2.94,1.61-2.97,3.99h5.91ZM196.13,43.98h-7.49c0,2.46.79,4.13,3.03,4.13s3.73-1.39,4.16-2.49l.2.08c-.42,1.13-2.04,2.55-4.36,2.55-2.63,0-4.61-1.84-4.61-4.27s2.09-4.3,4.55-4.3,4.52,1.84,4.52,4.3h0ZM194.54,43.81c-.06-2.38-.96-3.99-2.94-3.99s-2.94,1.61-2.97,3.99h5.91ZM202.83,48.11h-4.21l4.95-6.45c.59-.73,1.05-1.36,1.41-1.84h-7.18v2.8c.4-1.33,1.02-2.63,1.87-2.63h3.62l-.93,1.24-5.43,7.01h7.78v-2.8c-.4,1.33-1.02,2.66-1.87,2.66h0Z"/>
        <g>
          <path class="cls-2" d="M99.55,57.08h2c1.67,0,2.78,1.12,2.78,2.64s-1.12,2.64-2.78,2.64h-2v-5.28h0ZM101.53,62.22c1.61,0,2.65-1.06,2.65-2.5s-1.03-2.5-2.65-2.5h-1.83v4.99h1.83Z"/>
          <path class="cls-2" d="M108.8,60.41h-3.47c0,1.08.77,1.83,1.8,1.83.52,0,1.02-.2,1.33-.6l.11.11c-.35.42-.88.64-1.43.64-1.12,0-1.95-.82-1.95-1.98s.77-1.97,1.8-1.97,1.81.8,1.81,1.93v.04h0ZM105.33,60.27h3.33c-.05-.97-.75-1.68-1.67-1.68s-1.61.72-1.66,1.68Z"/>
          <path class="cls-2" d="M109.45,61.85l.09-.12c.28.27.81.51,1.43.51.93,0,1.3-.35,1.3-.87,0-1.31-2.67-.42-2.67-1.93,0-.52.42-1,1.38-1,.48,0,1,.16,1.29.4l-.09.12c-.31-.25-.76-.38-1.2-.38-.86,0-1.22.38-1.22.86,0,1.34,2.66.46,2.66,1.93,0,.59-.47,1.01-1.45,1.01-.63,0-1.23-.23-1.52-.54h0Z"/>
          <path class="cls-2" d="M113.44,57.19c0-.11.09-.2.2-.2s.2.09.2.2-.09.2-.2.2-.2-.09-.2-.2ZM113.56,58.46h.15v3.9h-.15v-3.9Z"/>
          <path class="cls-2" d="M118.82,58.46v3.55c0,1.26-.6,1.83-1.8,1.83-.71,0-1.36-.24-1.73-.65l.11-.11c.4.39.97.61,1.62.61,1.12,0,1.65-.51,1.65-1.67v-.98c-.26.71-.93,1.18-1.77,1.18-1.09,0-1.92-.79-1.92-1.9s.82-1.89,1.92-1.89c.84,0,1.5.46,1.77,1.16v-1.14h.15ZM118.67,60.33c0-1.03-.75-1.75-1.77-1.75s-1.77.72-1.77,1.75.75,1.76,1.77,1.76,1.77-.72,1.77-1.76Z"/>
          <path class="cls-2" d="M123.9,60.06v2.3h-.15v-2.3c0-.97-.52-1.48-1.4-1.48-1.03,0-1.64.67-1.64,1.66v2.12h-.15v-3.9h.15v1.04c.23-.65.81-1.06,1.64-1.06.96,0,1.56.57,1.56,1.62h0Z"/>
          <path class="cls-2" d="M128.75,60.41h-3.47c0,1.08.77,1.83,1.8,1.83.52,0,1.02-.2,1.33-.6l.11.11c-.35.42-.88.64-1.43.64-1.12,0-1.95-.82-1.95-1.98s.77-1.97,1.8-1.97,1.81.8,1.81,1.93v.04h0ZM125.28,60.27h3.33c-.05-.97-.75-1.68-1.67-1.68s-1.61.72-1.66,1.68Z"/>
          <path class="cls-2" d="M133.35,56.77v5.6h-.15v-1.19c-.26.74-.93,1.21-1.74,1.21-1.07,0-1.89-.82-1.89-1.98s.82-1.97,1.89-1.97c.81,0,1.48.47,1.74,1.21v-2.88h.15ZM133.2,60.41c0-1.08-.75-1.82-1.74-1.82s-1.74.75-1.74,1.82.75,1.83,1.74,1.83,1.74-.75,1.74-1.83Z"/>
          <path class="cls-2" d="M138.73,62.11c-.18.19-.48.28-.76.28-.62,0-.94-.39-.94-.96v-2.82h-.75v-.14h.75v-.85h.15v.85h1.32v.14h-1.32v2.78c0,.55.27.85.8.85.25,0,.48-.08.65-.24l.11.11h0Z"/>
          <path class="cls-2" d="M139.28,60.41c0-1.15.81-1.97,1.89-1.97s1.89.81,1.89,1.97-.81,1.98-1.89,1.98-1.89-.82-1.89-1.98ZM142.92,60.41c0-1.08-.75-1.82-1.74-1.82s-1.74.75-1.74,1.82.75,1.83,1.74,1.83,1.74-.75,1.74-1.83Z"/>
          <path class="cls-2" d="M149.88,62.22v.14h-3.51v-5.28h3.4v.14h-3.25v2.38h2.91v.14h-2.91v2.47h3.36Z"/>
          <path class="cls-2" d="M151.27,56.77h.15v5.6h-.15v-5.6Z"/>
          <path class="cls-2" d="M156.31,60.41h-3.47c0,1.08.77,1.83,1.8,1.83.52,0,1.02-.2,1.33-.6l.11.11c-.35.42-.88.64-1.43.64-1.12,0-1.95-.82-1.95-1.98s.77-1.97,1.8-1.97,1.81.8,1.81,1.93v.04h0ZM152.84,60.27h3.33c-.05-.97-.75-1.68-1.67-1.68s-1.61.72-1.66,1.68Z"/>
          <path class="cls-2" d="M160.43,58.46l-1.8,3.9h-.15l-1.8-3.9h.17l1.7,3.73,1.7-3.73h.17,0Z"/>
          <path class="cls-2" d="M163.86,59.81v2.56h-.15v-.83c-.25.52-.75.85-1.49.85-.88,0-1.38-.44-1.38-1.09,0-.56.35-1.05,1.39-1.05h1.48v-.43c0-.81-.43-1.23-1.24-1.23-.58,0-1.08.22-1.42.54l-.11-.11c.37-.35.93-.58,1.52-.58.91,0,1.39.47,1.39,1.37h0ZM163.71,61.25v-.86h-1.49c-.88,0-1.23.38-1.23.9,0,.59.45.96,1.23.96s1.23-.36,1.49-1h0Z"/>
          <path class="cls-2" d="M167.32,62.11c-.18.19-.48.28-.76.28-.62,0-.94-.39-.94-.96v-2.82h-.75v-.14h.75v-.85h.15v.85h1.32v.14h-1.32v2.78c0,.55.27.85.8.85.25,0,.48-.08.65-.24l.11.11h0Z"/>
          <path class="cls-2" d="M171.48,60.41h-3.47c0,1.08.77,1.83,1.8,1.83.52,0,1.02-.2,1.33-.6l.11.11c-.35.42-.88.64-1.43.64-1.12,0-1.95-.82-1.95-1.98s.77-1.97,1.8-1.97,1.81.8,1.81,1.93v.04h0ZM168.01,60.27h3.33c-.05-.97-.75-1.68-1.67-1.68s-1.61.72-1.66,1.68Z"/>
          <path class="cls-2" d="M176.15,60.57v1.8h-.15v-1.8l-2.15-3.48h.17l2.05,3.33,2.05-3.33h.17l-2.15,3.48h0Z"/>
          <path class="cls-2" d="M178.33,60.41c0-1.15.81-1.97,1.89-1.97s1.89.81,1.89,1.97-.81,1.98-1.89,1.98-1.89-.82-1.89-1.98ZM181.97,60.41c0-1.08-.75-1.82-1.74-1.82s-1.74.75-1.74,1.82.75,1.83,1.74,1.83,1.74-.75,1.74-1.83Z"/>
          <path class="cls-2" d="M186.66,58.46v3.9h-.15v-1.03c-.23.65-.78,1.06-1.57,1.06-.99,0-1.6-.57-1.6-1.62v-2.3h.15v2.3c0,.97.53,1.48,1.44,1.48.98,0,1.58-.67,1.58-1.66v-2.12h.15Z"/>
        </g>
      </g>
    </g>
  </g>
</svg>