<?xml version="1.0" encoding="UTF-8"?>
<svg id="Layer_2" data-name="Layer 2" xmlns="http://www.w3.org/2000/svg" viewBox="0 0 210 100">
  <defs>
    <style>
      .cls-1 {
        opacity: 0;
      }

      .cls-2 {
        fill: #ec1c24;
      }
    </style>
  </defs>
  <g id="Layer_1-2" data-name="Layer 1">
    <rect class="cls-1" width="210" height="100"/>
    <g>
      <path class="cls-2" d="M191.65,47.25v10.1h-3.01v-10.1h-5.95v-2.21h14.91v2.21h-5.97.01ZM163.58,57.35v-12.32h2.07l10.46,8.18v-8.18h2.71v12.32h-2.08l-10.42-8.32v8.32h-2.74,0ZM142.47,47.95c0-1.13.23-1.89.65-2.3.44-.41,1.28-.61,2.54-.61h9.54c1.27,0,2.12.2,2.56.61s.65,1.18.65,2.3v6.49c0,1.13-.23,1.89-.66,2.3s-1.28.61-2.54.61h-9.54c-1.26,0-2.11-.2-2.54-.61-.44-.41-.65-1.18-.65-2.3v-6.49h0ZM145.46,54.99h9.93v-7.69h-9.93v7.69ZM120.42,57.35v-12.32h2.42l6.03,7.31,6-7.31h2.42v12.32h-2.79v-8.48l-5.5,7.01h-.58l-5.56-6.81v8.28h-2.44ZM88.39,57.35v-12.32h2.07l10.46,8.18v-8.18h2.71v12.32h-2.08l-10.42-8.32v8.32h-2.74,0ZM67.28,47.95c0-1.13.23-1.89.65-2.3.44-.41,1.28-.61,2.54-.61h9.54c1.27,0,2.12.2,2.56.61s.65,1.18.65,2.3v6.49c0,1.13-.23,1.89-.66,2.3s-1.28.61-2.54.61h-9.54c-1.26,0-2.11-.2-2.54-.61s-.65-1.18-.65-2.3v-6.49h0ZM70.29,54.99h9.93v-7.69h-9.93v7.69ZM59.1,57.35v-12.32h2.99v12.32h-2.99ZM51.18,47.25h-8.48v2.6h8.03c1.26,0,2.11.2,2.54.61.44.4.65,1.17.65,2.29v1.7c0,1.13-.23,1.89-.66,2.3-.45.41-1.28.61-2.53.61h-7.99c-1.27,0-2.13-.2-2.58-.61s-.68-1.18-.68-2.3v-.34l2.68-.5v1.46h9.06v-2.82h-7.99c-1.26,0-2.12-.2-2.57-.62-.45-.41-.68-1.18-.68-2.3v-1.38c0-1.11.23-1.87.68-2.28s1.3-.62,2.57-.62h7.31c1.23,0,2.09.2,2.54.6.46.4.69,1.09.69,2.09v.29l-2.6.54v-1.31h0ZM22.72,45.03v10.03h8.57v-10.03h3.03v9.4c0,1.11-.23,1.88-.68,2.29s-1.31.62-2.57.62h-8.13c-1.26,0-2.11-.2-2.54-.61s-.66-1.18-.66-2.3v-9.4h3.01-.03ZM3.7,57.35v-12.32h13.08v2.21H6.73v3.2h5.42v2.3h-5.42v4.6h-3.03Z"/>
      <path class="cls-2" d="M203.27,45.01l-.03-2.32h.44l1.11,1.38,1.05-1.42h.44l.03,2.3h-.5v-1.43s-.01-.07-.01-.11v-.15c-.03.07-.05.11-.08.15s-.04.07-.05.09l-.86,1.17h-.11l-.89-1.15s-.07-.08-.08-.12c-.03-.04-.04-.08-.05-.11v1.68h-.42l.03.03ZM201.53,43.13l.03,1.91h-.54l-.03-1.89h-1.06v-.4l2.66-.03v.41h-1.06Z"/>
    </g>
  </g>
</svg>