<?xml version="1.0" encoding="UTF-8"?>
<svg id="Layer_2" data-name="Layer 2" xmlns="http://www.w3.org/2000/svg" viewBox="0 0 210 100">
  <defs>
    <style>
      .cls-1 {
        fill: #014730;
      }

      .cls-2 {
        opacity: 0;
      }

      .cls-3 {
        fill: #009f68;
      }
    </style>
  </defs>
  <g id="Layer_1-2" data-name="Layer 1">
    <rect class="cls-2" width="210" height="100"/>
    <g>
      <g>
        <path class="cls-1" d="M85.92,49.52c0,3.24-1.59,5.09-4.89,5.09-1.53,0-2.92-.64-3.44-1.24l1.16-2.72c.46.35,1.16.64,1.79.64,1.3,0,1.82-.93,1.82-2.37v-14.86h3.56v15.47Z"/>
        <path class="cls-1" d="M97.77,34h3.12l8.56,20.29h-3.79l-2.11-5.17h-8.64l-2.11,5.17h-3.58l8.56-20.29ZM96.27,45.79h5.93l-2.95-7.2-2.98,7.2Z"/>
        <path class="cls-1" d="M125.58,45.65h-9.25v8.64h-3.56v-20.24h3.56v8.27h9.25v-8.27h3.53v20.24h-3.53v-8.64Z"/>
        <path class="cls-1" d="M149.46,54.29l-11.13-14.02v14.02h-3.32v-20.24h2.83l11.13,14.08v-14.08h3.32v20.24h-2.83Z"/>
        <path class="cls-1" d="M164.15,34h3.12l8.56,20.29h-3.79l-2.11-5.17h-8.64l-2.11,5.17h-3.58l8.56-20.29ZM162.65,45.79h5.93l-2.95-7.2-2.98,7.2Z"/>
        <path class="cls-1" d="M185.43,54.35h-2.69l-8.33-20.29h3.79l6.01,15,5.75-15h3.56l-8.09,20.29Z"/>
        <path class="cls-1" d="M196.99,34.05h3.56v20.24h-3.56v-20.24Z"/>
      </g>
      <g>
        <path class="cls-3" d="M157.51,56.63h7.98v1.59h-3.14v8.09h-1.7v-8.09h-3.14v-1.59Z"/>
        <path class="cls-3" d="M164.8,60.09h1.59v.61c.29-.4.68-.72,1.42-.72.51,0,.76.08.97.24l-.57,1.49c-.3-.18-.47-.24-.8-.24-.55,0-.84.3-1.02.66v4.18h-1.59v-6.22Z"/>
        <path class="cls-3" d="M169.77,60.53c.54-.32,1.38-.59,2.2-.59,1.84,0,2.49.94,2.49,2.59v3.79h-1.38v-.72c-.33.47-1,.8-1.84.8-1.13,0-1.95-.71-1.95-1.91,0-1.37,1.01-2.02,2.27-2.02.55,0,1.11.18,1.41.4.04-1.04-.23-1.6-1.16-1.6-.72,0-1.18.22-1.63.43l-.4-1.16ZM172.97,64.49v-.64c-.28-.21-.64-.3-1.09-.3-.53,0-1,.25-1,.77,0,.47.39.73.89.73.66,0,1.01-.29,1.2-.57Z"/>
        <path class="cls-3" d="M180.42,65.66c-.42.44-.98.76-1.78.76-1.78,0-2.93-1.26-2.93-3.15s1.41-3.33,3.42-3.33c.55,0,.95.1,1.3.3v-3.61h1.59v9.68h-1.59v-.65ZM180.42,64.31v-2.5c-.4-.25-.8-.37-1.23-.37-.94,0-1.78.64-1.78,1.78s.72,1.73,1.56,1.73c.58,0,1.09-.28,1.45-.64Z"/>
        <path class="cls-3" d="M189.12,65.69c-.62.53-1.51.77-2.38.77-2,0-3.35-1.3-3.35-3.26,0-1.81,1.24-3.26,3.29-3.26,1.6,0,2.95,1.15,2.95,2.89,0,.39-.03.62-.1.86h-4.49c.14.94.89,1.45,1.87,1.45.76,0,1.4-.28,1.76-.57l.46,1.12ZM184.98,62.62h3.06c.01-.76-.51-1.36-1.42-1.36s-1.47.54-1.63,1.36Z"/>
        <path class="cls-3" d="M190.92,60.09h1.59v.61c.29-.4.68-.72,1.42-.72.51,0,.76.08.97.24l-.57,1.49c-.3-.18-.47-.24-.8-.24-.55,0-.84.3-1.02.66v4.18h-1.59v-6.22Z"/>
        <path class="cls-3" d="M195.6,61.83c0-1.22,1-1.89,2.28-1.89,1.2,0,1.98.43,2.36.79l-.59,1.13c-.37-.29-1.02-.59-1.69-.59-.48,0-.77.26-.77.54,0,1.04,3.36.47,3.36,2.67,0,1.23-1,1.99-2.52,1.99-1.15,0-2.31-.62-2.6-1.06l.77-1.04c.37.4,1.31.77,1.94.77.46,0,.82-.19.82-.58,0-1.01-3.36-.46-3.36-2.72Z"/>
      </g>
      <g>
        <path class="cls-1" d="M33.84,42.83c-4.63,5.68-8.51,11.45-11.28,16.8-.04-.05-.07-.1-.11-.15-1.08-1.47-2.29-2.86-3.59-4.16.06-.82.11-1.66.15-2.51.45-10.07-.99-18.54-2.56-24.66,2.97.06,7.63-.21,12.95-2.09,5.1-1.8,8.79-4.37,11.05-6.22,1.94,1.75,4.88,3.98,8.88,5.71.36.16.73.31,1.08.44-7.68,5.92-12.7,12.08-16.57,16.83Z"/>
        <path class="cls-1" d="M61.25,52.82c.38,6.9,1.77,12.71,3.19,17.11-2.02,1.45-4.04,2.9-6.06,4.34-9.51,6.82-21.95,7.58-32.11,2.3,3.38-7.66,7.39-16.1,12.13-23.99,6.84-11.38,14.39-19.76,19.01-24.71,2.89.43,5.34.4,7.03.3-1.79,5.55-3.78,14.14-3.19,24.66Z"/>
      </g>
      <path class="cls-3" d="M59.18,22.72c-.34.36-.84.89-1.44,1.53-4.4,4.72-13.22,13.82-21.25,27.18-5.49,9.14-10,18.92-14.21,28.71-.49-.81-1-1.63-1.54-2.44-3.53-5.4-7.42-9.96-11.3-13.8,1.93-2.95,3.79-5.96,5.89-8.79,1.66,1.42,3.54,3.29,5.32,5.7.85,1.15,1.57,2.28,2.18,3.34.23-.5.58-1.25,1.02-2.15,1.16-2.36,4.53-8.95,11.71-17.76,4.96-6.08,11.3-13.73,21.89-20.46.71-.45,1.31-.82,1.73-1.06Z"/>
    </g>
  </g>
</svg>