<?xml version="1.0" encoding="UTF-8"?>
<svg id="Layer_2" data-name="Layer 2" xmlns="http://www.w3.org/2000/svg" viewBox="0 0 210 100">
  <defs>
    <style>
      .cls-1 {
        fill: #004050;
      }

      .cls-2 {
        fill: #00cc61;
      }

      .cls-3 {
        opacity: 0;
      }
    </style>
  </defs>
  <g id="Layer_1-2" data-name="Layer 1">
    <rect class="cls-3" width="210" height="100"/>
    <g id="uuid-82a77079-98b4-4bd8-8c06-078c1d0f83ee" data-name="Layer 1-2">
      <g>
        <g>
          <path class="cls-2" d="M18.63,73.95v18.19c0,2.24-1.09,3.83-3.39,3.83h-6.67c-1.86,0-3.32-1.09-3.32-3.59v-4.81h3.56v5.08h6.26v-18.7h3.56Z"/>
          <path class="cls-2" d="M33.74,95.97h-3.32l-.13-1.22c-1.15.54-3.29,1.35-5.52,1.35-2.4,0-3.39-1.09-3.39-3.29v-12.91h3.45v12.87h5.42v-12.87h3.49v16.06h0Z"/>
          <path class="cls-2" d="M36.25,92.82v-1.52h3.35v1.7h5.25v-2.68l-6.78-2.27c-1.35-.51-1.83-1.09-1.83-2.68v-2.37c0-2,.98-3.08,3.25-3.08h5.49c2.37,0,3.22.95,3.22,2.84v1.73h-3.35v-1.56h-5.25v2.44l6.67,2.24c1.63.57,1.93,1.05,1.93,2.84v2.51c0,1.76-1.02,3.01-3.29,3.01h-5.25c-2.44,0-3.42-1.09-3.42-3.15Z"/>
          <path class="cls-2" d="M50.75,92.48v-16.23h3.42v3.66h4.17l-.3,3.18h-3.86v9.72h3.96v3.15h-4.1c-2.54,0-3.29-1.25-3.29-3.49Z"/>
          <path class="cls-2" d="M60.47,74.66h3.49v3.18h-3.49v-3.18ZM60.47,79.91h3.49v16.06h-3.49v-16.06Z"/>
          <path class="cls-2" d="M66.56,92.58v-9.49c0-2.2,1.32-3.18,3.35-3.18h5.69c2.47,0,3.35,1.42,3.35,3.73v1.73h-3.42v-2.27h-5.59v9.72h5.59v-2.88h3.42v2.47c0,2.07-1.09,3.56-3.59,3.56h-5.39c-1.93,0-3.42-1.05-3.42-3.39Z"/>
          <path class="cls-2" d="M81.24,92.38v-8.91c0-2.4,1.18-3.56,3.49-3.56h5.65c2.31,0,3.39,1.15,3.39,3.45v5.89h-9.11v3.69h5.73v-1.52h3.39v1.09c0,2.34-.98,3.45-3.49,3.45h-5.45c-2.37,0-3.59-1.15-3.59-3.59h0ZM84.66,82.96v3.93h5.73v-3.93h-5.73Z"/>
          <path class="cls-1" d="M103.35,73.95h11.01c2.1,0,2.81,1.22,2.81,3.86v8.91c0,2.17-.95,3.73-3.18,3.73h-7.05v5.52h-3.59v-22.02ZM113.62,87.26v-9.99h-6.67v9.99h6.67Z"/>
          <path class="cls-1" d="M119.35,92.72v-9.52c0-2.13,1.12-3.42,3.76-3.42,2.31,0,4.71.78,5.52,1.32l.13-1.18h3.32v16.06h-3.32l-.13-1.18c-.24.2-2.74,1.32-5.52,1.32-2.61,0-3.76-1.32-3.76-3.39h0ZM128.63,92.82v-9.72h-5.83v9.72h5.83Z"/>
          <path class="cls-1" d="M134.83,79.91h3.32l.13,1.42c.71-.51,2.71-1.56,5.08-1.56l-.3,3.42h-4.78v12.77h-3.45v-16.06h0Z"/>
          <path class="cls-1" d="M145.09,92.48v-16.23h3.42v3.66h4.17l-.3,3.18h-3.86v9.72h3.96v3.15h-4.1c-2.54,0-3.29-1.25-3.29-3.49h0Z"/>
          <path class="cls-1" d="M154.78,79.91h3.29l.17,1.29c1.18-.57,3.29-1.42,5.52-1.42,2.44,0,3.39,1.12,3.39,3.42v12.77h-3.49v-12.87h-5.42v12.87h-3.45v-16.06h0Z"/>
          <path class="cls-1" d="M169.65,92.38v-8.91c0-2.4,1.18-3.56,3.49-3.56h5.65c2.31,0,3.39,1.15,3.39,3.45v5.89h-9.11v3.69h5.73v-1.52h3.39v1.09c0,2.34-.98,3.45-3.49,3.45h-5.45c-2.37,0-3.59-1.15-3.59-3.59h0ZM173.07,82.96v3.93h5.73v-3.93h-5.73Z"/>
          <path class="cls-1" d="M184.73,79.91h3.32l.13,1.42c.71-.51,2.71-1.56,5.08-1.56l-.3,3.42h-4.78v12.77h-3.45v-16.06h0Z"/>
          <path class="cls-1" d="M194.69,92.82v-1.52h3.35v1.7h5.25v-2.68l-6.78-2.27c-1.35-.51-1.83-1.09-1.83-2.68v-2.37c0-2,.98-3.08,3.25-3.08h5.49c2.37,0,3.22.95,3.22,2.84v1.73h-3.35v-1.56h-5.25v2.44l6.67,2.24c1.63.57,1.93,1.05,1.93,2.84v2.51c0,1.76-1.02,3.01-3.29,3.01h-5.25c-2.44,0-3.42-1.09-3.42-3.15h0Z"/>
        </g>
        <g>
          <g>
            <g>
              <path class="cls-1" d="M102.14,45.31l-.7-.02v-.66h0c.16.09.28.24.39.37,0,0,.3.31.3.31Z"/>
              <path class="cls-1" d="M102.73,48.74h-1.82c.05-.25.16-.49.25-.73l.62-1.62.95,2.34Z"/>
              <path class="cls-1" d="M111.03,51.37c-.23.04-.49.02-.73,0h-.76c.02-.09.06-.19.09-.27.07-.15.16-.29.22-.44l.35-.84c.03-.07.05-.14.09-.2,0,.03,0,.04.02.07l.71,1.68h0Z"/>
              <path class="cls-1" d="M99.98,8.83h5.44v34.62c-.08.04-.14.1-.18.2-.1.28-.1.61-.21.89-.03.09-.07.2-.11.28-.07.13-.16.25-.21.4-.04.15-.05.31-.05.46l-1.09-.17c-.07,0-.16-.02-.23-.05-.1-.04-.18-.16-.26-.23l-1.28-1.07c-.11-.1-.24-.23-.34-.35-.02-.03-.04-.06-.05-.08-.02-.09,0-.21,0-.31v-.51c0-.07.09-.15.11-.22.03-.14-.13-.93-.23-1.05h-.02c-.13.19-.18.51-.21.74,0,.1-.04.21,0,.33,0,.06.03.08.07.13,0,0,.05.05.05.06,0,.03,0,.1,0,.13v.55c0,.08-.05.15-.07.23-.06.16-.07.36,0,.52v.02c.04.06.1.12.12.18.02.07,0,.2,0,.26v.62c0,.12-.03.29.02.41.03.07.09.14.16.19v-.23s-.03-.17,0-.2c0-.02.02-.03.03-.04.05,0,.07,0,.11,0,.04.02.07.06.07.09,0,.05-.02.09-.03.14-.08.2.07.38.02.58-.02.06-.05.1-.07.16l-.2.49-.66,1.77c-.2,0-.4,0-.6,0,0,.03,0,.05,0,.07.05.08.12.17.19.23.26.26.64.46,1.01.54.57.13,1.12,0,1.61-.31.17-.11.44-.33.52-.51v-.03c-.12-.02-.23,0-.34,0-.06,0-.12,0-.17-.03-.06-.12-.09-.26-.15-.38l-.46-1.15-.26-.59c-.06-.12-.1-.23-.14-.36-.05-.21-.04-.48,0-.68.18.07.35.17.52.25l.96.5c.34.18.69.32,1.02.51.04.03.08.07.1.11.03.07.04.14.06.21l.13.49.13.46c.03.08.06.18.06.27,0,.29-.07.54-.14.82l-.1.54-.07.76-.14,1.1c-.04.3-.07.6-.14.9-.09.44-.27.85-.32,1.3-.03.28,0,.58.02.87.03.31.07.62.12.93.07.32.16.64.15.96,0,.24-.07.51-.15.74l-.29.64c-.03.07-.06.14-.07.21,0,.05-.02.1-.02.15,0,.13.06.24.13.35l.06.06h-.06c-2.9-1.25-5.8-2.5-8.69-3.75-3.42-1.48-6.83-2.95-10.25-4.43v-14.15c0-1.07.45-2.1,1.24-2.83l4.2-3.84v17c3.19,1.26,6.4,2.52,9.59,3.77V8.83h.03Z"/>
              <path class="cls-1" d="M127.41,14.74v13.64c0,.5-.04.98-.1,1.44-.38,2.55-1.87,4.27-4.77,4.27h-10.79v22.9l-3.76,1.71h-.3v-.31h0s0-.07,0-.11c0-.05,0-.1-.05-.15l-.07-.07c-.11-.08-.27-.19-.35-.31-.02-.13-.02-.27-.02-.4l-.03-.66.07-1.77v-.47l-.05-.35c0-.07-.03-.17,0-.25.02-.03.04-.04.07-.06.05-.04.07-.07.08-.14,0-.06,0-.1-.03-.16-.04-.1-.02-.26,0-.38h0c.11-.04.25-.12.32-.22.03-.05.02-.11,0-.16l-.07-.42-.05-.36c-.02-.12-.05-.24-.05-.37,0-.41.09-.8.06-1.22-.02-.23-.07-.46-.12-.68-.03-.14-.05-.28-.08-.41-.05-.16-.15-.32-.22-.47l-.15-.34s-.07-.12-.07-.15c0,0,.02-.06.03-.07.03-.06.05-.12.07-.18.03-.08.03-.19.04-.28.07.12.11.25.15.37.07.21.11.51.35.59.38.13.78.17,1.18.23.35.06.69.18,1.05.13.15-.02.29-.07.43-.12,0,.14.03.31,0,.45-.05.21-.17.43-.26.63l-.31.69-.17.37c-.05.1-.1.18-.08.28l-.05.06h-.02c-.1,0-.21.05-.32.08l-.02.03c.02.07.1.1.15.14l.33.21c.43.24.93.28,1.41.15.18-.05.32-.15.48-.25.12-.07.23-.14.34-.24-.13-.05-.28-.06-.4-.1-.07-.21-.17-.39-.25-.59l-.4-.95c-.05-.11-.11-.22-.15-.34-.06-.21,0-.42-.02-.64,0-.07-.06-.14-.07-.22.09-.07.36.02.42-.07,0-.06,0-.09-.02-.15-.06-.05-.17-.03-.23-.04-.08,0-.17,0-.25-.02-.13-.02-.27-.07-.4-.07-.1,0-.21.09-.31.14h0c-.08.05-.35-.07-.43-.1l-.4-.18c-.19-.09-.38-.21-.58-.27-.13-.04-.27-.03-.41-.06-.03-.08-.04-.17-.06-.26l-.15-.81c-.03-.16-.03-.37-.09-.52-.03-.07-.07-.15-.12-.2-.03-.03-.13-.07-.13-.1-.02-.13-.07-.24-.11-.36-.05-.12-.22-.17-.27-.3-.04-.1-.05-.23-.07-.34l-.14-.6-.07-.4c-.02-.12-.04-.25-.09-.37-.04-.08-.1-.15-.19-.19V8.83h16.86c1.33,0,2.28.32,2.96.97.69.66,1.07,1.67,1.24,3.05.07.57.1,1.2.1,1.9h0Z"/>
            </g>
            <path class="cls-1" d="M103.88,58.62c-.07-.1-.13-.21-.13-.35,0-.06,0-.1.02-.15l-18.83-8.7v1.07c3.42,1.48,6.83,2.95,10.25,4.43,2.9,1.25,5.8,2.5,8.69,3.75h.06l-.06-.06ZM99.98,8.83v.97h5.44v-.97h-5.44ZM107.69,58.38h0v.31h.3l3.76-1.7v-.49l-4.06,1.89h0ZM123.11,8.83h-16.86v.97h19.82c-.67-.65-1.63-.97-2.96-.97ZM127.31,12.85v16.97c.07-.46.1-.93.1-1.44v-13.64c0-.69-.03-1.33-.1-1.9h0Z"/>
          </g>
          <g>
            <path class="cls-2" d="M101.85,45c-.11-.13-.23-.28-.39-.36h0v.65l.7.02-.3-.31ZM101.78,46.4l-.62,1.62c-.08.23-.21.48-.25.73h1.82s-.95-2.34-.95-2.34ZM99.98,8.83v41.62c-3.19-1.26-6.4-2.52-9.59-3.77v-17l-4.2,3.84c-.79.73-1.24,1.76-1.24,2.83v14.15c3.42,1.48,6.83,2.95,10.25,4.43,2.9,1.25,5.8,2.5,8.69,3.75h.06l-.06-.06c-.07-.1-.13-.21-.13-.35,0-.06,0-.1.02-.15.02-.07.04-.14.07-.21l.29-.64c.08-.22.14-.49.15-.74.02-.33-.08-.64-.15-.96-.06-.31-.09-.62-.12-.93-.03-.28-.05-.58-.02-.87.05-.45.23-.86.32-1.3.06-.29.09-.6.14-.9l.14-1.1.07-.76.1-.54c.07-.28.15-.53.14-.82,0-.09-.04-.19-.06-.27l-.13-.46-.13-.49c-.02-.07-.03-.15-.06-.21-.02-.05-.07-.08-.1-.11-.33-.2-.68-.34-1.02-.51l-.96-.5c-.17-.08-.35-.19-.52-.25-.04.21-.05.48,0,.68.03.13.08.24.14.36l.26.59.46,1.15c.05.13.08.26.15.38.05.04.11.03.17.03.11,0,.22,0,.33,0v.03c-.07.19-.35.4-.51.51-.49.32-1.04.44-1.61.31-.36-.08-.75-.28-1.01-.54-.07-.07-.15-.15-.19-.23-.02-.03,0-.05,0-.07.2-.03.4,0,.6,0l.66-1.77.2-.49s.05-.1.07-.16c.06-.2-.1-.38-.02-.58.02-.05.05-.09.03-.14,0-.04-.05-.07-.07-.09-.04-.03-.07-.03-.11,0,0,0-.02.02-.03.04,0,.03,0,.15,0,.2v.23c-.07-.05-.13-.11-.16-.19-.05-.12-.03-.28-.03-.41v-.62c0-.07.03-.21,0-.26-.02-.06-.08-.12-.11-.18v-.02c-.07-.16-.06-.36,0-.52.03-.07.07-.14.07-.23v-.55s0-.1,0-.13c0,0-.05-.05-.05-.06-.04-.04-.06-.07-.07-.13-.02-.1,0-.21,0-.33.04-.23.07-.55.21-.75h.02c.1.11.26.91.23,1.05-.02.07-.11.15-.11.22v.51c0,.09-.02.21,0,.31,0,.03.03.07.05.08.09.13.21.25.34.35l1.28,1.07c.08.07.16.19.26.23.07.03.16.03.23.05l1.09.17c0-.15,0-.31.05-.46.04-.15.13-.27.21-.4.05-.08.08-.19.11-.28.09-.29.09-.61.21-.89.04-.09.1-.15.18-.2V8.83h-5.47Z"/>
            <path class="cls-2" d="M110.33,49.69s-.02-.04-.02-.07c-.05.06-.07.13-.09.2l-.35.84c-.07.15-.16.29-.22.44-.04.08-.07.18-.09.28h.76c.24,0,.49.02.73-.02l-.71-1.68h0ZM127.31,12.85c-.17-1.38-.56-2.39-1.24-3.05-.67-.65-1.63-.97-2.96-.97h-16.86v34.62c.08.04.15.1.19.19.06.11.07.24.09.37l.07.4.14.6c.03.1.04.23.07.34.06.13.22.18.27.3.05.13.09.23.11.36,0,.03.1.07.13.1.06.05.09.13.12.2.07.15.07.35.09.52l.15.81c.02.08.03.18.06.26.13.03.27.02.41.06.2.06.39.18.58.27l.4.18c.08.04.35.14.43.1h0c.09-.05.21-.13.31-.15.13-.02.27.05.4.07.08,0,.17,0,.25.02.07,0,.18,0,.23.04.02.05.02.09.02.15-.06.07-.33,0-.42.07,0,.08.06.14.07.22.02.21-.04.43.02.64.03.11.1.22.15.34l.4.95c.09.2.19.38.25.59.13.05.27.06.4.1-.1.1-.21.17-.34.24-.15.1-.3.21-.48.25-.48.14-.97.09-1.41-.15l-.33-.21c-.06-.04-.13-.07-.15-.14l.02-.03c.1-.04.21-.08.32-.08h.02l.05-.06c-.02-.11.05-.19.08-.28l.17-.37.31-.69c.09-.21.21-.41.26-.63.03-.13,0-.31,0-.45-.14.06-.28.1-.43.12-.35.05-.7-.07-1.05-.13-.39-.07-.79-.11-1.18-.23-.23-.07-.28-.38-.35-.59-.04-.13-.08-.26-.15-.37,0,.09,0,.2-.04.28-.02.07-.04.12-.07.18,0,0-.03.06-.03.07,0,.03.05.12.07.15l.15.34c.07.15.18.31.22.47.05.13.06.28.08.41.05.22.1.45.12.68.04.42-.06.81-.06,1.22,0,.13.03.25.05.37l.05.36.07.42s.02.12,0,.16c-.07.1-.21.2-.32.22h0c0,.12-.03.28,0,.38.02.05.04.1.03.16,0,.07-.03.1-.08.14-.03.02-.05.04-.07.06-.02.07,0,.17,0,.25l.04.35v.47l-.06,1.77.03.66c0,.13,0,.27.02.4.07.11.23.21.35.31l.07.07s.05.09.05.15c0,.04,0,.07,0,.11h0v.31h.3l3.76-1.7v-22.9h10.79c2.9,0,4.39-1.72,4.77-4.27.07-.46.1-.93.1-1.44v-13.64c0-.69-.03-1.33-.1-1.9v.03ZM121.97,28.21c0,.55-.45,1-1,1h-9.22v-15.3h9.22c.55,0,1,.45,1,1v13.3Z"/>
          </g>
          <path class="cls-1" d="M129.73,2.95h-47.55c-2.44,0-4.43,1.99-4.43,4.43v43.77c0,1.5.89,2.89,2.25,3.52l24.38,11.27c.52.24,1.07.35,1.63.35s1.12-.12,1.63-.36l24.25-11.27h0c1.36-.64,2.24-2.02,2.24-3.52V7.38c0-2.44-1.99-4.43-4.43-4.43h0ZM105.24,43.64c-.1.28-.1.61-.21.89-.03.09-.07.2-.11.28-.07.13-.16.25-.21.4-.04.15-.05.31-.05.46l-1.09-.17c-.07,0-.16-.02-.23-.05-.1-.04-.18-.16-.26-.23l-1.28-1.07c-.11-.1-.24-.23-.34-.35-.02-.03-.04-.06-.05-.08-.02-.09,0-.21,0-.31v-.51c0-.07.09-.15.11-.22.03-.14-.13-.93-.23-1.05h-.02c-.13.19-.18.51-.21.74,0,.1-.04.21,0,.33,0,.06.03.08.07.13,0,0,.05.05.05.06,0,.03,0,.1,0,.13v.55c0,.08-.05.15-.07.23-.06.16-.07.36,0,.52v.02c.04.06.1.12.12.18.02.07,0,.2,0,.26v.62c0,.12-.03.29.02.41.03.07.09.14.16.19v-.23s-.03-.17,0-.2c0-.02.02-.03.03-.04.05,0,.07,0,.11,0,.04.02.07.06.07.09,0,.05-.02.09-.03.14-.08.2.07.38.02.58-.02.06-.05.1-.07.16l-.2.49-.66,1.77c-.2,0-.4,0-.6,0,0,.03,0,.05,0,.07.05.08.12.17.19.23.26.26.64.46,1.01.54.57.13,1.12,0,1.61-.31.17-.11.44-.33.52-.51v-.03c-.12-.02-.23,0-.34,0-.06,0-.12,0-.17-.03-.06-.12-.09-.26-.15-.38l-.46-1.15-.26-.59c-.06-.12-.1-.23-.14-.36-.05-.21-.04-.48,0-.68.18.07.35.17.52.25l.96.5c.34.18.69.32,1.02.51.04.03.08.07.1.11.03.07.04.14.06.21l.13.49.13.46c.03.08.06.18.06.27,0,.29-.07.54-.14.82l-.1.54-.07.76-.14,1.1c-.04.3-.07.6-.14.9-.09.44-.27.85-.32,1.3-.03.28,0,.58.02.87.03.31.07.62.12.93.07.32.16.64.15.96,0,.24-.07.51-.15.74l-.29.64c-.03.07-.06.14-.07.21,0,.05-.02.1-.02.15,0,.13.06.24.13.35l.06.06h-.06c-2.9-1.25-5.8-2.5-8.69-3.75-3.42-1.48-6.83-2.95-10.25-4.43v-14.15c0-1.07.45-2.1,1.24-2.83l4.2-3.84v17c3.19,1.26,6.4,2.52,9.59,3.77V8.83h5.44v34.62c-.08.04-.14.1-.18.2h.03ZM102.14,45.31l-.7-.02v-.66h0c.16.09.28.24.39.37,0,0,.3.31.3.31ZM101.78,46.4l.95,2.34h-1.82c.05-.25.16-.49.25-.73l.62-1.62ZM127.41,28.38c0,.5-.04.98-.1,1.44-.38,2.55-1.87,4.27-4.77,4.27h-10.79v22.9l-3.76,1.71h-.3v-.31h0s0-.07,0-.11c0-.05,0-.1-.05-.15l-.07-.07c-.11-.08-.27-.19-.35-.31-.02-.13-.02-.27-.02-.4l-.03-.66.07-1.77v-.47l-.05-.35c0-.07-.03-.17,0-.25.02-.03.04-.04.07-.06.05-.04.07-.07.08-.14,0-.06,0-.1-.03-.16-.04-.1-.02-.26,0-.38h0c.11-.04.25-.12.32-.22.03-.05.02-.11,0-.16l-.07-.42-.05-.36c-.02-.12-.05-.24-.05-.37,0-.41.09-.8.06-1.22-.02-.23-.07-.46-.12-.68-.03-.14-.05-.28-.08-.41-.05-.16-.15-.32-.22-.47l-.15-.34s-.07-.12-.07-.15c0,0,.02-.06.03-.07.03-.06.05-.12.07-.18.03-.08.03-.19.04-.28.07.12.11.25.15.37.07.21.11.51.35.59.38.13.78.17,1.18.23.35.06.69.18,1.05.13.15-.02.29-.07.43-.12,0,.14.03.31,0,.45-.05.21-.17.43-.26.63l-.31.69-.17.37c-.05.1-.1.18-.08.28l-.05.06h-.02c-.1,0-.21.05-.32.08l-.02.03c.02.07.1.1.15.14l.33.21c.43.24.93.28,1.41.15.18-.05.32-.15.48-.25.12-.07.23-.14.34-.24-.13-.05-.28-.06-.4-.1-.07-.21-.17-.39-.25-.59l-.4-.95c-.05-.11-.11-.22-.15-.34-.06-.21,0-.42-.02-.64,0-.07-.06-.14-.07-.22.09-.07.36.02.42-.07,0-.06,0-.09-.02-.15-.06-.05-.17-.03-.23-.04-.08,0-.17,0-.25-.02-.13-.02-.27-.07-.4-.07-.1,0-.21.09-.31.14h0c-.08.05-.35-.07-.43-.1l-.4-.18c-.19-.09-.38-.21-.58-.27-.13-.04-.27-.03-.41-.06-.03-.08-.04-.17-.06-.26l-.15-.81c-.03-.16-.03-.37-.09-.52-.03-.07-.07-.15-.12-.2-.03-.03-.13-.07-.13-.1-.02-.13-.07-.24-.11-.36-.05-.12-.22-.17-.27-.3-.04-.1-.05-.23-.07-.34l-.14-.6-.07-.4c-.02-.12-.04-.25-.09-.37-.04-.08-.1-.15-.19-.19V8.83h16.86c1.33,0,2.28.32,2.96.97.69.66,1.07,1.67,1.24,3.05.07.57.1,1.2.1,1.9v13.64h0ZM110.22,49.82c.03-.07.05-.14.09-.2,0,.03,0,.04.02.07l.71,1.68c-.23.04-.49.02-.73,0h-.76c.02-.09.06-.19.09-.27.07-.15.16-.29.22-.44l.35-.84h0Z"/>
        </g>
      </g>
    </g>
  </g>
</svg>