<?xml version="1.0" encoding="UTF-8"?>
<svg id="Layer_2" data-name="Layer 2" xmlns="http://www.w3.org/2000/svg" xmlns:xlink="http://www.w3.org/1999/xlink" viewBox="0 0 210 100">
  <defs>
    <style>
      .cls-1 {
        fill: url(#linear-gradient-15);
      }

      .cls-2 {
        fill: url(#linear-gradient-13);
      }

      .cls-3 {
        fill: url(#linear-gradient-2);
      }

      .cls-4 {
        fill: url(#linear-gradient-10);
      }

      .cls-5 {
        fill: url(#linear-gradient-12);
      }

      .cls-6 {
        fill: #fff;
      }

      .cls-7 {
        fill: none;
      }

      .cls-8 {
        fill: url(#linear-gradient-4);
      }

      .cls-9 {
        fill: url(#linear-gradient-3);
      }

      .cls-10 {
        fill: url(#linear-gradient-5);
      }

      .cls-11 {
        fill: url(#linear-gradient-8);
      }

      .cls-12 {
        opacity: 0;
      }

      .cls-13 {
        fill: url(#linear-gradient-14);
      }

      .cls-14 {
        fill: url(#linear-gradient-7);
      }

      .cls-15 {
        fill: url(#linear-gradient-9);
      }

      .cls-16 {
        fill: url(#linear-gradient-11);
      }

      .cls-17 {
        fill: url(#linear-gradient-6);
      }

      .cls-18 {
        fill: url(#linear-gradient);
      }

      .cls-19 {
        fill: #134777;
      }
    </style>
    <linearGradient id="linear-gradient" x1="-1957.02" y1="7356.39" x2="-1986.81" y2="7383.84" gradientTransform="translate(4956.21 5865.05) rotate(124.6)" gradientUnits="userSpaceOnUse">
      <stop offset="0" stop-color="#8ecfd8"/>
      <stop offset=".14" stop-color="#45bdd3"/>
      <stop offset="1" stop-color="#0e69a9"/>
    </linearGradient>
    <linearGradient id="linear-gradient-2" x1="-1955.14" y1="7358.42" x2="-1984.95" y2="7385.87" xlink:href="#linear-gradient"/>
    <linearGradient id="linear-gradient-3" x1="-1966.36" y1="7371.31" x2="-1979.73" y2="7363.47" gradientTransform="translate(4956.21 5865.05) rotate(124.6)" gradientUnits="userSpaceOnUse">
      <stop offset="0" stop-color="#5ec1cf"/>
      <stop offset=".14" stop-color="#45bdd3"/>
      <stop offset=".65" stop-color="#0e69a9"/>
      <stop offset="1" stop-color="#16234b"/>
    </linearGradient>
    <linearGradient id="linear-gradient-4" x1="4.08" y1="838.17" x2="44.15" y2="838.17" gradientTransform="translate(0 -789.73)" xlink:href="#linear-gradient-3"/>
    <linearGradient id="linear-gradient-5" x1="-2001.46" y1="7326.4" x2="-2019.27" y2="7343.66" xlink:href="#linear-gradient"/>
    <linearGradient id="linear-gradient-6" x1="-1995.81" y1="7317.14" x2="-2024.27" y2="7352" xlink:href="#linear-gradient-3"/>
    <linearGradient id="linear-gradient-7" x1="-2001.42" y1="7326.44" x2="-2019.24" y2="7343.7" xlink:href="#linear-gradient"/>
    <linearGradient id="linear-gradient-8" x1="-1995.32" y1="7317.53" x2="-2023.79" y2="7352.4" xlink:href="#linear-gradient-3"/>
    <linearGradient id="linear-gradient-9" x1="-1956.56" y1="7338.13" x2="-2002.21" y2="7384.25" xlink:href="#linear-gradient-3"/>
    <linearGradient id="linear-gradient-10" x1="10.69" y1="854.66" x2="56.92" y2="813.04" gradientTransform="translate(0 -789.73)" xlink:href="#linear-gradient-3"/>
    <linearGradient id="linear-gradient-11" x1="-1979.34" y1="7322.81" x2="-2020.29" y2="7362.82" xlink:href="#linear-gradient"/>
    <linearGradient id="linear-gradient-12" x1="-1977.52" y1="7324.67" x2="-2018.47" y2="7364.68" xlink:href="#linear-gradient"/>
    <linearGradient id="linear-gradient-13" x1="-1978.23" y1="7323.94" x2="-2019.18" y2="7363.95" xlink:href="#linear-gradient"/>
    <linearGradient id="linear-gradient-14" x1="-1978.34" y1="7324.05" x2="-2019.29" y2="7364.06" xlink:href="#linear-gradient-3"/>
    <linearGradient id="linear-gradient-15" x1="31.83" y1="847.45" x2="60.8" y2="829.35" gradientTransform="translate(0 -789.73)" gradientUnits="userSpaceOnUse">
      <stop offset="0" stop-color="#5ec1cf"/>
      <stop offset=".14" stop-color="#45bdd3"/>
      <stop offset=".74" stop-color="#0e69a9"/>
      <stop offset="1" stop-color="#16234b"/>
    </linearGradient>
  </defs>
  <g id="Layer_1-2" data-name="Layer 1">
    <rect class="cls-12" width="210" height="100"/>
    <g id="c">
      <g>
        <g>
          <path class="cls-18" d="M7.3,57.1c0,.08,0,.16.08.24-.32-2.42-.48-4.84-.48-7.27,0-2.18.08-4.28.32-6.22v.08c.4-3.96,1.7-7.51,3.63-10.49h0c-.16.08-.4.48-.56.73-.08.16-.16.24-.32.4,0,0,0-.08.08-.08l-.08.08c-.16.16-.32.4-.48.65-.16.24-.32.4-.4.65,0,0,0,.08-.08.08v.08c-.24.4-.56.89-.81,1.29v.08c-.08.08-.08.16-.16.24-.32.4-.48.73-.65,1.05,0,.08-.08.08-.08.16v.08h0c-.16.32-.32.65-.48,1.05,0,.05-.03.11-.08.16-.08.08,0,.08-.08.08-.08.24-.24.56-.32.73,0,.08-.08.16-.16.32h0c-.08.08-.08.24-.16.32-.08.32-.16.56-.24.73-.08.32-.16.56-.24.81,0,.08-.08.16-.08.24s-.08.16-.08.24c-.08.16-.08.4-.16.65v.24c-.08.32-.16.65-.24.89h0c-.08.4-.16.56-.24.97v.16c-.08.24-.08.48-.16.65v.16l-.08.65c-.4,2.99-.4,6.05.08,9.2.4,1.29.97,2.26,1.53,2.99l1.21-3.07h0Z"/>
          <path class="cls-3" d="M6.09,60.17c.81,1.05,1.7,1.62,2.1,1.78v-.08c-.32-1.45-.65-2.99-.81-4.52,0-.08,0-.16-.08-.24l-1.21,3.07h0Z"/>
          <path class="cls-9" d="M6.09,60.17c.81,1.05,1.7,1.62,2.1,1.78v-.08c-.32-1.45-.65-2.99-.81-4.52,0-.08,0-.16-.08-.24l-1.21,3.07h0Z"/>
          <path class="cls-6" d="M6.09,60.17h0s.73,1.13,2.1,2.02c0-.08,0-.16-.08-.24-.32-.16-1.13-.73-2.02-1.78h0Z"/>
          <path class="cls-8" d="M6.82,50.16c-.16-2.18.08-4.28.32-6.22v.08c.4-3.96,1.7-7.51,3.63-10.49h0c-.16.08-.4.48-.56.73-.08.16-.16.24-.32.4,0,0,0-.08.08-.08l-.08.08c-.16.16-.32.4-.48.65-.16.24-.32.4-.4.65,0,0,0,.08-.08.08v.08c-.24.4-.56.89-.81,1.29v.08c-.08.08-.08.16-.16.24-.24.32-.4.65-.56.97,0,.08-.08.08-.08.16v.08h0c-.16.32-.32.65-.48,1.05,0,.05-.03.11-.08.16-.08.08,0,.08-.08.08-.08.24-.24.56-.32.73,0,.08-.08.16-.16.32h0c-.08.08-.08.24-.16.32-.08.32-.16.56-.24.73-.08.32-.16.56-.24.81,0,.08-.08.16-.08.24s-.08.16-.08.24c-.08.16-.08.4-.16.65v.24c-.08.32-.16.65-.24.89h0c-.08.4-.16.56-.24.97v.16c-.08.24-.08.48-.16.65v.16l-.08.65c-.4,2.99-.65,6.13.08,9.2.32,1.29.97,2.26,1.53,2.99h0s.73,1.13,2.1,2.02c.16.08.32.24.48.32,3.07,1.7,5.65.32,5.65.32-6.05-.97-7.02-5.81-7.51-12.67h0Z"/>
        </g>
        <path class="cls-19" d="M26.36,24.16c-3.47,6.14-4.28,18.08-2.83,29.63.89-1.53,1.78-3.15,2.58-5.01,5.09-11.78,5.81-26.72,2.26-26.48-1.13.08-1.29.56-2.02,1.86Z"/>
        <path class="cls-19" d="M31.76,76.88c2.58-1.7,5.57-3.87,7.83-6.78-2.18-3.8-3.71-9.2-4.6-15.58-2.26,4.6-5.33,9.12-8.48,12.27,0,.08.08.16.08.24,1.37,4.12,2.91,7.19,5.17,9.85h0Z"/>
        <path class="cls-19" d="M39.6,70.1c1.61-2.36,3.25-4.98,4.85-7.86,1.04-1.88,1.98-3.7,2.82-5.46-.68-4.85-1.06-10.96-.32-17.93.4-3.78,1.06-7.19,1.81-10.18-2.48,4.37-4.96,8.89-7.43,13.54-2.21,4.16-4.32,8.26-6.33,12.3.01,2.07.25,4.95,1.23,8.23.95,3.17,2.28,5.63,3.37,7.35h0Z"/>
        <g>
          <path class="cls-7" d="M61.39,64.53c-.16.4-.4.89-.65,1.29.24-.4.48-.81.65-1.29q0,.05,0,0Z"/>
          <path class="cls-19" d="M61.88,49.03c.16-.89.48-2.66,1.21-4.04.4-.89,1.53-2.5,2.34,0-.08-.32-.16-.73-.32-1.05-.73-1.29-1.62.08-2.02.81-.73,1.37-1.05,3.07-1.21,4.04-.4,1.62-1.37,1.86-2.42,1.62,0,.08-.08.16-.08.24,1.13.32,2.1.08,2.5-1.62h0Z"/>
          <path class="cls-19" d="M63.57,57.1s.08,0,.16.08c-.05-.05-.11-.08-.16-.08h0Z"/>
          <path class="cls-19" d="M63.57,57.1s.08,0,.16.08c-.05-.05-.11-.08-.16-.08h0Z"/>
          <path class="cls-19" d="M64.06,57.42c-.08-.16-.24-.24-.32-.32.08.08.24.24.32.4h0c-.08.08,0,0,0-.08Z"/>
          <path class="cls-19" d="M60.83,65.82c-.32.73-.73,1.37-1.05,2.02,0,0,.08,0,.08-.08.32-.56.65-1.21.97-1.94h0Z"/>
          <path class="cls-19" d="M61.39,64.53c1.05-2.34,1.86-4.6,2.58-6.86-1.13,3.47-2.42,6.7-2.58,6.86Z"/>
          <path class="cls-19" d="M65.19,52.34c.56-3.07.65-5.73.24-7.59-.08-.32-.24-.65-.32-.81.08.4.24.73.32,1.05-.81-2.58-1.94-.89-2.34,0-.73,1.37-1.05,3.07-1.21,4.04-.4,1.62-1.37,1.86-2.42,1.62-1.45,5.57-3.87,11.54-6.94,16.79.04.04.09.09.16.16.38.37.69.61.73.65.3.24,1.07.64,2.05.81.48.08,1.85.29,3.27-.45.48-.25.83-.54,1.06-.77.4-.65.73-1.29,1.05-2.02.24-.4.4-.89.65-1.29.08-.24,1.45-3.39,2.58-6.86v-.08c-.08-.16-.08-.24,0-.16.4-1.37.89-3.71,1.13-4.76v-.32Z"/>
        </g>
        <path class="cls-19" d="M47.34,56.54c0,.08-.08.16-.08.24-2.02-8.4-2.02-19.21.89-26.88,1.48-3.25,2.53-3.85,3.2-3.87h.05s.07,0,.12,0c.45,0,.68.24.88.63,1.36,2.6,1.17,5.92.89,8.75-.34,3.43-1.08,6.82-2.01,10.14-1.05,3.75-2.38,7.43-3.93,11.01h0Z"/>
        <g>
          <path class="cls-19" d="M8.35,62.03c1.62,1.37,3.8,1.53,5.97.73-.89-3.87-1.37-7.91-1.53-11.87-2.1,2.18-4.28,2.42-5.33.65-.16-.24-.32-.56-.48-.89.08,3.71.48,7.67,1.37,11.38h0Z"/>
          <path class="cls-19" d="M8.19,61.87c.08.08.16.08.16.16h0c-.89-3.71-1.29-7.67-1.29-11.3-.08-.16-.16-.32-.16-.48,0,3.71.4,7.83,1.29,11.62Z"/>
        </g>
        <path class="cls-19" d="M23.55,53.76c-.79,1.34-1.93,2.98-3.55,4.64-2.04,2.1-4.12,3.48-5.69,4.36-.58-1.75-1.15-3.95-1.43-6.54-.22-1.99-.22-3.77-.13-5.29,1.67-1.9,3.3-4.13,4.72-6.75,1.31-2.42,3.84-7.72,5.87-14.69.71-2.44,1.73-6.32,4.41-7.07.27-.07.49-.1.64-.11-1.62,10.48-3.24,20.97-4.86,31.45h0Z"/>
        <g>
          <path class="cls-10" d="M57.11,49.19c.48.4,1.45,1.05,2.42,1.29.48-1.78.81-3.47,1.13-5.09.48,1.13.89,2.26,1.29,3.47.16-.89.48-2.66,1.21-4.04.4-.73,1.21-2.1,2.02-.81,0-.08-.08-.24-.08-.32-.08-.32-.24-.65-.32-.97-.08-.24-.16-.56-.32-.81,0-.08-.08-.16-.08-.24-.24-.73-.48-1.21-.73-1.7s-.48-.97-.89-1.78c-.08-.16-.16-.24-.16-.4-.16-.32-.32-.65-.48-.89-.16-.32-.32-.56-.56-.89-.08-.08-.08-.16-.16-.24-.32-.48-.73-1.05-1.37-1.94-1.13-1.29-2.5.08-3.96,4.04-.56,1.62-1.05,3.15-1.29,4.6-.4,2.58.16,4.84,2.34,6.7h0Z"/>
          <path class="cls-17" d="M57.11,49.19c.48.4,1.45,1.05,2.42,1.29.48-1.78.81-3.47,1.13-5.09.48,1.13.89,2.26,1.29,3.47.16-.89.48-2.66,1.21-4.04.4-.73,1.21-2.1,2.02-.81,0-.08-.08-.24-.08-.32-.08-.32-.24-.65-.32-.97-.54-1.62-1.27-3.17-2.07-4.68s-1.63-2.98-2.7-4.2c-1.13-1.29-2.5.08-3.96,4.04-.56,1.62-1.05,3.15-1.29,4.6-.4,2.58.16,4.84,2.34,6.7Z"/>
          <path class="cls-19" d="M59.54,50.4c1.05.24,2.02,0,2.42-1.62-.4-1.13-.81-2.34-1.29-3.47-.32,1.7-.65,3.39-1.13,5.09h0Z"/>
          <path class="cls-14" d="M59.54,50.4c1.05.24,2.02,0,2.42-1.62-.4-1.13-.81-2.34-1.29-3.47-.32,1.7-.65,3.39-1.13,5.09h0Z"/>
          <path class="cls-11" d="M59.54,50.4c1.05.24,2.02,0,2.42-1.62-.4-1.13-.81-2.34-1.29-3.47-.32,1.7-.65,3.39-1.13,5.09h0Z"/>
        </g>
        <g>
          <path class="cls-15" d="M31.93,77.04c-2.18-2.66-4.04-6.22-5.41-10.17l-9.93,2.83c.16.32.24.56.4.89,5.09,8.64,10.58,8.64,14.93,6.46h0Z"/>
          <path class="cls-4" d="M26.52,66.87c-1.45-4.04-2.42-8.56-3.07-13.24-1.53-11.62-.16-29.14,5.01-31.4-.65-.08-1.62.08-4.76,1.37-.32.16-.65.24-.97.4-.4.16-.73.32-1.13.56-.48.32-.97.56-1.78.97-.08.08-.16.08-.24.16-.08.08-.24.16-.32.24-.32.16-.65.4-.97.65-.24.16-.56.32-.81.48-.16.08-.32.24-.48.32l-.08.08-.08.08c-.08,0-.08.08-.16.08-2.58,2.83-4.44,12.76-3.96,23.57.16,3.96.73,7.99,1.62,11.79.56,2.34,1.21,4.6,2.1,6.7.16.32.24.56.4.89,5.17,8.64,10.66,8.64,15.01,6.46,4.44-2.26,7.67-6.94,7.67-6.94-7.59,7.67-13-3.23-13-3.23h0Z"/>
        </g>
        <g>
          <path class="cls-16" d="M52.43,67.52h0c-2.18-2.18-3.87-6.05-5.01-10.66,0-.16-.08-.24-.08-.32,0,.08-.08.16-.08.24,1.13,4.68,2.91,8.64,5.17,10.74h0Z"/>
          <path class="cls-5" d="M58.16,68.97c-1.78.65-3.39.32-4.76-.73-.32-.24-.65-.48-.89-.73-2.26-2.1-4.04-6.05-5.25-10.82-2.02-8.31-2.02-19.13.97-26.8,1.86-4.28,3.15-3.96,3.71-3.8-.48-.32-.97-.56-1.45-.81-.08-.08-.16-.08-.24-.16h-.08c-.16-.08-.32-.16-.4-.16-1.13-.56-2.58-1.21-3.87-1.7-.4-.16-.73-.24-1.13-.32h-.08c-.48-.16-.97-.32-1.45-.4-.97-.24-1.94-.4-2.83-.65l-.56-.16c-1.21,0-1.94,1.37-2.74,2.83v.08c-3.63,7.59-3.15,19.78-2.34,27.77.08.89.16,1.7.32,2.58.89,6.22,2.42,11.38,4.52,15.1l3.55-.4c6.78,3.15,12.43.81,15.01-.73h0Z"/>
          <path class="cls-2" d="M58.81,68.65c-.24.08-.4.16-.65.24-2.58,1.53-8.23,3.87-15.1.73l-3.55.4v.08c.56.97,9.12,15.34,19.29-.97l.08-.08c0-.08.08-.08.08-.16.16-.24.24-.48.4-.65-.08.24-.32.32-.56.4h0Z"/>
          <path class="cls-13" d="M58.81,68.65c-.24.08-.4.16-.65.24-2.58,1.53-8.23,3.87-15.1.73l-3.55.4v.08c.56.97,9.12,15.34,19.29-.97l.08-.08c0-.08.08-.08.08-.16.16-.24.24-.48.4-.65-.08.24-.32.32-.56.4h0Z"/>
          <path class="cls-1" d="M53.43,68.2c-1.52-1.02-2.6-2.63-3.46-4.26-3.58-6.8-4.33-14.74-3.95-22.41.23-4.7.91-9.52,3.24-13.62.58-1.02,1.57-2.11,2.71-1.83-.4-.1-.76-.4-1.12-.6-.43-.23-.86-.45-1.3-.66-.88-.42-1.77-.81-2.68-1.15-1.82-.69-3.69-1.22-5.6-1.59-.49-.09-.99-.22-1.49-.19-1.27.06-1.93,1.21-2.43,2.23-.13.25-.14.7.14.68-.12-.26-.49.02-.6.28-2.4,5.68-2.74,12-2.65,18.16.06,4.01.29,8.02.87,11.98.57,3.94,1.56,7.72,2.88,11.46.95,2.69,2.5,5.17,4.52,7.19,1.35,1.35,2.97,2.53,4.84,2.91,2.67.55,5.46-.63,7.5-2.44,2.04-1.81,3.46-4.2,4.85-6.55-1.32,1.6-3.86,1.72-5.69.75-.2-.11-.39-.22-.57-.34h0Z"/>
        </g>
        <path class="cls-19" d="M77.78,28.52c3.87,0,6.86,2.74,6.86,6.7s-3.07,6.7-6.86,6.7-6.86-2.74-6.86-6.7c-.08-3.96,2.99-6.7,6.86-6.7ZM77.78,39.5c2.34,0,4.2-1.78,4.2-4.36s-1.86-4.36-4.2-4.36-4.2,1.78-4.2,4.36,1.86,4.36,4.2,4.36Z"/>
        <path class="cls-19" d="M85.93,28.69h1.94l6.13,8.07v-8.07h2.66v12.92h-1.94l-6.13-8.07v8.07h-2.66v-12.92Z"/>
        <path class="cls-19" d="M98.04,28.69h7.91v2.26h-5.25v3.47h4.44v2.26h-4.44v2.66h5.41v2.26h-8.07v-12.91h0Z"/>
        <path class="cls-19" d="M124.84,37.32l2.58-8.56h2.74l-4.28,12.92h-2.1l-2.91-8.72-2.91,8.72h-2.1l-4.28-12.92h2.74l2.58,8.56,2.91-8.56h2.1l2.91,8.56Z"/>
        <path class="cls-19" d="M136.63,28.52c3.87,0,6.86,2.74,6.86,6.62s-3.07,6.7-6.86,6.7-6.86-2.74-6.86-6.7,2.99-6.62,6.86-6.62ZM136.63,39.5c2.34,0,4.2-1.78,4.2-4.36s-1.86-4.36-4.2-4.36-4.2,1.78-4.2,4.36,1.86,4.36,4.2,4.36Z"/>
        <path class="cls-19" d="M147.53,41.6h-2.66v-12.92h4.44c3.15,0,5.09,2.02,5.09,4.52,0,1.7-.89,3.15-2.42,3.8,1.29.81,2.1,2.18,2.26,4.12v.4h-2.58v-.32c-.24-2.1-1.45-3.39-3.23-3.39h-.97v3.8h.08ZM147.53,35.63h1.7c1.45,0,2.42-.81,2.42-2.34s-.97-2.34-2.42-2.34h-1.7v4.68Z"/>
        <path class="cls-19" d="M155.68,28.69h2.66v10.66h5.17v2.26h-7.83v-12.91Z"/>
        <path class="cls-19" d="M169.08,41.6h-4.28v-12.92h4.28c4.2,0,7.02,2.34,7.02,6.46s-2.83,6.46-7.02,6.46h0ZM169.16,30.95h-1.7v8.4h1.7c2.42,0,4.28-1.37,4.28-4.2s-1.94-4.2-4.28-4.2Z"/>
        <path class="cls-19" d="M74.39,44.51v12.92h-2.66v-12.92s2.66,0,2.66,0Z"/>
        <path class="cls-19" d="M75.76,44.51h1.94l6.13,8.07v-8.07h2.66v12.92h-1.94l-6.13-8.07v8.07h-2.66s0-12.92,0-12.92Z"/>
        <path class="cls-19" d="M91.34,46.77h-3.47v-2.26h9.53v2.26h-3.47v10.66h-2.66v-10.66h.08Z"/>
        <path class="cls-19" d="M98.85,44.51h7.91v2.26h-5.25v3.47h4.44v2.26h-4.44v2.66h5.41v2.26h-8.07v-12.92h0Z"/>
        <path class="cls-19" d="M110.96,57.42h-2.66v-12.92h4.44c3.15,0,5.09,2.02,5.09,4.52,0,1.7-.89,3.15-2.42,3.8,1.29.81,2.1,2.18,2.26,4.2v.4h-2.58v-.32c-.24-2.1-1.45-3.39-3.23-3.39h-.97v3.71h.08ZM110.96,51.45h1.7c1.45,0,2.42-.81,2.42-2.34s-.97-2.34-2.42-2.34h-1.7v4.68Z"/>
        <path class="cls-19" d="M119.19,44.51h1.94l6.14,8.07v-8.07h2.66v12.92h-1.94l-6.14-8.07v8.07h-2.66v-12.92h0Z"/>
        <path class="cls-19" d="M140.34,55.49h-5.57l-.73,1.94h-2.74l5.25-12.92h2.1l5.25,12.92h-2.74l-.81-1.94h0ZM135.66,53.31h3.87l-1.94-5.01-1.94,5.01h0Z"/>
        <path class="cls-19" d="M145.27,46.77h-3.47v-2.26h9.61v2.26h-3.47v10.66h-2.66v-10.66h0Z"/>
        <path class="cls-19" d="M155.44,44.51v12.92h-2.66v-12.92s2.66,0,2.66,0Z"/>
        <path class="cls-19" d="M163.76,44.35c3.87,0,6.86,2.74,6.86,6.7s-3.07,6.7-6.86,6.7-6.94-2.74-6.94-6.7,3.07-6.7,6.94-6.7ZM163.76,55.33c2.34,0,4.2-1.78,4.2-4.36s-1.86-4.36-4.2-4.36-4.2,1.78-4.2,4.36c-.08,2.58,1.86,4.36,4.2,4.36Z"/>
        <path class="cls-19" d="M171.99,44.51h1.94l6.14,8.07v-8.07h2.66v12.92h-1.94l-6.14-8.07v8.07h-2.66s0-12.92,0-12.92Z"/>
        <path class="cls-19" d="M193.22,55.49h-5.57l-.73,1.94h-2.74l5.25-12.92h2.1l5.17,12.92h-2.74l-.73-1.94h0ZM188.46,53.31h3.87l-1.94-5.01-1.94,5.01h0Z"/>
        <path class="cls-19" d="M198.06,44.51h2.66v10.66h5.17v2.26h-7.83v-12.92h0Z"/>
        <path class="cls-19" d="M72.05,63.64c0-2.1,1.45-3.47,4.12-3.47,1.21,0,2.5.32,3.47.89l-.81,2.1c-.65-.4-1.53-.73-2.42-.73-1.13,0-1.7.4-1.7,1.05,0,.73.48,1.13,2.26,1.94,2.26,1.05,3.31,2.18,3.31,4.12,0,2.34-1.62,3.87-4.68,3.87-1.37,0-2.74-.4-3.87-1.05l.81-2.1c.81.56,1.94.89,2.99.89,1.29,0,2.1-.48,2.1-1.37,0-.97-.65-1.45-2.26-2.18-2.58-1.05-3.31-2.26-3.31-3.96h0Z"/>
        <path class="cls-19" d="M87.95,60.17c3.15,0,5.81,1.86,6.62,4.68h-2.83c-.73-1.45-2.18-2.42-3.8-2.42-2.26,0-4.2,1.78-4.2,4.36s1.94,4.36,4.2,4.36c1.62,0,3.07-.89,3.8-2.42h2.83c-.81,2.83-3.55,4.68-6.62,4.68-3.8,0-6.86-2.74-6.86-6.7s3.07-6.54,6.86-6.54h0Z"/>
        <path class="cls-19" d="M95.3,60.41h2.66v5.73h4.6v-5.73h2.66v12.92h-2.66v-4.92h-4.6v4.92h-2.66v-12.92Z"/>
        <path class="cls-19" d="M112.82,60.17c3.87,0,6.94,2.74,6.94,6.7s-3.07,6.7-6.94,6.7-6.86-2.74-6.86-6.7c-.08-3.96,2.99-6.7,6.86-6.7h0ZM112.82,71.23c2.34,0,4.2-1.78,4.2-4.36s-1.86-4.36-4.2-4.36-4.2,1.78-4.2,4.36,1.86,4.36,4.2,4.36Z"/>
        <path class="cls-19" d="M127.35,60.17c3.87,0,6.94,2.74,6.94,6.7s-3.07,6.7-6.94,6.7-6.86-2.74-6.86-6.7c-.08-3.96,2.99-6.7,6.86-6.7h0ZM127.35,71.23c2.34,0,4.2-1.78,4.2-4.36s-1.86-4.36-4.2-4.36-4.2,1.78-4.2,4.36c-.08,2.58,1.86,4.36,4.2,4.36Z"/>
        <path class="cls-19" d="M134.93,60.41h2.66v10.58h5.17v2.26h-7.83v-12.84h0Z"/>
      </g>
    </g>
  </g>
</svg>