<?xml version="1.0" encoding="UTF-8"?>
<svg id="Layer_2" data-name="Layer 2" xmlns="http://www.w3.org/2000/svg" xmlns:xlink="http://www.w3.org/1999/xlink" viewBox="0 0 210 100">
  <defs>
    <style>
      .cls-1 {
        fill: #2c2c2c;
      }

      .cls-2 {
        opacity: 0;
      }

      .cls-3 {
        fill: #888;
      }

      .cls-4 {
        fill: #696969;
      }

      .cls-5 {
        fill: #4b4b4b;
      }

      .cls-6 {
        fill: url(#linear-gradient);
      }
    </style>
    <linearGradient id="linear-gradient" x1="101.98" y1="-236.63" x2="101.98" y2="-187.22" gradientTransform="translate(0 -177.68) scale(1 -1)" gradientUnits="userSpaceOnUse">
      <stop offset="0" stop-color="#000"/>
      <stop offset=".62" stop-color="#888"/>
    </linearGradient>
  </defs>
  <g id="Layer_1-2" data-name="Layer 1">
    <rect class="cls-2" width="210" height="100"/>
    <g id="uuid-5cf27de3-0b84-4d8e-ac1a-cc1adf00e1a4" data-name="Layer 1-2">
      <g>
        <path class="cls-3" d="M18.39,73.71v2.16h-4.49c-.13,0-.19.06-.19.19v15.64h-2.16v-15.64c0-.13-.06-.19-.17-.19h-4.44v-2.16h11.44Z"/>
        <path class="cls-3" d="M19.57,91.7v-16.79h2.04v5.61c.88-.67,1.94-1.01,3.17-1.01,1.41,0,2.63.48,3.68,1.44,1.05.96,1.57,2.12,1.57,3.48v7.27h-2.04v-6.98c0-.85-.32-1.59-.96-2.23-.64-.64-1.38-.96-2.23-.96-2.13,0-3.19,1.02-3.19,3.07v7.1h-2.04Z"/>
        <path class="cls-3" d="M37.94,91.89c-1.73,0-3.19-.6-4.4-1.81-1.21-1.21-1.81-2.67-1.81-4.4s.59-3.17,1.77-4.37c1.18-1.2,2.63-1.8,4.34-1.8,1.62,0,2.93.57,3.93,1.7s1.51,2.51,1.51,4.13v1.1h-9.45c.19,1.01.66,1.82,1.41,2.45.75.62,1.65.94,2.69.94,1.2,0,2.13-.36,2.81-1.08l1.49,1.39c-1.17,1.17-2.6,1.75-4.29,1.75h0ZM37.85,81.55c-.99,0-1.85.3-2.58.91-.73.61-1.19,1.38-1.38,2.3h7.27c0-.8-.32-1.53-.95-2.21-.63-.67-1.42-1.01-2.36-1.01h0Z"/>
        <path class="cls-3" d="M68.41,91.34c-.22.22-.48.34-.77.34-.27,0-.51-.1-.72-.31l-.96-.98c-1.53,1.01-3.22,1.51-5.06,1.51-2.54,0-4.71-.9-6.5-2.69-1.79-1.79-2.69-3.96-2.69-6.5s.9-4.71,2.69-6.5,3.96-2.69,6.5-2.69,4.71.9,6.5,2.69c1.79,1.79,2.69,3.96,2.69,6.5s-.82,4.51-2.47,6.28l.84.86c.21.21.31.45.31.72,0,.3-.12.56-.36.77h0ZM55.93,77.74c-1.38,1.38-2.06,3.03-2.06,4.97s.69,3.59,2.06,4.97c1.38,1.38,3.03,2.06,4.97,2.06,1.28,0,2.45-.31,3.53-.94l-1.8-1.87c-.19-.19-.29-.43-.29-.72s.11-.54.34-.77c.27-.22.54-.34.79-.34.27,0,.5.1.7.31l1.94,2.01c1.21-1.34,1.82-2.92,1.82-4.73,0-1.94-.68-3.59-2.05-4.97-1.37-1.38-3.03-2.06-4.98-2.06s-3.59.69-4.97,2.06h0Z"/>
        <path class="cls-3" d="M73.8,79.73v6.91c0,.85.32,1.59.96,2.23.64.64,1.38.96,2.23.96,2.13,0,3.19-1.02,3.19-3.07v-7.03h2.04v11.97l-2.04-.89c-.93.72-1.98,1.08-3.17,1.08-1.41,0-2.63-.49-3.68-1.46-1.05-.97-1.57-2.14-1.57-3.5v-7.2h2.04Z"/>
        <path class="cls-3" d="M93.95,81.09v-1.41h2.04v12.02l-2.04-.89v-.5c-1.22,1.06-2.59,1.58-4.13,1.58-1.73,0-3.19-.6-4.4-1.81-1.21-1.21-1.81-2.67-1.81-4.4s.6-3.17,1.81-4.37c1.21-1.2,2.67-1.8,4.4-1.8,1.53,0,2.91.53,4.13,1.58ZM85.68,85.68c0,1.17.4,2.15,1.2,2.95s1.78,1.2,2.95,1.2,2.13-.4,2.93-1.2,1.2-1.78,1.2-2.95-.4-2.13-1.2-2.93c-.8-.8-1.77-1.2-2.93-1.2s-2.15.4-2.95,1.2-1.2,1.77-1.2,2.93Z"/>
        <path class="cls-3" d="M106.12,91.7v-6.98c0-.85-.32-1.59-.96-2.23-.64-.64-1.38-.96-2.23-.96-2.13,0-3.19,1.02-3.19,3.07v7.1h-2.04v-11.99l2.04.84c.88-.69,1.94-1.03,3.17-1.03,1.41,0,2.63.48,3.68,1.44,1.05.96,1.57,2.12,1.57,3.48v7.27h-2.04Z"/>
        <path class="cls-3" d="M111.99,79.9v-3.69h2.04v3.69h3.45v1.85h-3.45v9.96h-2.04v-9.96h-3.48v-1.85h3.48Z"/>
        <path class="cls-3" d="M120.94,79.73v6.91c0,.85.32,1.59.96,2.23.64.64,1.38.96,2.23.96,2.13,0,3.19-1.02,3.19-3.07v-7.03h2.04v11.97l-2.04-.89c-.93.72-1.98,1.08-3.17,1.08-1.41,0-2.63-.49-3.68-1.46-1.05-.97-1.57-2.14-1.57-3.5v-7.2h2.04,0Z"/>
        <path class="cls-3" d="M139.56,91.7v-6.98c0-.85-.32-1.59-.96-2.23-.64-.64-1.38-.96-2.23-.96-2.13,0-3.19,1.01-3.19,3.02v7.15h-2.04v-11.99l2.04.84c.88-.69,1.94-1.03,3.17-1.03,1.76,0,3.17.67,4.22,2.01,1.04-1.34,2.44-2.01,4.2-2.01,1.41,0,2.63.48,3.68,1.44s1.57,2.12,1.57,3.48v7.27h-2.04v-6.98c0-.85-.32-1.59-.96-2.23-.64-.64-1.38-.96-2.23-.96s-1.58.29-2.24.88c-.66.58-1,1.28-1,2.07v7.22h-1.99,0Z"/>
        <path class="cls-3" d="M164.48,73.71h1.58l6.36,17.99h-2.3l-1.34-3.86c-.02-.11-.09-.17-.22-.17h-6.52c-.14,0-.22.06-.24.17l-1.37,3.86h-2.25l6.31-17.99h0ZM165.25,77.69l-2.59,7.63s-.02.04-.02.07c0,.08.04.12.12.12h5.06c.11,0,.17-.04.17-.12v-.02l-.02-.05-2.62-7.63s-.02-.07-.05-.07l-.05.07h0Z"/>
        <path class="cls-3" d="M173.62,91.7v-16.77h2.04v16.77h-2.04Z"/>
        <path class="cls-3" d="M178.44,95.39l1.61-1.2c.75.91,1.81,1.37,3.17,1.37,1.18,0,2.19-.41,3.01-1.23.82-.82,1.23-1.83,1.23-3.01v-1.03c-1.15,1.06-2.53,1.58-4.13,1.58-1.73,0-3.19-.6-4.4-1.8-1.21-1.2-1.81-2.65-1.81-4.37s.6-3.19,1.81-4.4,2.67-1.81,4.4-1.81c1.6,0,2.98.53,4.13,1.58v-.5l2.04-.89v11.61c0,1.74-.61,3.22-1.83,4.44-1.22,1.22-2.71,1.82-4.45,1.82-1.95,0-3.54-.72-4.77-2.16h0ZM179.4,85.7c0,1.15.4,2.13,1.2,2.93s1.78,1.2,2.95,1.2,2.13-.4,2.93-1.2,1.2-1.77,1.2-2.93-.4-2.15-1.2-2.95-1.77-1.2-2.93-1.2-2.15.4-2.95,1.2-1.2,1.78-1.2,2.95Z"/>
        <path class="cls-3" d="M190.67,85.68c0-1.71.6-3.17,1.81-4.37,1.21-1.2,2.67-1.8,4.4-1.8s3.17.6,4.37,1.8,1.8,2.65,1.8,4.37-.6,3.19-1.8,4.4c-1.2,1.21-2.65,1.81-4.37,1.81s-3.19-.6-4.4-1.81c-1.21-1.21-1.81-2.67-1.81-4.4ZM192.74,85.68c0,1.17.4,2.15,1.2,2.95s1.78,1.2,2.95,1.2,2.13-.4,2.93-1.2,1.2-1.78,1.2-2.95-.4-2.13-1.2-2.93c-.8-.8-1.77-1.2-2.93-1.2s-2.15.4-2.95,1.2-1.2,1.77-1.2,2.93Z"/>
      </g>
      <path class="cls-6" d="M101.98,2.29c-7.23,0-13.91,2.4-19.27,6.45-2.37,1.79-4.48,3.9-6.26,6.26-4.05,5.36-6.45,12.03-6.45,19.27,0,17.67,14.32,31.99,31.99,31.99s31.99-14.32,31.99-31.99S119.65,2.29,101.98,2.29ZM101.98,58.27c-13.25,0-23.99-10.74-23.99-23.99s10.74-23.99,23.99-23.99,23.99,10.74,23.99,23.99-10.74,23.99-23.99,23.99h0Z"/>
      <path class="cls-3" d="M101.98,26.29v16.28c-5.16,3.52-10.33,7.03-15.49,10.55,5.16-8.94,10.33-17.88,15.49-26.83Z"/>
      <path class="cls-4" d="M117.47,53.12c-5.16-3.52-10.33-7.03-15.49-10.55v-16.28l15.49,26.83Z"/>
      <path class="cls-1" d="M117.47,53.12c-5.16,3.52-10.33,7.03-15.49,10.55v-21.1c5.16,3.52,10.33,7.03,15.49,10.55Z"/>
      <path class="cls-5" d="M101.98,42.57v21.1c-5.16-3.52-10.33-7.03-15.49-10.55,5.16-3.52,10.33-7.03,15.49-10.55Z"/>
    </g>
  </g>
</svg>