<?xml version="1.0" encoding="UTF-8"?>
<svg id="Layer_2" data-name="Layer 2" xmlns="http://www.w3.org/2000/svg" viewBox="0 0 210 100">
  <defs>
    <style>
      .cls-1 {
        fill: #14395b;
      }

      .cls-1, .cls-2 {
        fill-rule: evenodd;
      }

      .cls-2 {
        fill: #00a2bd;
      }

      .cls-3 {
        opacity: 0;
      }
    </style>
  </defs>
  <g id="Layer_1-2" data-name="Layer 1">
    <rect class="cls-3" width="210" height="100"/>
    <g>
      <path class="cls-2" d="M39.71,76.04v-10.88h1.44v4.47h5.65v-4.47h1.44v10.88h-1.44v-5.13h-5.65v5.13h-1.44ZM58.47,70.74c0-1.81.48-3.22,1.45-4.24.97-1.02,2.22-1.53,3.75-1.53,1,0,1.91.24,2.72.72.81.48,1.42,1.15,1.84,2.01s.63,1.83.63,2.92-.22,2.09-.67,2.96c-.45.87-1.08,1.53-1.89,1.98-.82.45-1.7.67-2.64.67-1.02,0-1.94-.25-2.75-.74-.81-.49-1.42-1.17-1.83-2.03-.42-.86-.62-1.76-.62-2.72ZM59.95,70.77c0,1.31.35,2.34,1.06,3.1s1.59,1.13,2.65,1.13,1.97-.38,2.67-1.14c.7-.76,1.05-1.84,1.05-3.24,0-.89-.15-1.66-.45-2.32-.3-.66-.74-1.17-1.31-1.54-.58-.36-1.22-.55-1.94-.55-1.02,0-1.9.35-2.63,1.05-.73.7-1.1,1.87-1.1,3.51ZM78.5,72.55l1.36-.12c.06.54.21.99.45,1.34.23.35.6.63,1.09.85.49.22,1.05.32,1.67.32.55,0,1.03-.08,1.45-.24.42-.16.73-.39.94-.67.21-.28.31-.59.31-.93s-.1-.64-.3-.89c-.2-.25-.52-.47-.98-.64-.29-.11-.94-.29-1.94-.53-1-.24-1.7-.47-2.1-.68-.52-.27-.91-.61-1.16-1.01-.25-.4-.38-.85-.38-1.35,0-.55.16-1.06.47-1.54.31-.48.77-.84,1.37-1.09.6-.25,1.26-.37,2-.37.81,0,1.52.13,2.13.39.62.26,1.09.64,1.42,1.15.33.5.51,1.08.53,1.71l-1.38.1c-.07-.69-.33-1.21-.75-1.56-.43-.35-1.06-.53-1.9-.53s-1.5.16-1.9.48c-.4.32-.6.7-.6,1.15,0,.39.14.71.42.96.28.25,1,.51,2.17.78,1.17.26,1.97.5,2.41.69.63.29,1.1.66,1.4,1.11.3.45.45.96.45,1.55s-.17,1.12-.5,1.64c-.33.51-.81.91-1.43,1.19-.62.28-1.32.43-2.1.43-.98,0-1.81-.14-2.47-.43-.67-.29-1.19-.72-1.57-1.29-.38-.58-.58-1.23-.6-1.96ZM97.39,76.04v-10.88h4.1c.72,0,1.27.03,1.65.1.53.09.98.26,1.34.51s.65.6.87,1.05.33.94.33,1.48c0,.92-.29,1.71-.88,2.35-.59.64-1.65.96-3.19.96h-2.79v4.42h-1.44ZM98.83,70.33h2.81c.93,0,1.59-.17,1.98-.52.39-.35.59-.83.59-1.46,0-.45-.12-.84-.35-1.17-.23-.32-.53-.54-.91-.64-.24-.06-.69-.1-1.34-.1h-2.78v3.89ZM116.04,76.04v-10.88h1.44v10.88h-1.44ZM131.05,76.04v-9.59h-3.58v-1.28h8.62v1.28h-3.6v9.59h-1.44ZM144.63,76.04l4.18-10.88h1.55l4.45,10.88h-1.64l-1.27-3.29h-4.55l-1.19,3.29h-1.53ZM147.77,71.57h3.69l-1.14-3.01c-.35-.92-.6-1.67-.77-2.26-.14.7-.33,1.39-.59,2.08l-1.19,3.19ZM164.17,76.04v-10.88h1.44v9.59h5.36v1.28h-6.8Z"/>
      <path class="cls-1" d="M170.06,32.86h-65.59v2.23h38.35v3.89c0,1.02-.72-.1-.72,2.23.99-.08,6.64-3.02,9.47-.96.86.6.72.79.72,2.08-1.84-.42-.99-.92-4.28-.92s-7.57,2.64-7.57,5.56c0,2.21,2.96,4.27,5.33,4.27,1.78,0,2.5.06,4.14-.54,1.32-.48,1.51-.89,2.37-.94.07.85-.2.35.39.71l2.37.94c0-3,.66-10.68-1.18-12.92-1.97-2.46-7.17-.94-8.82-.81v-2.6h25v6.31c-1.84-1.25-2.76-4.27-6.84-4.27-2.5,0-8.22,3.97-5.26,9.34.26.44.46.75.79,1.1l1.97,1.94c5.26,4.49,8.68-1.14,9.34-1.62v2.23c.66.33,2.5,1.14,3.16,1.29v-16.33h4.87v3.89c0,1.02-.79-.1-.79,2.23,1.12-.1,6.64-3.02,9.54-.96.79.6.66.79.66,2.08-1.91-.44-.86-.92-4.41-.92-2.83,0-6.32,2.25-7.11,4.24-1.12,3.02,2.11,5.6,5.07,5.6,1.58,0,2.57.04,4.14-.5.72-.29,1.71-.94,2.3-.98.13.75-.07.33.46.69l2.37.96c0-2.62.26-7.01-.07-9.41-.59-4.31-1.91-4.87-6.05-4.87-1.97,0-2.83.54-3.95.56v-2.6h11.12v-2.23h-18.16c0-3.25-.66-6.85-1.84-9.09h-3.68c.66,1.23,1.45,2.46,1.78,3.95.39,1.56.59,3.29.59,5.14M162.7,49.21c-2.63,0-4.61-3.93-1.84-7.2,1.25-1.44,3.82-2.93,6.05-2.08,3.88,1.46,1.91,4.89-.13,6.91-.53.56-.92,1.04-1.64,1.48-.46.27-1.84.89-2.43.89ZM144.54,49.21c-1.38,0-2.17-.21-2.83-1.12.72-2.96,4.74-5.12,8.68-3.81.86.29,1.45.54,1.91,1.21-.26,1.12-2.11,2.21-3.09,2.66-1.38.58-2.83,1.06-4.67,1.06ZM179.74,49.21c-5.13,0-1.78-3.62.53-4.7,3.22-1.56,7.24.04,7.24,1.16,0,1.23-4.34,3.54-7.76,3.54ZM19.01,34.17c0,8.74,14.28,7.03,14.28,11.49,0,1.31-.59,2.52-1.18,3.27-.79.96-2.24,1.37-3.62,1.37-4.28,0-7.11-5.56-10.39-5.56v2.23c2.63.62,2.7,1.62,4.54,3.04,2.17,1.71,2.5,2.52,6.18,2.52,8.42,0,11.18-10.17,1.64-13.71l-4.74-1.54c-.79-.25-1.58-.48-2.24-.9-3.36-2.04-.13-8.72,7.57-4.06,3.61,2.17,3.62,2.64,6.03,2.74h0s.14,0,.14,0h.15s0,0,0,0l2.53.02v3.89c0,1.02-.72-.1-.72,2.23.99-.08,6.64-3.02,9.47-.96.86.6.72.79.72,2.08-1.84-.42-.99-.92-4.28-.92s-7.57,2.64-7.57,5.56c0,2.21,2.96,4.27,5.33,4.27,1.78,0,2.5.06,4.14-.54,1.32-.48,1.51-.89,2.37-.94.07.85-.2.35.39.71l2.37.94c0-3,.66-10.68-1.18-12.92-1.97-2.46-7.17-.94-8.82-.81v-2.6h11.14v-2.23l-16.21-.02v.02h-.31c-3.62,0-5.2-5.62-12.63-4.1-.99.21-1.78.5-2.5.98-1.38.92-2.63,2.18-2.63,4.43M41.62,49.21c-1.38,0-2.17-.21-2.83-1.12.72-2.96,4.74-5.12,8.68-3.81.86.29,1.45.54,1.91,1.21-.26,1.12-2.11,2.21-3.09,2.66-1.38.58-2.83,1.06-4.67,1.06ZM55.33,37.13c3.09,0,2.96-.23,2.96.92,2.37-1.58,6.18-1.14,7.83,1.31.72-.52.99-1.08,1.97-1.54,4.61-2.23,8.95,1.35,8.95,5.06v8.36h-2.76v-7.99c0-.94-.53-1.85-.99-2.35-1.05-1.02-2.43-1.23-3.82-.56-.46.21-.72.46-1.05.81-.53.64-.86,1.52-.86,2.66v7.43h-2.76v-7.99c0-3-3.75-4.6-5.92-2-.72.92-.59,1.58-.59,3.12v5.58c.07,1.54.26,1.29-2.96,1.29v-14.11ZM81.12,37.13h2.76v.92c2.83-1.5,6.32-1.23,7.96,1.31.79-.52.99-1.02,1.97-1.56,3.88-2.06,9.01.75,9.01,5.26v8.18h-2.83v-7.62c0-1.39-.46-2.35-1.45-3-1.12-.79-2.04-.89-3.29-.27l-.92.6s-.07.08-.07.1c-.59.62-.92,1.37-.92,2.58v7.62h-2.76v-7.99c0-4.31-6.71-4.58-6.71.56v7.43h-2.76v-14.11ZM109.08,41.58v-3.89h-2.76v22.27c1.12.25,1.84,1.08,2.76,1.29v-13.92c.92.46,1.58,1.31,2.76,2.25,2.96,2.35,5.66,2.14,8.42-.52,5.33-5.12-.46-12.13-4.47-12.13-2.3,0-5.53,3.29-6.71,4.64M117.83,39.37c3.62,0,4.01,5.62-.86,8.22-1.97,1.06-4.67,1.04-6.32-.29-3.03-2.41,4.34-7.93,7.17-7.93ZM128.55,38.81c2.76-1.46,2.63-1.67,5.92-1.67,2.89,0,7.5,4.33.92,7.8-.66-1.02-2.17-2.27-2.37-2.96,5.66-1.33,2.76-5.54-.72-3.35-4.74,2.96-3.75,7.91-3.75,13.19-.46-.13-3.29-1.41-3.29-2.04v-12.07h3.29v1.12M2.11,23.77h1.51v36h-1.51V23.77ZM201.78,23.77h1.51v36h-1.51V23.77ZM6.78,23.77h1.45v36h-1.45V23.77ZM206.45,23.77h1.45v35.44c0,.42-.13.56-.53.56h-.92V23.77ZM74.09,34.08c0,.89-.72,1.61-1.61,1.61s-1.61-.72-1.61-1.61.72-1.61,1.61-1.61,1.61.72,1.61,1.61ZM99,34.08c0,.89-.72,1.61-1.61,1.61s-1.61-.72-1.61-1.61.72-1.61,1.61-1.61,1.61.72,1.61,1.61Z"/>
    </g>
  </g>
</svg>