<?xml version="1.0" encoding="UTF-8"?>
<svg id="Layer_2" data-name="Layer 2" xmlns="http://www.w3.org/2000/svg" xmlns:xlink="http://www.w3.org/1999/xlink" viewBox="0 0 210 100">
  <defs>
    <style>
      .cls-1 {
        fill: url(#radial-gradient);
      }

      .cls-2 {
        fill: url(#radial-gradient-3);
      }

      .cls-3 {
        fill: url(#radial-gradient-2);
      }

      .cls-4 {
        opacity: 0;
      }

      .cls-5 {
        fill: url(#radial-gradient-4);
      }
    </style>
    <radialGradient id="radial-gradient" cx="27" cy="59.38" fx="27" fy="59.38" r="16.03" gradientUnits="userSpaceOnUse">
      <stop offset="0" stop-color="#f4e26c"/>
      <stop offset="1" stop-color="#d4a63e"/>
    </radialGradient>
    <radialGradient id="radial-gradient-2" cx="19.99" cy="57.56" fx="19.99" fy="57.56" r="16.72" gradientUnits="userSpaceOnUse">
      <stop offset=".18" stop-color="#397b31"/>
      <stop offset="1" stop-color="#1c5028"/>
    </radialGradient>
    <radialGradient id="radial-gradient-3" cx="17.42" cy="52.36" fx="17.42" fy="52.36" r="19.66" xlink:href="#radial-gradient-2"/>
    <radialGradient id="radial-gradient-4" cx="131.83" cy="50.17" fx="131.83" fy="50.17" r="55.95" xlink:href="#radial-gradient-2"/>
  </defs>
  <g id="Layer_1-2" data-name="Layer 1">
    <rect class="cls-4" width="210" height="100"/>
    <g>
      <g>
        <path class="cls-1" d="M46.51,67.25c-.32,3.46-1.39,6.83-3.38,9.88-3.5,5.34-9.45,9.4-16,9.31-3.82-.05-6.66-1.55-7.79-2.16-1.5-.8-5.49-3.01-7.62-7.8-1.07-2.42-1.28-4.62-1.3-5.95.32,1.39,1.08,3.8,2.97,6.18,3.13,3.92,7.23,5.06,8.36,5.36,6.86,1.81,13.44-1.46,16.29-4.55,2.59-2.8,3.38-5.93,3.58-6.72.53-2.14,1-5.68-.21-7.65.79,5.85-1.73,11.67-6.51,15.07-5.77,4.1-12.56,3.05-16.3,1.22-1.77-.87-2.95-1.96-3.33-2.32-.81-.78-3.81-3.68-3.79-7.92,0-2.22.84-3.84,1.5-5.13,1.08-2.11,2.69-3.94,4.74-5.34.6-.41,1.45-.79,2.01-1.18,3.88-2.69,7.44-6.3,7.89-11.24.06-.25.04-.43-.05-.57-.58-.88-4.14.57-4.53.73-1.57.65-4.03,2.01-6.43,5.1,2.22-2.5,4.88-6.01,7.17-10.59,3.03-6.05,4.24-11.6,4.76-15.47.47,1.79,1.34,4.71,2.9,8.09,4.76,10.32,9.82,11.75,13.24,21,2.44,6.6,1.93,11.54,1.83,12.64Z"/>
        <path class="cls-3" d="M28.56,44.99c-.29,1.08-.78,2.6-1.61,4.34-.73,1.55-1.7,3.58-3.57,5.47-1.21,1.22-2.69,2.07-4.13,2.98-2.04,1.28-3.97,2.88-5.42,4.84-1.68,2.29-2.26,4.7-2.42,7.51.1-2.79.75-9.34,5.44-15.4,2.13-2.75,4.48-4.6,6.32-5.8-1.46.71-3.32,1.78-5.24,3.4-1.92,1.61-3.29,3.26-4.24,4.57.58-1.5,1.3-2.95,2.19-4.29.34-.52,1.52-2.21,3.13-3.63,3.42-3.01,7.62-3.75,9.54-3.97Z"/>
        <path class="cls-2" d="M27.01,25.27c-.32,4.6-1.81,7.89-3.66,11.88-1.4,3.02-2.29,4.31-5.25,9.22-5.32,8.83-7.99,13.3-8.58,15.77-.53,2.19-2.11,8.79,1.4,15.4,2.91,5.49,7.74,7.99,9.65,8.86-2.25-.59-6.52-2.05-10.33-5.79-6.64-6.53-6.88-15.12-6.83-17.61.05-2.94.63-5.16.97-6.41,1.55-5.76,4.1-8.12,7.29-13.13,7.32-11.47,13.39-29.51,13.43-29.85,0-.02,0-.04.02-.04.11-.03.6,1.52.76,2.02,1.48,4.69,1.13,9.69,1.13,9.69Z"/>
      </g>
      <path class="cls-5" d="M78.79,40.56c0,1.84-.64,3.4-1.93,4.7-1.29,1.3-2.85,1.95-4.69,1.95h-15.11c0-1,.35-1.86,1.07-2.57.71-.71,1.57-1.07,2.57-1.07h11.47c.83,0,1.54-.29,2.13-.88s.88-1.3.88-2.13-.29-1.54-.88-2.13-1.3-.88-2.13-.88h-8.45c-1.84,0-3.41-.64-4.72-1.93-.48-.5-.88-1.06-1.21-1.67-.48-.94-.72-1.95-.72-3.05,0-1.84.65-3.4,1.95-4.69,1.3-1.29,2.87-1.93,4.7-1.93h15.07c0,1.01-.35,1.86-1.05,2.56-.7.7-1.55,1.05-2.56,1.05h-11.47c-.83,0-1.54.29-2.13.88-.59.59-.88,1.3-.88,2.13s.29,1.57.88,2.16c.59.59,1.3.88,2.13.88h8.45c1.84,0,3.4.65,4.69,1.93.5.5.91,1.06,1.21,1.67.48.94.72,1.94.72,3.01ZM96.09,38.75c.02.2.03.39.03.59v7.87h-2.39c-.68,0-1.08-.41-1.21-1.25-1.27.83-2.68,1.25-4.23,1.25-2.18,0-4.04-.76-5.57-2.29-1.46-1.49-2.23-3.34-2.29-5.57.07-2.21.84-4.05,2.31-5.52,1.47-1.47,3.31-2.24,5.52-2.31,2.23.04,4.09.81,5.57,2.29,1.33,1.33,2.09,2.98,2.26,4.95ZM88.36,43.57c1.16-.04,2.12-.45,2.9-1.23.78-.78,1.2-1.74,1.26-2.9-.02-1.22-.44-2.25-1.25-3.08-.83-.83-1.82-1.25-2.98-1.25s-2.18.42-3.01,1.25c-.81.83-1.21,1.82-1.21,2.98s.4,2.19,1.21,3.01c.83.81,1.86,1.21,3.08,1.21ZM114.12,31.51c1.88.07,3.45.74,4.7,2.03,1.26,1.29,1.88,2.85,1.88,4.69v8.98c-1.01,0-1.86-.36-2.56-1.07-.7-.71-1.05-1.57-1.05-2.57v-5.41c0-.85-.29-1.57-.88-2.15-.59-.58-1.32-.88-2.2-.9-.85.04-1.56.36-2.13.95-.57.59-.85,1.3-.85,2.13v9.01h-3.6v-9.04c0-.85-.29-1.57-.88-2.15-.59-.58-1.32-.88-2.2-.9-.83.04-1.53.36-2.1.95-.57.59-.85,1.3-.85,2.13v5.37c0,1-.36,1.86-1.07,2.57-.71.71-1.57,1.07-2.57,1.07v-8.98c0-1.84.63-3.4,1.9-4.69,1.27-1.29,2.84-1.97,4.72-2.03,1.97.04,3.58.73,4.85,2.06,1.27-1.33,2.89-2.02,4.88-2.06ZM130.8,31.54v3.64c-.2-.04-.39-.07-.59-.07-1.18,0-2.18.42-3.01,1.25-.81.83-1.21,1.82-1.21,2.98v7.87h-3.64v-7.87c0-1.38.33-2.64.98-3.8.66-1.16,1.54-2.09,2.65-2.79,1.25-.83,2.65-1.25,4.23-1.25.2,0,.39.01.59.03ZM148.13,39.34c0,2.19-.76,4.04-2.29,5.57-.39.39-.83.74-1.31,1.05-1.27.83-2.68,1.25-4.23,1.25s-2.98-.41-4.23-1.25c-1.11-.7-2-1.63-2.65-2.79-.66-1.16-.98-2.44-.98-3.83v-7.83c1,0,1.86.36,2.57,1.06.71.71,1.07,1.56,1.07,2.54v4.23c0,1.18.4,2.19,1.21,3.01.83.81,1.84,1.21,3.01,1.21s2.15-.4,2.98-1.21c.83-.83,1.25-1.84,1.25-3.01v-4.23c0-.98.35-1.83,1.05-2.54.7-.71,1.55-1.06,2.56-1.06v7.83ZM157.64,31.51c1.55,0,2.96.42,4.23,1.25v-6.69c0-.5.17-.93.52-1.28.35-.35.78-.52,1.28-.52h1.8v15.7h-.03c-.2,2.08-1.03,3.8-2.51,5.18-1.47,1.38-3.24,2.06-5.29,2.06-2.18,0-4.04-.76-5.57-2.29-1.53-1.53-2.29-3.39-2.29-5.57s.76-4.01,2.29-5.54c1.53-1.53,3.39-2.29,5.57-2.29ZM154.64,42.34c.82.82,1.82,1.23,3,1.23s2.15-.41,2.98-1.23c.83-.82,1.25-1.82,1.25-3s-.42-2.15-1.25-2.98c-.83-.83-1.82-1.25-2.98-1.25s-2.18.42-3,1.25c-.82.83-1.23,1.82-1.23,2.98s.41,2.18,1.23,3ZM174.97,31.51c1.55,0,2.96.42,4.23,1.25v-6.69c0-.5.17-.93.52-1.28.35-.35.78-.52,1.28-.52h1.8v15.7h-.03c-.2,2.08-1.03,3.8-2.51,5.18-1.47,1.38-3.24,2.06-5.29,2.06-2.18,0-4.04-.76-5.57-2.29-1.53-1.53-2.29-3.39-2.29-5.57s.76-4.01,2.29-5.54c1.53-1.53,3.39-2.29,5.57-2.29ZM171.97,42.34c.82.82,1.82,1.23,3,1.23s2.15-.41,2.98-1.23c.83-.82,1.25-1.82,1.25-3s-.42-2.15-1.25-2.98c-.83-.83-1.82-1.25-2.98-1.25s-2.18.42-3,1.25c-.82.83-1.23,1.82-1.23,2.98s.41,2.18,1.23,3ZM200.14,47.21h-3.6v-7.87c0-1.16-.42-2.15-1.25-2.98-.83-.83-1.82-1.25-2.98-1.25s-2.18.42-3.01,1.25c-.81.83-1.21,1.82-1.21,2.98v7.87h-3.64v-22.94h3.64v8.49c1.25-.83,2.65-1.25,4.23-1.25s2.96.42,4.23,1.25c.48.31.92.66,1.31,1.05,1.42,1.42,2.18,3.2,2.29,5.34v8.06ZM205.89,28.38c-.47.47-1.03.7-1.69.7s-1.25-.23-1.72-.7c-.47-.47-.7-1.04-.7-1.72s.23-1.22.7-1.69c.47-.47,1.04-.7,1.72-.7s1.22.24,1.69.7c.47.47.7,1.03.7,1.69s-.23,1.25-.7,1.72ZM206,31.51v13.89c0,.5-.18.93-.52,1.28-.35.35-.78.52-1.28.52h-1.84v-13.89c0-.5.18-.93.54-1.28.36-.35.79-.52,1.29-.52h1.8ZM91.16,56.3c2.12,2.12,3.18,4.68,3.18,7.67v12.09c-.98,0-1.83-.36-2.54-1.07-.71-.71-1.07-1.57-1.07-2.57v-8.46c0-1.99-.71-3.69-2.13-5.11-1.42-1.42-3.12-2.13-5.11-2.13s-3.72.71-5.13,2.13c-1.41,1.42-2.11,3.12-2.11,5.11v8.46c0,1-.36,1.86-1.07,2.57s-1.57,1.07-2.57,1.07v-12.09c0-2.99,1.06-5.55,3.18-7.67,2.12-2.12,4.69-3.18,7.7-3.18s5.55,1.06,7.67,3.18ZM111.64,67.61c.02.2.03.39.03.59v7.87h-2.39c-.68,0-1.08-.41-1.21-1.25-1.27.83-2.68,1.25-4.23,1.25-2.19,0-4.04-.76-5.57-2.29-1.46-1.49-2.23-3.34-2.29-5.57.07-2.21.84-4.05,2.31-5.52,1.47-1.47,3.31-2.24,5.52-2.31,2.23.04,4.09.81,5.57,2.29,1.33,1.33,2.09,2.98,2.26,4.95ZM103.91,72.42c1.16-.04,2.12-.45,2.9-1.23s1.2-1.74,1.26-2.9c-.02-1.22-.44-2.25-1.25-3.08-.83-.83-1.82-1.25-2.98-1.25s-2.19.42-3.01,1.25c-.81.83-1.21,1.82-1.21,2.98s.4,2.19,1.21,3.01c.83.81,1.86,1.21,3.08,1.21ZM116.95,66.39v3.01c0,.22.01.43.03.62.13.59.41,1.09.85,1.51.41.44.92.72,1.51.85v3.64c-1.62-.17-2.98-.81-4.1-1.9-1.29-1.31-1.93-2.88-1.93-4.72v-16.29h1.8c.5,0,.93.18,1.29.52.36.35.54.78.54,1.28v5.44h2.39v3.6h-2.39v2.43ZM136.68,68.2c0,2.19-.76,4.04-2.29,5.57-.39.39-.83.74-1.31,1.05-1.27.83-2.68,1.25-4.23,1.25s-2.98-.41-4.23-1.25c-1.11-.7-2-1.63-2.65-2.79s-.98-2.44-.98-3.83v-7.83c1,0,1.86.36,2.57,1.06.71.71,1.07,1.56,1.07,2.54v4.23c0,1.18.4,2.19,1.21,3.01.83.81,1.84,1.21,3.01,1.21s2.15-.4,2.98-1.21c.83-.83,1.25-1.84,1.25-3.01v-4.23c0-.98.35-1.83,1.05-2.54.7-.71,1.55-1.06,2.56-1.06v7.83ZM146.77,60.4v3.64c-.2-.04-.39-.07-.59-.07-1.18,0-2.19.42-3.01,1.25-.81.83-1.21,1.82-1.21,2.98v7.87h-3.64v-7.87c0-1.38.33-2.64.98-3.8.66-1.16,1.54-2.09,2.65-2.79,1.25-.83,2.65-1.25,4.23-1.25.2,0,.39.01.59.03ZM164.07,67.61c.02.2.03.39.03.59v7.87h-2.39c-.68,0-1.08-.41-1.21-1.25-1.27.83-2.68,1.25-4.23,1.25-2.19,0-4.04-.76-5.57-2.29-1.46-1.49-2.23-3.34-2.29-5.57.07-2.21.84-4.05,2.31-5.52,1.47-1.47,3.31-2.24,5.52-2.31,2.23.04,4.09.81,5.57,2.29,1.33,1.33,2.09,2.98,2.26,4.95ZM156.34,72.42c1.16-.04,2.12-.45,2.9-1.23s1.2-1.74,1.26-2.9c-.02-1.22-.44-2.25-1.25-3.08-.83-.83-1.82-1.25-2.98-1.25s-2.19.42-3.01,1.25c-.81.83-1.21,1.82-1.21,2.98s.4,2.19,1.21,3.01c.83.81,1.86,1.21,3.08,1.21ZM171.77,72.39v3.64c-1.62-.17-2.98-.81-4.1-1.9-1.29-1.31-1.93-2.88-1.93-4.72v-16.29h3.64v16.29c0,.22.01.43.03.62.13.59.41,1.09.85,1.51.41.44.92.72,1.51.85ZM177.05,65.21c0,.35.12.63.36.85.24.22.52.33.85.33h6.03c1.11,0,2.1.34,2.95,1.02s1.42,1.55,1.7,2.62c.11.39.16.8.16,1.21,0,1.33-.47,2.47-1.41,3.41s-2.08,1.41-3.41,1.41h-10.88v-1.8c0-.5.17-.93.52-1.29.35-.36.78-.54,1.28-.54h9.04c.33,0,.61-.11.85-.33.24-.22.37-.5.39-.85-.02-.35-.14-.63-.36-.85-.24-.24-.52-.36-.85-.36h-6.06c-1.33,0-2.47-.47-3.41-1.41-.61-.61-1.03-1.35-1.25-2.23-.11-.37-.16-.76-.16-1.18.04-1.38.54-2.53,1.47-3.46.94-.93,2.08-1.39,3.41-1.39h10.81v1.8c0,.5-.17.93-.52,1.28s-.78.52-1.28.52h-9.08c-.33,0-.61.12-.85.36-.22.24-.33.54-.33.88Z"/>
    </g>
  </g>
</svg>