<?xml version="1.0" encoding="UTF-8"?>
<svg id="Layer_2" data-name="Layer 2" xmlns="http://www.w3.org/2000/svg" xmlns:xlink="http://www.w3.org/1999/xlink" viewBox="0 0 210 100">
  <defs>
    <style>
      .cls-1 {
        fill: #a356b6;
      }

      .cls-2 {
        fill: #052244;
      }

      .cls-3 {
        opacity: 0;
      }

      .cls-4 {
        fill: url(#linear-gradient);
      }
    </style>
    <linearGradient id="linear-gradient" x1="1859.92" y1="8197.31" x2="1864.14" y2="8193.09" gradientTransform="translate(6834.21 4968.32) rotate(138.62)" gradientUnits="userSpaceOnUse">
      <stop offset="0" stop-color="#a356b6"/>
      <stop offset="1" stop-color="#052244"/>
    </linearGradient>
  </defs>
  <g id="Layer_1-2" data-name="Layer 1">
    <rect class="cls-3" width="210" height="100"/>
    <g>
      <g>
        <path class="cls-1" d="M48.37,41.06c-.1-2.09-1.35-3.12-3.85-3.12-2.36,0-3.51.91-3.51,2.45,0,1.15.64,1.72,1.59,2.13,1.72.74,3.63.69,5.5,1.32,1.79.61,3.19,1.77,3.19,4.22,0,3.24-2.4,5.03-6.33,5.03s-6.67-1.77-6.75-5.45h2.53c.05,2.13,1.72,3.34,4.22,3.34,2.36,0,3.78-1.06,3.78-2.85,0-1.03-.47-1.74-1.72-2.23-1.55-.61-3.46-.59-5.37-1.3-2.09-.79-3.04-2.04-3.04-4.05,0-2.85,1.94-4.86,5.84-4.86s6.35,2.09,6.4,5.35h-2.48Z"/>
        <path class="cls-1" d="M63.26,52.54v-7.63h-7.61v7.63h-2.63v-16.29h2.63v6.45h7.61v-6.45h2.65v16.29h-2.65Z"/>
        <path class="cls-1" d="M67.83,44.54c0-5.52,2.77-8.83,7.66-8.83s7.58,3.31,7.58,8.91-2.75,8.49-7.56,8.49-7.68-3.07-7.68-8.56ZM80.46,44.52c0-4.12-1.77-6.48-5.01-6.48s-5.03,2.36-5.03,6.53,1.86,6.31,4.98,6.31,5.05-1.94,5.05-6.35Z"/>
        <path class="cls-1" d="M85,52.54v-16.29h7.7c3.19,0,4.78,1.77,4.78,4.15,0,1.99-1.13,2.99-2.28,3.34,1.32.39,2.77,1.45,2.77,4.02,0,2.97-1.94,4.78-5.94,4.78h-7.04ZM87.53,38.43v4.44h4.93c1.64,0,2.5-.79,2.5-2.26s-.79-2.18-2.72-2.18h-4.71ZM92.24,50.4c2.09,0,3.19-1.15,3.19-2.87s-1.15-2.53-2.92-2.53h-4.98v5.4h4.71Z"/>
        <path class="cls-1" d="M109.78,52.54v-7.63h-7.61v7.63h-2.63v-16.29h2.63v6.45h7.61v-6.45h2.65v16.29h-2.65Z"/>
        <path class="cls-1" d="M126.32,52.54l-1.25-3.66h-6.89l-1.35,3.66h-2.77l6.11-16.29h2.99l6.01,16.29h-2.85ZM121.61,39.12l-2.72,7.61h5.42l-2.7-7.61Z"/>
        <path class="cls-1" d="M142.12,52.54v-14.08h-5.15v-2.21h12.93v2.21h-5.15v14.08h-2.63Z"/>
        <path class="cls-1" d="M161.57,52.54v-4.22c0-1.69-.64-2.48-2.97-2.48h-4.44v6.7h-2.55v-16.29h8.05c2.97,0,4.88,1.94,4.88,4.56,0,1.94-1.03,3.46-2.82,3.93,1.74.37,2.4,1.28,2.4,3.26v4.54h-2.55ZM159.07,43.71c2.18,0,3.02-1.18,3.02-2.65,0-1.57-.91-2.63-2.85-2.63h-5.08v5.28h4.91Z"/>
        <path class="cls-1" d="M176.51,36.25h2.67v10.87c0,3.95-2.4,5.99-6.5,5.99s-6.31-1.86-6.31-5.79v-11.07h2.67v10.84c0,2.43,1.25,3.85,3.73,3.85,2.33,0,3.73-1.28,3.73-3.83v-10.87Z"/>
        <path class="cls-1" d="M191.09,41.06c-.1-2.09-1.35-3.12-3.85-3.12-2.36,0-3.51.91-3.51,2.45,0,1.15.64,1.72,1.59,2.13,1.72.74,3.63.69,5.5,1.32,1.79.61,3.19,1.77,3.19,4.22,0,3.24-2.4,5.03-6.33,5.03s-6.67-1.77-6.75-5.45h2.53c.05,2.13,1.72,3.34,4.22,3.34,2.36,0,3.78-1.06,3.78-2.85,0-1.03-.47-1.74-1.72-2.23-1.55-.61-3.46-.59-5.37-1.3-2.09-.79-3.04-2.04-3.04-4.05,0-2.85,1.94-4.86,5.84-4.86s6.35,2.09,6.4,5.35h-2.48Z"/>
        <path class="cls-1" d="M200.43,52.54v-14.08h-5.15v-2.21h12.93v2.21h-5.15v14.08h-2.63Z"/>
      </g>
      <g>
        <path class="cls-2" d="M38.15,63.68l1.44-8.16h5.7l-.14.77h-4.81l-.48,2.72h4.47l-.14.77h-4.47l-.55,3.11h4.99l-.14.79h-5.89Z"/>
        <path class="cls-2" d="M47.56,63.68l-1.35-6.05h.95l1.06,4.93,2.77-4.93h.95l-3.47,6.05h-.9Z"/>
        <path class="cls-2" d="M53.5,60.86c-.02.2-.02.41-.02.61,0,1.09.57,1.68,1.62,1.68.8,0,1.51-.45,1.88-1.25h.9c-.57,1.24-1.63,1.94-2.86,1.94-1.6,0-2.4-.84-2.4-2.46,0-2.48,1.35-3.91,3.43-3.91,1.45,0,2.2.87,2.2,2.37,0,.31-.04.65-.1,1.01h-4.65ZM57.36,60.29c.04-.23.06-.44.06-.64,0-1.04-.6-1.47-1.52-1.47-1.17,0-2.04.61-2.32,2.11h3.79Z"/>
        <path class="cls-2" d="M59.2,63.68l1.07-6.05h.81l-.26,1.43c.65-1.25,1.63-1.59,2.47-1.59h.33l-.16.88c-.11-.01-.26-.02-.43-.02-1.39,0-2.22,1.03-2.43,2.26l-.54,3.09h-.86Z"/>
        <path class="cls-2" d="M68.57,62.51c-.28.64-1.03,1.23-2.27,1.23-1.13,0-1.91-.58-1.91-1.77,0-.18.02-.38.06-.59l.66-3.75h.86l-.64,3.64c-.05.25-.07.45-.06.64,0,.93.53,1.13,1.34,1.13,1.2,0,1.97-.6,2.18-1.78l.64-3.63h.86l-1.09,6.16c-.32,1.77-1.59,2.75-3.12,2.75-1.44,0-2.2-.74-2.2-1.95,0-.18.01-.37.05-.58h.81c-.04.18-.05.36-.05.5,0,.95.6,1.28,1.56,1.28,1.02,0,1.86-.71,2.09-1.99l.23-1.29Z"/>
        <path class="cls-2" d="M74.6,63.68l1.44-8.16h.92l-1.3,7.36h4.55l-.14.8h-5.47Z"/>
        <path class="cls-2" d="M81.56,63.68l1.07-6.05h.86l-1.07,6.05h-.86ZM82.75,56.91l.26-1.49h.86l-.26,1.49h-.86Z"/>
        <path class="cls-2" d="M84.74,63.68l.96-5.42h-.85l.11-.63h.85c.26-1.47,1.19-2.21,2.83-2.21l-.12.71c-1.17,0-1.68.48-1.86,1.5h1.63l-.11.63h-1.63l-.96,5.42h-.85Z"/>
        <path class="cls-2" d="M89.82,60.86c-.02.2-.02.41-.02.61,0,1.09.57,1.68,1.62,1.68.8,0,1.51-.45,1.88-1.25h.9c-.57,1.24-1.63,1.94-2.86,1.94-1.6,0-2.4-.84-2.4-2.46,0-2.48,1.35-3.91,3.43-3.91,1.45,0,2.2.87,2.2,2.37,0,.31-.04.65-.1,1.01h-4.65ZM93.68,60.29c.04-.23.06-.44.06-.64,0-1.04-.6-1.47-1.52-1.47-1.17,0-2.04.61-2.32,2.11h3.79Z"/>
        <path class="cls-2" d="M99.19,63.68l1.44-8.16h3c1.82,0,2.99,1.22,2.99,3.21,0,2.79-1.82,4.95-4.18,4.95h-3.24ZM102.39,62.93c2.04,0,3.28-1.79,3.28-4.19,0-1.83-.81-2.45-2.3-2.45h-1.99l-1.17,6.64h2.18Z"/>
        <path class="cls-2" d="M108.55,60.86c-.02.2-.02.41-.02.61,0,1.09.57,1.68,1.62,1.68.8,0,1.51-.45,1.88-1.25h.9c-.57,1.24-1.63,1.94-2.86,1.94-1.6,0-2.4-.84-2.4-2.46,0-2.48,1.35-3.91,3.43-3.91,1.45,0,2.2.87,2.2,2.37,0,.31-.04.65-.1,1.01h-4.65ZM112.41,60.29c.04-.23.06-.44.06-.64,0-1.04-.6-1.47-1.52-1.47-1.17,0-2.04.61-2.32,2.11h3.79Z"/>
        <path class="cls-2" d="M119.07,59.47c.01-.11.01-.21.01-.29,0-.76-.42-1.03-1.47-1.03s-1.73.3-1.73,1.13c0,.66.45.76,1.46.95,1.44.26,2.32.42,2.32,1.57s-1.01,2.05-2.9,2.05c-1.54,0-2.4-.68-2.4-1.76,0-.11,0-.22.02-.34h.89c-.01.1-.02.18-.02.27,0,.82.59,1.17,1.61,1.17,1.49,0,1.98-.79,1.98-1.33,0-.68-.82-.81-1.68-.98-1.59-.31-2.13-.68-2.13-1.57,0-1,.97-1.82,2.69-1.82,1.61,0,2.2.59,2.2,1.6,0,.12-.01.26-.02.39h-.82Z"/>
        <path class="cls-2" d="M122,60.86c-.02.2-.02.41-.02.61,0,1.09.57,1.68,1.62,1.68.8,0,1.51-.45,1.88-1.25h.9c-.57,1.24-1.63,1.94-2.86,1.94-1.6,0-2.4-.84-2.4-2.46,0-2.48,1.35-3.91,3.43-3.91,1.45,0,2.2.87,2.2,2.37,0,.31-.04.65-.1,1.01h-4.65ZM125.86,60.29c.04-.23.06-.44.06-.64,0-1.04-.6-1.47-1.52-1.47-1.17,0-2.04.61-2.32,2.11h3.79Z"/>
        <path class="cls-2" d="M127.7,63.68l1.07-6.05h.81l-.26,1.43c.65-1.25,1.63-1.59,2.47-1.59h.33l-.16.88c-.11-.01-.26-.02-.43-.02-1.39,0-2.22,1.03-2.43,2.26l-.54,3.09h-.86Z"/>
        <path class="cls-2" d="M134.62,63.68l-1.35-6.05h.95l1.06,4.93,2.77-4.93h.95l-3.47,6.05h-.9Z"/>
        <path class="cls-2" d="M140.56,60.86c-.02.2-.02.41-.02.61,0,1.09.57,1.68,1.62,1.68.8,0,1.51-.45,1.88-1.25h.9c-.57,1.24-1.63,1.94-2.86,1.94-1.6,0-2.4-.84-2.4-2.46,0-2.48,1.35-3.91,3.43-3.91,1.45,0,2.2.87,2.2,2.37,0,.31-.04.65-.1,1.01h-4.65ZM144.42,60.29c.04-.23.06-.44.06-.64,0-1.04-.6-1.47-1.52-1.47-1.17,0-2.04.61-2.32,2.11h3.79Z"/>
        <path class="cls-2" d="M151.08,59.47c.01-.11.01-.21.01-.29,0-.76-.42-1.03-1.47-1.03s-1.73.3-1.73,1.13c0,.66.45.76,1.46.95,1.44.26,2.32.42,2.32,1.57s-1.01,2.05-2.9,2.05c-1.54,0-2.4-.68-2.4-1.76,0-.11,0-.22.02-.34h.89c-.01.1-.02.18-.02.27,0,.82.59,1.17,1.61,1.17,1.49,0,1.98-.79,1.98-1.33,0-.68-.82-.81-1.68-.98-1.59-.31-2.13-.68-2.13-1.57,0-1,.97-1.82,2.69-1.82,1.61,0,2.2.59,2.2,1.6,0,.12-.01.26-.02.39h-.82Z"/>
        <path class="cls-2" d="M160.69,63.68c0-.09.14-1.01.15-1.11-.42.73-1.39,1.27-2.47,1.27-1.27,0-1.79-.55-1.79-1.38,0-1.78,1.12-2.1,3-2.3,1.04-.11,1.65-.2,1.77-.57.02-.16.04-.31.04-.44,0-.72-.43-1.01-1.4-1.01-1.17,0-1.72.55-1.92,1.45h-.81c.25-1.25,1.04-2.13,2.89-2.13,1.52,0,2.11.6,2.11,1.67,0,.22-.02.45-.07.71l-.68,3.82h-.81ZM161.22,60.4c-.22.23-.81.25-1.73.36-1.4.17-2.03.43-2.03,1.54,0,.65.36.91,1.2.91,1.02,0,2.1-.65,2.36-1.72l.2-1.08Z"/>
        <path class="cls-2" d="M174.2,60.88c-.65,1.86-2.09,3.09-3.88,3.09s-2.94-1.17-2.94-3.34c0-3.15,1.87-5.37,4.5-5.37,1.83,0,2.81,1.17,2.81,2.68,0,.09-.01.18-.01.27h-.92c0-1.44-.74-2.15-2.02-2.15-2.11,0-3.42,1.91-3.42,4.46,0,1.91.79,2.66,2.1,2.66s2.32-.87,2.85-2.29h.92Z"/>
        <path class="cls-2" d="M179.41,63.68l.68-3.82c.04-.25.05-.45.06-.63,0-.89-.5-1.06-1.33-1.06-1.51,0-2.14,1.39-2.37,2.7l-.49,2.8h-.86l1.45-8.26h.86l-.64,3.67c.48-1.13,1.54-1.62,2.45-1.62,1.12,0,1.83.44,1.83,1.55,0,.17-.01.36-.05.57l-.73,4.09h-.86Z"/>
        <path class="cls-2" d="M186.17,63.68c0-.09.14-1.01.15-1.11-.42.73-1.39,1.27-2.47,1.27-1.27,0-1.79-.55-1.79-1.38,0-1.78,1.12-2.1,3-2.3,1.04-.11,1.65-.2,1.77-.57.02-.16.04-.31.04-.44,0-.72-.43-1.01-1.4-1.01-1.17,0-1.72.55-1.92,1.45h-.81c.25-1.25,1.04-2.13,2.89-2.13,1.52,0,2.11.6,2.11,1.67,0,.22-.02.45-.07.71l-.68,3.82h-.81ZM186.7,60.4c-.22.23-.81.25-1.73.36-1.4.17-2.03.43-2.03,1.54,0,.65.36.91,1.2.91,1.02,0,2.1-.65,2.36-1.72l.2-1.08Z"/>
        <path class="cls-2" d="M193.04,63.68l.66-3.79c.04-.23.06-.44.06-.63,0-.87-.5-1.06-1.34-1.06-1.5,0-2.13,1.18-2.38,2.67l-.49,2.8h-.86l1.07-6.05h.82l-.27,1.51c.55-1.19,1.57-1.67,2.57-1.67,1.07,0,1.79.43,1.79,1.56,0,.18-.02.38-.06.6l-.71,4.04h-.86Z"/>
        <path class="cls-2" d="M201.17,61.49c-.42,1.4-1.66,2.35-3.05,2.35-1.32,0-2.16-.86-2.16-2.5,0-2.59,1.39-3.87,3.33-3.87,1.38,0,2.21.77,2.21,2.02,0,.1,0,.21-.01.31h-.87c0-.07.01-.14.01-.21,0-.97-.58-1.39-1.47-1.39-1.32,0-2.32.95-2.32,3.02,0,1.41.57,1.89,1.41,1.89.92,0,1.77-.61,2.05-1.62h.87Z"/>
        <path class="cls-2" d="M203.47,60.86c-.02.2-.02.41-.02.61,0,1.09.57,1.68,1.62,1.68.8,0,1.51-.45,1.88-1.25h.9c-.57,1.24-1.63,1.94-2.86,1.94-1.6,0-2.4-.84-2.4-2.46,0-2.48,1.35-3.91,3.43-3.91,1.45,0,2.2.87,2.2,2.37,0,.31-.04.65-.1,1.01h-4.65ZM207.33,60.29c.04-.23.06-.44.06-.64,0-1.04-.6-1.47-1.52-1.47-1.17,0-2.04.61-2.32,2.11h3.79Z"/>
      </g>
      <g>
        <path class="cls-1" d="M9.73,47.6c-.09-.8-.51-4.97,2.39-8.27,2.26-2.57,5.27-3.17,6.2-3.31,3.54-.55,4.43,1.24,7.58.6,2.73-.55,4.48-2.39,6.15-4.14,2.68-2.8,3.98-5.88,4.64-8.05.18,1.52.28,3.92-.42,6.72-.14.57-1.07,4.16-3.63,7.29-5.25,6.41-13.87,6.59-15.17,6.6,1.16-.48,5.17-2.21,4.93-3.29-.19-.86-2.99-1.16-5.17-.69-4.29.93-6.69,4.97-7.51,6.55Z"/>
        <path class="cls-2" d="M28.88,52.4c.09.8.51,4.97-2.39,8.27-2.26,2.57-5.27,3.17-6.2,3.31-3.54.55-4.43-1.24-7.58-.6-2.73.55-4.48,2.39-6.15,4.14-2.68,2.8-3.98,5.88-4.64,8.05-.18-1.52-.28-3.92.42-6.72.14-.57,1.07-4.16,3.63-7.29,5.25-6.41,13.87-6.59,15.17-6.6-1.16.48-5.17,2.21-4.93,3.29.19.86,2.99,1.16,5.17.69,4.29-.93,6.69-4.97,7.51-6.55Z"/>
        <circle class="cls-4" cx="19.52" cy="50.14" r="2.98"/>
      </g>
    </g>
  </g>
</svg>