<?xml version="1.0" encoding="UTF-8"?>
<svg id="Layer_2" data-name="Layer 2" xmlns="http://www.w3.org/2000/svg" xmlns:xlink="http://www.w3.org/1999/xlink" viewBox="0 0 210 100">
  <defs>
    <style>
      .cls-1 {
        fill: #7c7e7e;
      }

      .cls-1, .cls-2, .cls-3, .cls-4 {
        fill-rule: evenodd;
      }

      .cls-5, .cls-4 {
        fill: #454646;
      }

      .cls-6, .cls-2 {
        fill: #fff;
      }

      .cls-7, .cls-3 {
        fill: #606060;
      }

      .cls-8 {
        fill: #cdcecf;
      }

      .cls-9 {
        clip-path: url(#clippath-1);
      }

      .cls-10 {
        opacity: 0;
      }

      .cls-11 {
        clip-path: url(#clippath);
      }
    </style>
    <clipPath id="clippath">
      <polygon class="cls-7" points="55.56 65.79 204.67 65.79 199.02 72.91 47.59 72.91 55.56 65.79"/>
    </clipPath>
    <clipPath id="clippath-1">
      <rect class="cls-7" x="47.59" y="65.79" width="157.08" height="7.11"/>
    </clipPath>
  </defs>
  <g id="Layer_1-2" data-name="Layer 1">
    <rect class="cls-10" width="210" height="100"/>
    <g>
      <path class="cls-2" d="M30.3,25.03c13.79,0,24.97,11.18,24.97,24.97s-11.18,24.97-24.97,24.97S5.33,63.79,5.33,50s11.18-24.97,24.97-24.97"/>
      <path class="cls-3" d="M23.43,42.04c-.12.37-.24.77-.37,1.21-.06.18-.11.34-.18.48-.11.24-.24.43-.39.6-.11.13-.24.24-.39.35-.23.17-.5.33-.85.51-.03.01-.06.03-.08.04.11-.37.19-.81.15-1.26-.11-1.22-.36-1.79-.12-2.81.24-1.03.48-2.02.63-1.44.16.58.26.7.63,1.1.22.24.71.56.97,1.22"/>
      <path class="cls-3" d="M29.21,46.77s.3-.92,1.14-1.53c.85-.61,1.23-.87,1.47-1.09.25-.21.45-.23.44.37s-.17,1.1-.52,1.58-.65,1.24-.5,1.74c0,0-.95-1.11-2.04-1.07"/>
      <path class="cls-3" d="M34.25,53.95c-.02-.59-.14-.5-.3-.81-.16-.32-.01-.25-.22-.41-.21-.16-.12-.28-.2-.71s-.34-.63-.34-1.17c0-.55-.21-.82-.21-.82-.05.27-.3.45-.3.45.01-1.03-.59-1.33-.59-1.33.23.46-.05.83-.05.83.04-.44-.23-.67-.48-.97-.24-.3-.46-.69-.46-.69.04.36.17.75.17.75-.56-.6-.55-1.02-.55-1.02-.04.26,0,.65,0,.65-.39-.55-.48-1.13-.48-1.13-.05.43.05.77.05.77-.36-.45-.5-1.05-.5-1.05.05.65.19,1.02.19,1.02-.56-.42-.67-.93-.67-.93v.47c-.67-.65-.51-1.64-.56-2.55s0-1.91-.44-2.86c-.44-.94-.36-.43-.57,0s-.78.77-1.26,1.14-.72.99-.72,2.05c0,1.06-.41,1.32-.44,1.89-.03.57.22.59.61.85s.7.62.7.62c-.1-.66-.83-1.03-.99-1.32-.16-.29.23-.99.35-1.5.11-.51.47-.92.47-.92-.05.46-.2,1.01-.2,1.01.38-.39.72-.85.72-.85-.08.69-.45,1.76-.45,1.76.44-.32.97-1.22.97-1.22,0,.73-.36,1.52-.36,1.52.43-.24.99-.93.99-.93,0,0,.13.61-.23,1.16-.36.56-.81.88-.81.88.7-.26,1.28-.15,1.28-.15-.3.55-1.14.55-1.14.55.24.25.92.23.92.23-.5.3-1,.17-1,.17.22.32.46.42,1.28.26.82-.16,1.22.21,1.22.21-.74.51-2.08.27-2.08.27.14,1.23,2.14,2.4,2.48,2.84s.16,1.03.16,1.03c.19-.17.31-.54.31-.54.73,1.86,2.09,1.49,2.09,1.49-.37-.2-.54-.62-.54-.62.46.27.58.24,1.32.04.74-.2.9.42.9.42,0,0,.02-.26,0-.85M32.77,54.07c-.59-.07-1.63-.42-1.64-1.51,0,0-.13.15-.12.29,0,.14-.03.24-.12.26s-.2,0-.24-.09c0,0-.23-.78.54-1.26.77-.48,1.63-.14,1.84.31.21.44.06,1.06.31,1.33.25.27.47.31.47.5s-.43.24-1.03.17h0Z"/>
      <path class="cls-1" d="M32.69,52.4c-.01-.42-.5-.45-.5-.45.31.37.03.67-.13.67s-.3-.29-.43-.3c-.14-.01-.2.54.2.93.4.39,1.04.28,1.04.28-.2-.15-.16-.71-.17-1.13"/>
      <path class="cls-3" d="M30,57.93s.76-.99,1.65-.56c.89.43.97.97,1.99.97s1.88-.44,2.22-1.61c0,0-.21-.12-.49-.41s.08-.56.69-.54,1,.5.09.97c0,0-.19,1.12-1.31,1.74-1.12.62-1.97.13-2.57-.25-.6-.38-1.52-.52-2.27-.3"/>
      <path class="cls-3" d="M29.5,53.86c-.19-.66-.9-1.31-1.56-2.08s-.83-1.05-1.14-1.64c-.32-.59-.68-.91-1.43-1.39s-.58-1.13-.26-1.97c.32-.84.3-.89.28-1.98s1.17-1.68,1.76-2.66.1-1.8-.37-2.35c-.48-.55-.87-.51-1.21-1.23-.34-.72-.53-.04-.85,1.03-.32,1.08-.7,2.2-1.18,3.79-.48,1.59-1.39,1.89-3.25,2.83-1.86.95-2.01,1.58-1.98,2.09.03.52.08,1.12-.95,2.14s-2.91,1.34-2.91,1.34c1.31.23,1.97.94,1.7,1.61-.27.68-1.02.81-1.64.56-.62-.25-.82-.97-.53-1.13.28-.16.84-.01.93.34.08.35-.37.31-.37.31.74.4,1.29-.07,1.07-.54-.22-.47-1.08-.83-1.87-.75s-.62.98-.4,1.32c.22.34.66.89,1.1,1.46.44.57,1.09.43,2.13.85,1.04.43,1.96.23,2.5.02.54-.21.97-.51,1.07-.27.1.23-.35.62-1.61.91s-2.28-.21-2.75-.46c-.46-.25-.79.07-.25.67.54.6,1.47.81,2.32.74s1.25-.39,1.77.19c.52.58.22,1.1.22,1.1.58-.33.88-1.22.88-1.22-.08,1.59-1.27,3.02-1.27,3.02.81-.16,1.06-.74,1.06-.74-.03.63-.41,1.13-.41,1.13.57-.4.63-.52.63-.52.15.34.04.56.04.56.66-.87.5.4.55,2.11s1.7,2.74,2.54,2.61.76-.68.79-1.57c.03-.9.62-1.93.62-1.93-1.09,1.03-1.5,2.51-1.5,2.51-.11-2.2,1.18-4.08,1.18-4.08-.51.37-1.32.46-1.32.46,2.01-.98,2.33-2.74,2.33-2.74.11.97-.18,2.01-.18,2.01,1.98-2.19.79-5.27.79-5.27,1.8,1.9.54,4.49.54,4.49,2.46-2.81.07-6.46.07-6.46,2.54,1.94,1.52,5.29,1.52,5.29,1.46-2.23.13-5.03.13-5.03.45.25.71.52.71.52M23.87,48.65s-.01.1-.06.24c-.05.13-.14.31-.3.48-.11.12-.25.23-.43.33-.12.07-.24.12-.35.15-.11.03-.22.05-.32.05s-.19-.01-.28-.04c-.09-.02-.17-.06-.26-.1-.16-.08-.32-.17-.48-.27-.06-.04-.13-.07-.2-.1.05.07.08.15.08.23,0,.22-.18.4-.4.4s-.4-.18-.4-.4c0-.09.03-.17.08-.24-.04.02-.08.05-.11.08s-.06.07-.09.12c-.04.06-.06.14-.08.23,0,.06-.01.1-.01.15,0,.09.02.16.04.22.02.06.05.11.09.15.05.06.12.11.17.15.14-.01.28-.02.43-.03.21-.02.43-.03.64-.04.21-.01.43-.03.65-.03-.2.09-.41.14-.63.19-.21.04-.43.07-.65.09-.06,0-.13,0-.19.01-.15,0-.31,0-.46,0-.05,0-.09,0-.14,0-.17-.01-.34-.03-.51-.06.13-.02.26-.04.4-.06-.03-.04-.05-.08-.08-.12-.07-.12-.11-.27-.11-.45,0-.06,0-.14.02-.21.02-.15.07-.28.14-.39.07-.11.16-.19.26-.26.07-.04.14-.07.21-.1.1-.03.2-.04.3-.04.13,0,.26.02.38.06.12.04.24.09.35.15.13.08.24.15.35.2.11.06.21.1.3.13.06.02.13.03.19.03s.14,0,.23-.03c.08-.02.17-.06.28-.12.25-.14.4-.3.48-.44.09-.14.12-.26.13-.31,0,0,0-.02,0-.02h0c0-.1.09-.17.19-.16s.17.09.16.19h0Z"/>
      <path class="cls-4" d="M15.97,50.13c1.3-.58,1.21-1.56,1.31-2.14.1-.58.01-.92,1.13-1.72,1.07-.77,1.66-1.19,1.76-2.42h-4.72c-.41,0-.74.33-.74.74v6.01c.39-.12.83-.28,1.27-.47"/>
      <path class="cls-4" d="M46.71,43.85h-9.92v-9.92c0-.41-.33-.74-.74-.74h-9.92c-.41,0-.74.33-.74.74v3.14c.15.16.28.37.4.61.5.96.44.98.81,1.37.36.39,1.66,1.11,1.68,2.48,0,0,1.25,1.09,1.1,3.7,0,0,.61-.71,1.28-1.03.67-.32.91-.57,1.17-.77s.77-.52.97.41c.21.93-.1,2-.57,2.73s-.4,1.49-.08,1.91c.32.42,1.94,1.07,2.21,2.6.26,1.53.39,2.73.99,3.46.6.73,1.4.97,1.45,1.66s-.43.97-.43.97c0,0-.06.66-.48,1.2s-.62.67-.91.93-.5.17-1.45.2c-.95.03-1.25-.05-1.74.4l.32-.64-.86.49.49-.57-.88.52.37-.45s-.83.81-2.25.87c0,0,1.55.84,2.06,2.61,0,0-.51-.95-1.35-1.37,0,0,1.17,1.26,1.41,2.87,0,0-.27-.79-.87-1.23,0,0,.33.48.46,1.23,0,0-.12-.21-.37-.39,0,0,.22.36.12.87,0,0-.08-.27-.31-.48,0,0,.18.28.02.82-.09.31-.11.63.01.89h5.91c.41,0,.74-.33.74-.74v-9.92h9.92c.41,0,.74-.33.74-.74v-9.92c0-.41-.33-.74-.74-.74"/>
      <path class="cls-6" d="M197.82,32.55c-.39.63-.75,1.22-1.05,1.77-.3.55-.59,1.08-.86,1.58-.29.54-.56,1.02-.83,1.46-.28.47-.6.94-.95,1.4-.33.43-.72.87-1.15,1.32v5.38c0,.17-.14.3-.3.3-.02,0-.1,0-.26,0-.17,0-.38-.02-.64-.05-.27-.02-.54-.06-.84-.12-.32-.06-.6-.14-.86-.25-.29-.11-.53-.26-.72-.44-.22-.21-.33-.47-.34-.78h0v-4.04c-.38-.38-.72-.75-1-1.1-.31-.39-.59-.78-.82-1.17-.22-.36-.44-.75-.67-1.18-.12-.23-.24-.46-.37-.7-.09-.18-.18-.36-.28-.54-.21-.41-.45-.85-.74-1.35-.18-.31-.39-.65-.62-1-.06.27-.17.51-.31.74-.18.28-.45.51-.8.67-.34.16-.77.24-1.3.24h-1.67v10.76c0,.17-.14.3-.3.3-.02,0-.1,0-.26,0-.17,0-.38-.02-.65-.05-.25-.02-.53-.07-.84-.13-.31-.06-.59-.14-.87-.25-.3-.12-.54-.27-.73-.46-.22-.21-.33-.48-.34-.79v-9.39h-1.59c-.52,0-.96-.08-1.3-.24-.35-.17-.62-.39-.81-.67-.18-.27-.3-.58-.36-.91h0c-.06-.32-.08-.64-.08-.97,0-.12.07-.22.18-.27.07-.03.15-.03.21,0,.03,0,.11.03.2.05l.08.02c.14.03.4.08.84.13.39.05.84.07,1.35.07h6.61c.51,0,.96-.03,1.34-.07.43-.05.69-.1.83-.13l.1-.02c.07-.02.14-.03.16-.04.03-.01.07-.02.1-.02h0c.16,0,.3.13.3.3v.08c.09-.02.19-.04.3-.06h.03c.21-.05.39-.07.57-.1.22-.03.4-.04.55-.04.31,0,.63.03.95.1.35.07.69.21,1.01.42.33.21.61.52.84.91,0,0,0,0,0,0l.83,1.51c.28.52.54,1.01.8,1.48l.02.03c.17.3.32.57.46.82.12-.21.23-.43.36-.68.24-.47.46-.9.68-1.3l1.1-2.05s0,0,0,0c.18-.31.41-.56.69-.75.28-.18.58-.3.91-.38.32-.07.65-.11.98-.1.37,0,.72.04,1.06.1s.63.13.88.21c.09.03.16.1.19.18.03.09.02.18-.03.26h0Z"/>
      <path class="cls-6" d="M171.59,33.42v12.05c0,.17-.14.3-.3.3-.02,0-.1,0-.26,0-.17,0-.39-.02-.65-.05-.25-.02-.53-.06-.84-.13-.31-.06-.59-.14-.87-.25-.3-.12-.54-.27-.73-.46-.22-.21-.33-.48-.34-.79h0v-12.06c0-.17.14-.3.3-.3.02,0,.1,0,.26,0,.17,0,.39.02.64.05.25.02.53.07.84.13.31.06.59.14.87.25.29.12.54.27.73.45.22.21.33.48.34.79h0s0,.01,0,.01Z"/>
      <path class="cls-6" d="M157.25,36.89v3.7c0,.6.11,1.08.33,1.42.21.33.5.56.88.71.41.15.88.22,1.42.22h0c.46,0,.92-.02,1.37-.06.44-.04.88-.13,1.32-.27.41-.13.8-.33,1.15-.6.35-.26.65-.61.91-1.06.05-.09.15-.15.25-.15.1,0,.2.05.26.14.34.53.55,1.03.61,1.49.06.47,0,.9-.2,1.28-.19.37-.48.7-.87.96-.38.26-.82.48-1.32.64-.5.17-1.05.29-1.64.37-.58.08-1.2.12-1.84.12-.69,0-1.36-.05-2-.16-.64-.1-1.25-.28-1.8-.51-.56-.24-1.06-.55-1.47-.93-.42-.39-.76-.86-.99-1.42-.23-.55-.36-1.2-.36-1.92v-4.23c0-.72.12-1.37.36-1.92.24-.55.57-1.03,1-1.42.41-.38.91-.69,1.47-.93.55-.23,1.16-.41,1.8-.51.64-.11,1.31-.16,2-.16.62,0,1.25.04,1.86.11.6.08,1.17.19,1.68.34.52.15.98.36,1.37.61.4.26.7.58.9.95h0c.2.39.25.83.16,1.32-.08.47-.32.98-.72,1.55-.06.09-.16.14-.27.13-.1,0-.2-.07-.24-.17-.21-.42-.47-.75-.8-1-.35-.26-.74-.46-1.16-.6-.44-.14-.9-.23-1.37-.29-.48-.05-.94-.07-1.39-.07h0c-.54,0-1.02.07-1.42.21-.38.14-.67.37-.88.69-.21.33-.32.81-.33,1.4h0Z"/>
      <path class="cls-6" d="M145.98,33.59v11.88c0,.08-.03.15-.09.21-.06.06-.13.09-.21.09h0c-.72,0-1.36-.05-1.89-.15-.52-.1-.96-.22-1.3-.37-.34-.15-.61-.29-.81-.45,0,0,0,0,0,0-.21-.17-.34-.29-.42-.41-.04-.05-.06-.09-.08-.11-.01-.02-.02-.03-.03-.05l-4.31-6.3s0,.08.01.12h0c.02.29.03.54.03.77v6.65c0,.17-.14.3-.3.3-.02,0-.1,0-.26,0-.17,0-.39-.02-.65-.05-.25-.02-.53-.06-.84-.13-.31-.06-.59-.14-.87-.25-.3-.12-.54-.27-.73-.46-.22-.21-.33-.48-.34-.79v-11.88c0-.16.13-.3.3-.3.46,0,.93,0,1.38.02.43.02.85.06,1.23.14.38.07.74.2,1.06.37.33.18.61.43.83.73,0,0,0,0,0,0l4.37,6.33c0-.07-.02-.14-.02-.21h0c-.03-.28-.04-.57-.04-.88v-6.21c0-.17.14-.3.3-.3.02,0,.1,0,.26,0,.17,0,.39.02.64.05.26.02.54.07.85.13.31.06.6.15.87.25.29.12.53.27.72.45.22.21.33.48.34.79h0Z"/>
      <path class="cls-6" d="M130.4,33.91c-.49-.72-1.23-1.27-2.21-1.64-.96-.37-2.18-.56-3.64-.56-1.47,0-2.71.19-3.67.56-.99.38-1.74.93-2.22,1.65-.49.72-.73,1.58-.73,2.57v4.55c0,.99.24,1.86.73,2.58.48.72,1.23,1.27,2.22,1.65.97.37,2.2.55,3.67.56,1.45,0,2.67-.19,3.64-.56.99-.38,1.73-.93,2.21-1.64.49-.71.73-1.58.73-2.58v-4.55c0-.99-.24-1.86-.73-2.57h0ZM122.37,42.45c-.17-.18-.29-.4-.36-.66-.07-.28-.11-.62-.1-1v-4.08c0-.38.03-.71.1-.99.07-.26.18-.48.36-.66.17-.18.42-.32.75-.41.36-.1.83-.16,1.4-.16s1.04.05,1.4.16c.33.1.58.23.75.41.17.17.29.39.35.65.07.28.11.62.1,1v4.08c0,.38-.03.71-.1,1-.07.26-.19.48-.36.66-.17.18-.42.32-.75.42-.35.1-.83.16-1.4.16s-1.05-.05-1.4-.16c-.33-.1-.59-.24-.75-.42h0Z"/>
      <path class="cls-6" d="M107.77,36.89v3.7c0,.6.11,1.08.33,1.42.21.33.5.56.88.71.41.15.88.22,1.42.22h0c.46,0,.92-.02,1.37-.06.44-.04.88-.13,1.32-.27.41-.13.8-.33,1.15-.6.35-.26.65-.61.91-1.06.05-.09.15-.15.25-.15.1,0,.2.05.26.14.34.53.55,1.03.61,1.49.06.47,0,.9-.2,1.28-.19.37-.48.7-.87.96-.37.26-.82.48-1.32.64-.5.17-1.05.29-1.64.37-.58.08-1.2.12-1.84.12-.69,0-1.36-.05-2-.16-.64-.1-1.25-.28-1.8-.51-.56-.24-1.06-.55-1.47-.93-.42-.39-.76-.86-.99-1.42-.23-.55-.36-1.2-.36-1.92v-4.23c0-.72.12-1.37.36-1.92.24-.55.57-1.03,1-1.42.41-.38.91-.69,1.47-.93.55-.23,1.16-.41,1.8-.51.64-.11,1.31-.16,2-.16.62,0,1.25.04,1.86.11.6.08,1.17.19,1.68.34.52.15.98.36,1.37.61.4.26.7.58.9.95h0c.2.39.25.83.16,1.32-.08.47-.32.98-.72,1.55-.06.09-.16.13-.27.12-.11,0-.2-.07-.24-.17-.21-.42-.47-.75-.8-1-.35-.26-.74-.46-1.16-.6-.44-.14-.9-.23-1.37-.29-.48-.05-.94-.07-1.39-.07h0c-.54,0-1.02.07-1.42.21-.38.14-.67.37-.88.69-.21.33-.32.81-.33,1.4h0Z"/>
      <path class="cls-6" d="M102.02,33.41v12.06c0,.17-.14.3-.3.3-.02,0-.1,0-.26,0-.17,0-.39-.02-.65-.05-.25-.02-.53-.06-.84-.13-.31-.06-.59-.14-.87-.25-.3-.12-.54-.27-.73-.46-.22-.21-.33-.48-.34-.79v-12.06c0-.17.14-.3.3-.3.02,0,.1,0,.26,0,.17,0,.39.02.64.05.25.02.53.07.84.13.31.06.59.14.87.25.29.12.54.27.73.45.22.21.33.48.34.79h0Z"/>
      <path class="cls-6" d="M97.18,43.74c-.04.34-.13.63-.26.9-.14.29-.37.52-.67.7-.3.17-.67.25-1.15.25h-5.6s-.08,0-.2,0c-.13,0-.29-.02-.49-.05-.2-.02-.41-.07-.65-.13-.24-.06-.47-.15-.68-.26-.23-.12-.42-.28-.57-.47-.16-.21-.24-.47-.25-.76v-11.88c0-.17.13-.3.3-.3.02,0,.1,0,.26,0,.17,0,.39.02.64.05.25.02.53.07.84.13.31.06.59.14.87.25.29.12.54.27.73.45.22.21.33.48.34.79v9.4h3.74c.6,0,1.1-.03,1.47-.08.45-.06.66-.12.75-.14.1-.03.16-.05.18-.06,0,0,.01,0,.02,0,.11-.05.24-.03.32.05.06.06.1.14.1.23,0,.33-.01.64-.05.95h0Z"/>
      <path class="cls-6" d="M84.71,33.41v12.06c0,.17-.14.3-.3.3-.02,0-.1,0-.26,0-.17,0-.39-.02-.65-.05-.25-.02-.53-.06-.84-.13-.31-.06-.59-.14-.87-.25-.3-.12-.54-.27-.73-.46-.22-.21-.33-.48-.34-.79v-12.06c0-.17.14-.3.3-.3.02,0,.1,0,.26,0,.17,0,.38.02.64.05.25.02.53.07.84.13.31.06.59.14.87.25.29.12.54.27.73.45.22.21.33.48.34.79h0Z"/>
      <path class="cls-6" d="M79.35,41.35c0,.74-.17,1.4-.5,1.96-.33.56-.8,1.03-1.4,1.39-.59.36-1.29.64-2.08.81-.79.18-1.66.27-2.6.27-.53,0-1.06-.03-1.58-.09-.52-.06-1.02-.16-1.49-.28-.49-.14-.9-.3-1.27-.5-.39-.21-.7-.47-.92-.76-.24-.31-.36-.67-.37-1.07,0-.31.08-.63.23-.98.15-.33.39-.69.73-1.07.08-.09.21-.13.33-.08s.19.15.2.27c0,.26.08.47.23.64.17.2.39.36.68.49.3.14.64.25,1.01.33.38.08.77.14,1.14.17.37.03.73.05,1.07.05.89,0,1.55-.13,1.95-.37.37-.23.53-.53.53-.96,0-.25-.07-.44-.21-.59-.15-.17-.38-.3-.66-.4-.31-.11-.66-.2-1.07-.27-.45-.08-.92-.15-1.32-.2-.49-.06-.95-.14-1.42-.24-.48-.1-.94-.23-1.38-.4-.44-.17-.85-.41-1.2-.7-.36-.3-.65-.69-.86-1.14-.21-.46-.31-1.02-.32-1.66h0c0-.65.12-1.22.34-1.7.22-.48.53-.9.93-1.23.39-.32.85-.59,1.39-.78.51-.19,1.09-.33,1.71-.41.62-.08,1.27-.13,1.93-.12.8,0,1.56.04,2.25.13.68.08,1.29.22,1.81.42.53.2.95.47,1.25.8.32.35.48.79.48,1.29,0,.33-.07.68-.21,1.06-.14.38-.35.77-.64,1.22-.08.12-.23.17-.37.11s-.21-.2-.18-.34c0-.04,0-.06,0-.07v-.02s0-.06,0-.1c0-.24-.08-.44-.23-.62-.17-.19-.4-.35-.7-.48-.33-.14-.68-.24-1.06-.32-.4-.08-.81-.14-1.22-.17-.46-.03-.84-.05-1.17-.04h0c-.47,0-.89.03-1.24.1-.31.06-.56.17-.73.33-.15.14-.22.34-.23.61,0,.2.07.36.19.47.15.14.38.25.66.34.31.09.68.17,1.08.22.43.06.89.13,1.33.19.45.06.92.14,1.43.25.5.11.95.26,1.39.45.45.19.85.46,1.21.78.36.33.65.75.85,1.25.2.5.31,1.1.31,1.78h0Z"/>
      <path class="cls-5" d="M189.31,44.12c0,.23.09.41.25.57.16.15.37.28.62.38.26.1.52.17.81.23.29.05.56.09.81.12.26.02.46.04.62.04.16,0,.24,0,.25,0v-5.5c.46-.46.86-.92,1.21-1.37s.66-.91.94-1.38c.28-.46.56-.95.82-1.45.27-.5.56-1.03.86-1.59.31-.56.66-1.15,1.06-1.79-.24-.08-.52-.14-.84-.2-.32-.06-.66-.09-1.01-.09-.31,0-.62.03-.91.1-.3.07-.57.18-.81.34-.24.16-.44.37-.6.65l-1.1,2.05c-.24.44-.46.87-.67,1.3-.21.42-.42.79-.63,1.13-.23-.37-.47-.79-.72-1.26-.26-.47-.53-.97-.81-1.51l-.83-1.51c-.2-.35-.45-.62-.74-.8-.29-.19-.6-.31-.91-.38-.31-.07-.61-.1-.89-.1-.16,0-.33.02-.52.04-.19.02-.37.05-.55.09-.17.03-.32.06-.43.09-.12.02-.17.04-.18.04.38.55.71,1.06.99,1.55.28.48.53.93.75,1.36.22.43.44.84.64,1.24.21.39.42.78.66,1.16.23.38.5.75.8,1.14.3.38.65.76,1.06,1.16v4.16h0ZM182.1,34.41c.49,0,.88-.08,1.18-.21.3-.14.52-.33.67-.56s.25-.5.3-.79c.05-.29.08-.6.07-.91,0,0-.1.03-.3.08-.2.04-.49.09-.87.14-.38.04-.84.07-1.37.08h-6.62c-.54,0-1-.03-1.38-.08s-.67-.09-.87-.14c-.2-.05-.3-.07-.31-.08,0,.31.02.62.08.91.06.29.16.56.31.79.16.24.38.42.68.56.3.14.69.21,1.17.21h1.89v9.68c0,.23.09.42.25.58.16.16.37.29.63.39s.52.18.81.24c.29.06.56.1.81.12.26.02.47.04.63.04.16,0,.24,0,.25,0v-11.06h1.97,0ZM167.9,44.08c0,.23.09.42.25.58.16.16.37.29.63.39s.52.18.81.24c.29.06.56.1.81.12s.47.04.63.04c.16,0,.24,0,.25,0v-12.05c0-.23-.09-.43-.25-.58-.16-.16-.37-.29-.63-.39s-.52-.18-.81-.24-.56-.1-.81-.12c-.26-.02-.47-.04-.63-.04-.16,0-.25,0-.25,0v12.05ZM159.88,34.28c.46,0,.93.02,1.43.07.49.05.97.15,1.43.3s.88.36,1.25.64.67.65.89,1.11c.37-.53.6-1,.67-1.43.08-.42.03-.8-.14-1.12-.17-.32-.43-.61-.79-.84-.36-.23-.79-.43-1.29-.58-.5-.15-1.04-.26-1.63-.33-.59-.07-1.2-.1-1.82-.1-.68,0-1.33.05-1.95.15-.62.1-1.2.27-1.73.49-.53.23-.99.52-1.39.88-.4.36-.7.8-.92,1.32-.22.52-.33,1.12-.33,1.8v4.23c0,.69.12,1.29.33,1.8s.52.95.92,1.32c.39.36.86.65,1.39.88.53.23,1.11.39,1.73.49.62.1,1.27.15,1.95.15.62,0,1.22-.04,1.8-.12.57-.08,1.1-.2,1.59-.36.48-.16.9-.36,1.24-.61.35-.24.6-.52.77-.85.17-.33.22-.7.17-1.11s-.24-.87-.56-1.36c-.28.48-.6.87-.99,1.15-.38.29-.79.5-1.24.64-.45.14-.91.24-1.38.28-.47.04-.94.06-1.39.06-.58,0-1.09-.08-1.53-.24-.44-.16-.78-.44-1.03-.83-.25-.39-.37-.91-.37-1.58v-3.71c0-.66.13-1.18.37-1.57.25-.38.59-.65,1.03-.81.44-.16.95-.24,1.53-.23h0ZM137.45,33.35c-.2-.27-.44-.48-.73-.64-.29-.15-.61-.27-.97-.34-.37-.07-.76-.12-1.19-.13-.43-.02-.89-.03-1.37-.02v11.87c0,.23.09.42.25.58.16.16.37.29.63.39.26.1.52.18.81.24.29.06.56.1.81.12s.47.04.63.04c.16,0,.24,0,.25,0v-6.65c0-.25-.01-.5-.03-.75-.02-.25-.05-.47-.08-.68-.03-.2-.05-.37-.08-.49-.02-.12-.03-.19-.03-.19l5.04,7.36s.03.05.1.15c.07.09.19.21.36.35.18.14.42.28.75.41.32.14.73.25,1.24.35s1.11.14,1.84.15v-11.87c0-.23-.09-.43-.25-.58-.16-.16-.37-.29-.63-.39-.26-.1-.53-.18-.82-.24-.29-.06-.56-.1-.81-.12s-.47-.04-.63-.04c-.16,0-.25,0-.25,0v6.21c0,.29.02.58.04.85.03.28.06.53.1.75.04.23.07.41.1.54s.04.2.04.21l-5.12-7.43h0ZM127.45,40.79c0,.4-.03.76-.11,1.07-.08.31-.22.58-.43.8-.21.22-.5.38-.89.5-.38.11-.88.17-1.49.17s-1.1-.06-1.49-.17c-.38-.11-.68-.28-.89-.5-.21-.21-.35-.48-.43-.8-.08-.31-.12-.67-.11-1.07v-4.08c0-.4.03-.76.11-1.07.08-.31.22-.58.43-.79.21-.21.5-.38.89-.49s.88-.17,1.49-.17,1.1.06,1.49.17c.38.11.68.28.89.49.21.21.35.48.43.79.08.31.12.67.11,1.07v4.08ZM130.83,36.48c0-.93-.22-1.73-.68-2.4-.45-.67-1.14-1.18-2.07-1.53-.93-.36-2.1-.54-3.53-.54-1.44,0-2.63.18-3.56.54-.94.36-1.63.87-2.08,1.53-.45.67-.68,1.47-.68,2.4v4.55c0,.94.22,1.74.68,2.41.45.67,1.14,1.18,2.08,1.53.94.35,2.12.53,3.56.54,1.43,0,2.6-.18,3.53-.54.93-.36,1.62-.87,2.07-1.53.46-.67.68-1.47.68-2.41v-4.55ZM110.41,34.28c.46,0,.93.02,1.43.07.49.05.97.15,1.43.3.46.15.88.36,1.25.64s.67.65.89,1.11c.37-.53.6-1,.67-1.43.08-.42.03-.8-.14-1.12-.17-.32-.43-.61-.79-.84-.36-.23-.79-.43-1.29-.58-.5-.15-1.04-.26-1.63-.33-.59-.07-1.2-.1-1.82-.1-.68,0-1.33.05-1.95.15-.62.1-1.2.27-1.73.49-.53.23-.99.52-1.39.88-.4.36-.7.8-.92,1.32-.22.52-.33,1.12-.33,1.8v4.23c0,.69.12,1.29.33,1.8.22.52.52.95.92,1.32.39.36.86.65,1.39.88.53.23,1.11.39,1.73.49.62.1,1.27.15,1.95.15.62,0,1.22-.04,1.8-.12.57-.08,1.1-.2,1.59-.36.48-.16.9-.36,1.24-.61.35-.24.6-.52.77-.85.17-.33.22-.7.17-1.11s-.24-.87-.56-1.36c-.28.48-.6.87-.99,1.15-.38.29-.79.5-1.24.64-.45.14-.91.24-1.38.28s-.94.06-1.39.06c-.58,0-1.09-.08-1.53-.24-.44-.16-.78-.44-1.03-.83-.25-.39-.37-.91-.37-1.58v-3.71c0-.66.13-1.18.37-1.57.25-.38.59-.65,1.03-.81.44-.16.95-.24,1.53-.23h0ZM98.34,44.08c0,.23.09.42.25.58.16.16.37.29.63.39.26.1.52.18.81.24.29.06.56.1.81.12s.47.04.63.04c.16,0,.24,0,.25,0v-12.05c0-.23-.09-.43-.25-.58-.16-.16-.37-.29-.63-.39s-.52-.18-.81-.24-.56-.1-.81-.12c-.26-.02-.47-.04-.63-.04-.16,0-.25,0-.25,0v12.05ZM95.1,45.29c.42,0,.75-.08,1-.21.25-.14.43-.33.55-.57.12-.24.2-.5.23-.8.04-.3.05-.6.05-.91,0,0-.08.03-.23.08-.16.05-.43.1-.8.15-.37.05-.87.08-1.51.08h-4.04v-9.69c0-.23-.09-.43-.25-.58-.16-.16-.37-.29-.63-.39s-.52-.18-.81-.24-.56-.1-.81-.12c-.26-.02-.47-.04-.63-.04-.16,0-.25,0-.25,0v11.87c0,.23.07.43.19.58.12.16.28.29.47.39.19.1.39.18.61.24s.42.1.61.12c.19.02.35.04.47.04.12,0,.18,0,.19,0h5.59,0ZM81.02,44.08c0,.23.09.42.25.58.16.16.37.29.63.39.26.1.52.18.81.24.29.06.56.1.81.12s.47.04.63.04c.16,0,.24,0,.25,0v-12.05c0-.23-.09-.43-.25-.58-.16-.16-.37-.29-.63-.39s-.52-.18-.81-.24-.56-.1-.81-.12c-.26-.02-.47-.04-.63-.04-.16,0-.25,0-.25,0v12.05ZM67.1,35.96c0,.6.1,1.12.29,1.53.19.42.45.76.78,1.04.33.27.7.49,1.12.65.42.16.87.29,1.33.39.47.1.94.17,1.41.24.47.07.91.13,1.33.2.42.07.79.16,1.12.29.33.12.59.28.78.48.19.2.29.47.29.79,0,.53-.22.94-.67,1.22-.45.28-1.15.42-2.1.42-.33,0-.7-.02-1.1-.05s-.79-.09-1.18-.18c-.39-.08-.75-.2-1.07-.35-.33-.15-.58-.34-.78-.57-.2-.23-.29-.51-.3-.83-.31.36-.54.69-.68,1-.14.31-.21.59-.21.85,0,.34.1.63.31.89.2.26.48.48.82.68s.75.35,1.2.47c.45.12.94.21,1.44.28.51.06,1.03.09,1.54.09.93,0,1.77-.09,2.54-.26.76-.17,1.43-.43,1.99-.78.56-.35.99-.78,1.3-1.29.31-.52.46-1.12.46-1.81,0-.66-.1-1.21-.29-1.67-.19-.46-.45-.84-.78-1.14-.33-.3-.7-.54-1.12-.73-.42-.18-.87-.32-1.33-.43-.47-.1-.94-.19-1.41-.25-.47-.06-.91-.12-1.33-.19-.42-.06-.79-.14-1.12-.23-.33-.1-.59-.23-.78-.41-.19-.17-.29-.41-.29-.69,0-.36.11-.64.33-.83.21-.19.5-.33.88-.4.37-.07.81-.1,1.3-.1.37,0,.77.02,1.2.04.42.03.84.09,1.25.17.41.08.78.19,1.12.34.33.15.6.33.81.56.2.23.31.49.31.81,0,.04,0,.08,0,.12,0,.04,0,.09-.02.13.28-.42.48-.81.61-1.16.13-.35.2-.67.2-.96,0-.43-.14-.79-.41-1.09s-.65-.54-1.14-.72c-.49-.18-1.07-.32-1.74-.4-.67-.08-1.41-.13-2.21-.12-.66,0-1.29.04-1.88.12-.6.08-1.14.21-1.64.4-.5.18-.93.43-1.3.73-.37.31-.65.68-.85,1.13-.2.45-.31.97-.31,1.58h0Z"/>
      <path class="cls-6" d="M198.08,59.87c-.04.33-.12.61-.25.86-.14.28-.35.5-.64.67-.29.16-.64.24-1.1.25h-5.32s-.08,0-.19,0c-.12,0-.28-.02-.47-.04-.19-.02-.39-.06-.62-.12-.23-.06-.45-.15-.65-.25-.22-.12-.41-.27-.55-.45-.15-.2-.23-.45-.24-.73h0v-11.29c0-.17.14-.3.3-.3.02,0,.1,0,.25,0,.16,0,.37.02.61.04.24.02.5.06.8.12.3.06.57.14.83.24.28.11.51.26.7.43.21.21.32.46.33.76v8.92h3.54c.57,0,1.04-.03,1.39-.08.43-.06.63-.11.71-.14.1-.03.15-.05.17-.06,0,0,.01,0,.02,0,.11-.05.24-.03.32.05.06.06.1.14.1.22,0,.31-.01.6-.05.9h0Z"/>
      <path class="cls-6" d="M187.39,60.99c-.19-.26-.38-.6-.54-1.02-.18-.46-.37-.97-.56-1.52h0s-1.65-4.55-1.65-4.55c-.25-.68-.54-1.32-.86-1.89-.32-.57-.64-1.08-.97-1.52-.32-.44-.64-.82-.95-1.14-.31-.33-.57-.58-.8-.77-.24-.2-.42-.33-.55-.4-.08-.04-.18-.04-.27,0-.12.06-.29.18-.54.39-.23.19-.5.45-.8.76-.3.32-.62.7-.95,1.14-.33.44-.65.94-.97,1.52-.32.58-.61,1.22-.86,1.9l-1.65,4.55h0c-.11.31-.21.59-.3.86l-.07.21c-.12.32-.23.61-.35.85-.11.24-.23.44-.36.62-.07.09-.08.21-.03.31.04.08.11.14.2.16,0,0,.01,0,.02,0,.03,0,.07.02.13.04.14.04.26.07.39.1.18.04.34.08.5.1.17.03.33.05.48.05h0c.53,0,.98-.09,1.34-.24.36-.16.67-.38.91-.66.22-.26.41-.56.56-.89.14-.31.27-.64.39-.97l.21-.56h3.78l.21.56c.12.33.25.66.39.97.15.33.34.63.56.89.24.28.54.5.9.66.36.16.81.24,1.34.24h0c.15,0,.32-.02.5-.05.16-.03.33-.06.5-.1.17-.04.31-.08.4-.1.06-.02.1-.03.13-.04,0,0,.02,0,.02,0,.08-.02.15-.08.19-.16.05-.1.04-.22-.03-.31h0ZM179.7,54.53c.05-.17.12-.36.19-.57l.02-.04c.08-.22.16-.45.25-.68h0c.07-.18.14-.37.21-.57.08.2.15.39.21.57h0c.09.23.17.45.25.68l.02.04c.07.2.14.4.19.57l.37,1.22h-2.08l.37-1.22h0Z"/>
      <path class="cls-6" d="M174.89,48.34h0s-.07,0-.1.02c-.03,0-.09.02-.15.04l-.1.02c-.14.03-.38.08-.79.13-.36.04-.79.07-1.27.07h-6.29c-.48,0-.91-.03-1.28-.07-.41-.05-.66-.1-.8-.13l-.07-.02c-.09-.02-.16-.04-.19-.05-.07-.02-.14-.02-.21,0-.11.05-.18.15-.18.27,0,.31.02.62.08.92h0c.06.32.17.61.34.87.18.27.44.48.77.64.32.15.74.23,1.24.23h1.5v8.91c0,.3.12.55.33.76.18.18.41.32.7.44.26.1.53.18.83.24.3.06.56.1.8.12.26.02.46.04.62.04.15,0,.23,0,.25,0,.17,0,.3-.14.3-.3v-10.21h1.57c.5,0,.92-.08,1.25-.23.33-.16.59-.37.76-.65.17-.26.28-.55.33-.86.05-.29.08-.6.07-.92,0-.16-.14-.3-.3-.3h0ZM174.71,48.39s-.02.02-.03.03c0,0,.02-.02.03-.03s.02-.02.04-.02c-.01,0-.02.01-.04.02Z"/>
      <path class="cls-6" d="M162.79,50.06v11.45c0,.17-.14.3-.3.3-.02,0-.1,0-.25,0-.16,0-.37-.02-.62-.04-.24-.02-.5-.06-.8-.12-.3-.06-.57-.14-.83-.24-.28-.11-.52-.26-.7-.44-.21-.21-.32-.46-.33-.76v-11.46c0-.17.13-.3.3-.3.02,0,.1,0,.25,0,.16,0,.37.02.61.04.24.02.5.06.8.12.3.06.57.14.83.24.28.11.51.26.7.43.21.21.32.46.33.76h0Z"/>
      <path class="cls-6" d="M157.38,51.19c-.22-.52-.54-.96-.96-1.3-.4-.33-.87-.6-1.4-.78-.52-.18-1.09-.31-1.7-.38-.6-.07-1.23-.11-1.87-.1h-4.14c-.17,0-.3.14-.3.3v11.28h0c0,.31.12.56.33.77.18.18.41.32.7.44.26.1.53.18.83.24.3.06.56.1.8.12.25.02.46.04.62.04.15,0,.23,0,.25,0,.17,0,.3-.14.3-.3v-3.65h.62c.64,0,1.27-.04,1.88-.12.6-.08,1.17-.22,1.7-.42.53-.2,1-.47,1.4-.82.41-.35.73-.79.95-1.31.22-.52.34-1.13.34-1.84v-.31c0-.72-.12-1.34-.34-1.86h0ZM150.83,51.3h.62c.4,0,.74.02,1.06.08.29.05.55.14.76.28.19.12.35.3.46.54.12.25.17.59.17,1.01,0,.46-.06.82-.18,1.08-.11.25-.26.43-.45.56-.21.13-.46.22-.75.27-.32.05-.67.07-1.06.07h-.62v-3.88h0Z"/>
      <path class="cls-6" d="M145.74,57.59c0,.71-.17,1.33-.48,1.87-.31.53-.76.98-1.33,1.33-.56.35-1.23.61-1.98.77-.75.17-1.58.25-2.48.25-.5,0-1.01-.03-1.5-.09-.49-.06-.97-.15-1.42-.27-.46-.13-.86-.29-1.21-.48-.37-.2-.66-.45-.88-.72-.23-.3-.35-.64-.35-1.03,0-.29.07-.61.22-.94.15-.32.37-.65.69-1.02.08-.09.21-.13.33-.09.12.04.19.15.2.27,0,.24.08.44.21.6.16.19.37.34.64.46.29.13.61.24.96.31.36.08.73.13,1.08.16.35.03.7.04,1.02.04.85,0,1.47-.12,1.84-.35.34-.21.5-.5.5-.9,0-.23-.07-.42-.19-.55-.15-.16-.35-.28-.62-.38-.29-.11-.62-.19-1.02-.26-.43-.07-.87-.14-1.26-.19-.46-.06-.91-.14-1.35-.23-.45-.09-.9-.22-1.32-.38-.43-.17-.81-.39-1.15-.67-.35-.29-.62-.66-.82-1.09-.2-.44-.3-.97-.3-1.58h0c0-.62.11-1.17.32-1.63.21-.46.51-.86.89-1.18.37-.31.81-.56,1.32-.75.49-.18,1.03-.31,1.62-.39.59-.08,1.21-.12,1.83-.12.77,0,1.49.04,2.14.12.65.08,1.23.21,1.72.4.51.19.91.45,1.2.77.3.34.46.75.46,1.24,0,.31-.07.64-.21,1.02-.13.36-.33.74-.61,1.16-.08.12-.23.17-.37.11-.13-.06-.21-.2-.18-.34,0-.04,0-.05,0-.06v-.02s0-.06,0-.09c0-.23-.07-.41-.22-.58-.16-.18-.38-.33-.66-.45-.31-.13-.64-.23-1.01-.3-.38-.08-.77-.13-1.15-.16-.43-.03-.8-.04-1.11-.04h0c-.45,0-.84.03-1.17.09-.3.06-.53.16-.69.31-.14.13-.21.31-.21.57,0,.19.06.33.18.44.14.13.35.24.62.32.29.09.64.16,1.02.21.41.06.85.12,1.26.18.43.06.87.13,1.36.24.48.11.91.25,1.32.43.43.19.82.44,1.15.75.34.31.62.71.81,1.19.19.48.29,1.05.3,1.7h0Z"/>
      <path class="cls-6" d="M132,50.51c-.46-.68-1.17-1.21-2.11-1.57-.91-.35-2.07-.53-3.46-.54-1.4,0-2.58.18-3.49.54-.94.36-1.65.89-2.12,1.57-.46.68-.7,1.51-.69,2.45v4.32c0,.95.23,1.78.69,2.46s1.18,1.21,2.12,1.57c.92.35,2.1.53,3.49.53,1.38,0,2.54-.18,3.46-.53.94-.36,1.65-.89,2.11-1.57.47-.68.7-1.51.7-2.46v-4.32c0-.94-.23-1.77-.7-2.45h0ZM124.37,58.63c-.16-.17-.27-.38-.33-.62-.07-.27-.1-.58-.1-.94v-3.88c0-.36.03-.68.1-.94.06-.24.17-.45.33-.62.16-.17.4-.3.71-.39.34-.1.79-.15,1.33-.15s.99.05,1.33.15c.31.09.55.22.71.39.16.16.27.37.33.61.07.27.1.58.1.94v3.88c0,.36-.03.68-.1.94-.06.25-.17.46-.34.62-.16.17-.4.3-.71.39-.34.1-.78.15-1.33.15s-.99-.05-1.33-.15c-.31-.09-.55-.22-.71-.39h0Z"/>
      <path class="cls-6" d="M118.47,50.06v11.45c0,.17-.14.3-.3.3-.02,0-.1,0-.25,0-.16,0-.36-.02-.61-.04-.25-.02-.51-.06-.81-.12-.29-.06-.57-.14-.83-.24-.28-.11-.52-.26-.7-.44-.21-.21-.32-.46-.33-.76v-3.71h-4.81v5.02c0,.17-.14.3-.3.3-.02,0-.1,0-.25,0-.16,0-.37-.02-.62-.04-.24-.02-.5-.06-.8-.12-.3-.06-.57-.14-.83-.24-.28-.11-.52-.26-.7-.44-.21-.21-.32-.46-.33-.76v-11.46c0-.17.13-.3.3-.3.02,0,.1,0,.25,0,.16,0,.37.02.61.04.24.02.5.06.8.12.3.06.57.14.83.24.28.11.51.26.7.43.21.21.32.46.33.76h0v3.74h4.81v-5.05c0-.17.14-.3.3-.3.02,0,.1,0,.25,0,.16,0,.37.02.61.04.25.02.52.06.8.12.29.06.57.14.83.24.28.11.51.25.69.43.21.21.32.46.33.76h0s0,0,0,0Z"/>
      <path class="cls-6" d="M101.25,48.63c0,.33-.02.63-.07.92-.05.31-.16.6-.33.86-.17.27-.43.49-.76.65-.32.15-.74.23-1.25.23h-1.57v10.21c0,.17-.13.3-.3.3-.02,0-.1,0-.25,0-.16,0-.36-.02-.62-.04-.24-.02-.5-.06-.8-.12-.3-.06-.57-.14-.83-.24-.28-.11-.52-.26-.7-.44-.21-.21-.32-.46-.33-.76v-8.91h-1.5c-.5,0-.92-.08-1.24-.23-.33-.16-.59-.37-.77-.64-.17-.26-.28-.55-.34-.87-.06-.31-.08-.62-.08-.93,0-.12.07-.22.18-.27.07-.03.15-.03.21,0,.03,0,.1.02.19.05l.07.02c.14.03.38.08.8.13.37.04.8.07,1.28.07h6.29c.48,0,.91-.03,1.27-.07.41-.05.66-.1.79-.13l.1-.02c.07-.02.13-.03.15-.04.03-.01.06-.02.1-.02h0c.16,0,.3.13.3.3h0Z"/>
      <path class="cls-6" d="M89.51,59.27s0,.04,0,.21h0c0,.12-.03.25-.07.44h0c-.04.18-.1.36-.18.55h0c-.09.2-.21.39-.35.56-.15.18-.35.33-.58.44-.23.11-.52.17-.85.17h-5.75s-.08,0-.19,0c-.12,0-.28-.02-.47-.04-.19-.02-.39-.06-.62-.12-.23-.06-.45-.15-.65-.25-.22-.12-.41-.27-.54-.45-.15-.2-.23-.45-.24-.73v-11.12c0-.17.14-.3.3-.3h9.9c.17,0,.3.14.3.3,0,.02,0,.08-.01.18,0,.11-.03.25-.06.42-.04.18-.09.37-.17.56-.09.21-.2.41-.34.58-.16.19-.35.35-.59.46-.24.12-.53.18-.86.19h-4.64v2.17h3.22c.58,0,1.06-.03,1.41-.07.42-.05.62-.1.7-.12.1-.03.15-.05.17-.05,0,0,0,0,0,0,.11-.05.24-.03.32.05.06.06.1.14.1.23,0,.32-.02.62-.07.91-.06.31-.17.6-.34.86-.18.27-.43.49-.76.64h0c-.32.15-.74.23-1.24.23h-3.52v2.82h6.38c.17,0,.3.14.3.3h0Z"/>
      <path class="cls-6" d="M77.41,51.19c-.22-.52-.54-.96-.96-1.3-.4-.33-.87-.6-1.4-.78-.52-.18-1.09-.31-1.7-.38-.6-.07-1.23-.11-1.87-.1h-4.14c-.17,0-.3.14-.3.3v11.28h0c0,.31.12.56.33.77.18.18.41.32.7.44.26.1.53.18.83.24.3.06.56.1.8.12.25.02.45.04.62.04.15,0,.23,0,.25,0,.17,0,.3-.14.3-.3v-3.65h.62c.64,0,1.27-.04,1.88-.12.6-.08,1.17-.22,1.7-.42.53-.2,1-.47,1.4-.82.41-.35.73-.79.95-1.31.22-.52.34-1.13.34-1.84v-.31c0-.72-.12-1.34-.34-1.86h0ZM70.87,51.3h.62c.4,0,.74.02,1.06.08.29.05.55.14.76.28.19.12.35.3.46.54.12.25.17.59.17,1.01,0,.46-.06.82-.18,1.08-.11.25-.26.43-.45.56-.21.13-.46.22-.75.27-.32.05-.67.07-1.06.07h-.62v-3.88h0Z"/>
      <path class="cls-8" d="M196.09,61.34c.4,0,.72-.07.95-.21.23-.13.41-.31.52-.54.12-.23.19-.48.22-.76.03-.28.05-.57.05-.87,0,0-.07.03-.22.08-.15.05-.41.1-.76.15-.35.05-.83.08-1.43.08h-3.84v-9.21c0-.22-.08-.41-.24-.56-.15-.15-.36-.27-.6-.37-.24-.1-.5-.17-.77-.23-.27-.05-.53-.09-.77-.12-.24-.02-.44-.04-.6-.04-.15,0-.23,0-.24,0v11.28c0,.22.06.41.18.56.12.15.27.27.45.37.18.1.37.17.58.23.21.05.4.09.58.12.18.02.33.04.45.04.12,0,.17,0,.18,0h5.32ZM180.37,51.87s.02.06.07.18.11.27.18.46c.08.19.15.4.24.63s.17.46.25.68c.08.23.15.44.21.62l.49,1.61h-2.88l.49-1.61c.06-.19.13-.4.21-.62.08-.23.17-.46.25-.68.08-.23.17-.44.24-.63.08-.19.14-.35.18-.46s.07-.18.07-.18h0ZM180.37,48.45c-.11.05-.27.17-.49.36s-.48.43-.78.74c-.29.31-.6.68-.93,1.11-.33.44-.64.93-.95,1.49-.31.56-.59,1.18-.84,1.86l-1.65,4.55c-.14.39-.26.74-.38,1.07-.12.33-.24.62-.36.88-.12.26-.25.48-.39.67,0,0,.06.02.15.05.1.03.23.06.38.1.15.04.31.07.48.1.16.03.31.04.44.05.49,0,.9-.08,1.23-.22.33-.14.59-.33.79-.58.21-.24.38-.52.52-.82s.27-.62.38-.95l.28-.75h4.19l.28.75c.12.33.25.64.38.95.14.31.31.58.52.82s.47.44.79.58c.33.14.73.22,1.23.22.14,0,.28-.02.45-.05.17-.03.33-.06.48-.1s.28-.07.39-.1c.1-.03.15-.05.15-.05-.21-.28-.4-.64-.58-1.08s-.37-.95-.56-1.53l-1.65-4.55c-.25-.68-.53-1.29-.84-1.85-.31-.56-.62-1.05-.95-1.49-.32-.44-.63-.81-.93-1.12-.29-.31-.55-.56-.78-.74-.22-.19-.39-.31-.5-.36h0ZM172.77,51c.46,0,.84-.07,1.12-.2.28-.13.5-.31.64-.54s.24-.48.29-.75c.05-.28.07-.57.07-.87,0,0-.1.03-.28.07-.19.04-.46.09-.82.13-.36.04-.79.07-1.31.07h-6.29c-.51,0-.95-.03-1.31-.07s-.64-.09-.83-.13c-.19-.05-.29-.07-.29-.07,0,.3.02.59.07.87.05.28.15.53.3.75.15.23.37.4.65.54.28.13.66.2,1.11.2h1.8v9.2c0,.22.08.4.24.56.15.15.35.27.6.37.24.1.5.17.77.23.27.05.53.09.77.12.25.02.44.04.6.04.15,0,.23,0,.24,0v-10.51h1.87,0ZM159.28,60.19c0,.22.08.4.24.56.15.15.35.27.6.37.24.1.5.17.77.23.27.05.53.09.77.12.24.02.44.04.6.04.15,0,.23,0,.24,0v-11.45c0-.22-.08-.41-.24-.56-.15-.15-.36-.27-.6-.37-.24-.1-.5-.17-.77-.23-.27-.05-.53-.09-.77-.12-.24-.02-.44-.04-.6-.04-.15,0-.23,0-.24,0v11.45ZM151.45,51c.41,0,.77.02,1.11.08.33.06.62.17.87.32.24.15.43.38.57.67.14.29.2.67.2,1.13,0,.5-.07.9-.2,1.2-.14.31-.33.53-.57.69-.25.16-.54.26-.87.31-.34.05-.7.07-1.11.07h-.92v-4.48h.92ZM147.31,60.19c0,.22.08.4.24.56.15.15.35.27.6.37.24.1.5.17.77.23.27.05.53.09.77.12.24.02.44.04.6.04.15,0,.23,0,.24,0v-3.95h.92c.64,0,1.25-.04,1.84-.12.59-.08,1.13-.22,1.63-.41.5-.19.94-.44,1.31-.76.37-.32.67-.72.87-1.2.21-.48.31-1.05.32-1.72v-.31c0-.68-.11-1.26-.32-1.74-.21-.48-.5-.88-.87-1.19-.37-.31-.81-.56-1.31-.73-.5-.17-1.04-.3-1.63-.37-.59-.07-1.2-.11-1.84-.1h-4.14v11.28h0ZM134.08,52.47c0,.57.1,1.06.27,1.46.18.4.43.73.74.99.31.26.67.46,1.07.62.4.16.82.28,1.27.37.45.09.89.17,1.33.23.44.06.87.13,1.27.19s.75.16,1.07.27c.31.11.56.26.74.46s.27.44.27.75c0,.51-.21.89-.64,1.16-.43.27-1.1.4-2,.4-.32,0-.67-.01-1.04-.05-.37-.03-.75-.09-1.12-.17s-.71-.19-1.02-.33c-.31-.14-.56-.32-.74-.54-.19-.22-.28-.48-.29-.79-.3.34-.51.66-.65.95-.14.29-.2.56-.2.81,0,.32.1.6.29.85.19.25.45.46.78.64.33.18.71.33,1.14.45.43.12.89.21,1.37.26.48.06.97.09,1.47.09.88,0,1.68-.08,2.41-.25.73-.16,1.36-.41,1.89-.74s.94-.74,1.23-1.23c.29-.49.44-1.06.44-1.72,0-.62-.1-1.15-.27-1.59-.18-.44-.43-.8-.74-1.08-.31-.29-.67-.52-1.07-.69-.4-.17-.82-.31-1.27-.41-.45-.1-.89-.18-1.33-.23-.44-.06-.86-.12-1.27-.18-.4-.06-.75-.13-1.07-.22-.31-.09-.56-.22-.74-.39-.18-.17-.27-.39-.27-.66,0-.35.11-.61.31-.79.2-.18.48-.31.84-.38.36-.07.77-.1,1.23-.1.36,0,.74.01,1.14.04.4.03.8.09,1.19.16.39.08.75.19,1.07.32.32.14.57.31.77.53.19.21.29.47.29.77,0,.03,0,.07,0,.11,0,.04,0,.08-.02.13.26-.4.46-.77.58-1.1s.19-.64.19-.91c0-.41-.13-.75-.39-1.04-.26-.29-.62-.51-1.08-.69s-1.02-.3-1.65-.38c-.64-.08-1.33-.12-2.1-.12-.63,0-1.23.04-1.79.11-.57.08-1.09.2-1.56.38-.47.17-.89.41-1.23.7-.35.29-.62.65-.81,1.07-.19.43-.29.93-.29,1.5h0ZM129.18,57.06c0,.38-.03.72-.11,1.02-.08.3-.21.55-.41.76-.2.21-.48.37-.84.47s-.84.16-1.41.16-1.05-.05-1.41-.16c-.37-.11-.65-.27-.84-.47-.2-.21-.33-.46-.41-.76-.08-.3-.11-.64-.11-1.02v-3.88c0-.38.03-.72.11-1.02.08-.3.21-.55.41-.75.2-.21.48-.36.84-.47.37-.11.84-.16,1.41-.16s1.05.05,1.41.16.65.26.84.47c.2.2.33.45.41.75.08.3.11.64.11,1.02v3.88ZM132.4,52.96c0-.89-.21-1.65-.65-2.28-.43-.63-1.09-1.12-1.97-1.46-.88-.34-2-.51-3.35-.52-1.37,0-2.5.17-3.39.52-.89.34-1.55.83-1.98,1.46-.43.64-.65,1.4-.64,2.28v4.32c0,.89.21,1.66.64,2.29.43.64,1.09,1.12,1.98,1.46.89.34,2.02.51,3.39.51,1.35,0,2.47-.17,3.35-.51.88-.34,1.54-.82,1.97-1.46.43-.63.65-1.4.65-2.29v-4.32ZM114.95,60.19c0,.22.08.4.24.56.15.15.35.27.6.37.24.1.5.17.77.23.27.05.53.09.78.12.24.02.44.04.6.04.15,0,.23,0,.24,0v-11.45c0-.22-.08-.41-.24-.56-.15-.15-.35-.27-.6-.37-.24-.1-.5-.17-.78-.23-.27-.05-.53-.09-.77-.12-.24-.02-.44-.04-.6-.04-.15,0-.23,0-.24,0v5.35h-5.41v-4.03c0-.22-.08-.41-.24-.56-.15-.15-.36-.27-.6-.37-.24-.1-.5-.17-.77-.23-.27-.05-.53-.09-.77-.12-.24-.02-.44-.04-.6-.04-.15,0-.23,0-.24,0v11.45c0,.22.08.4.24.56.15.15.35.27.6.37.24.1.5.17.77.23.27.05.53.09.77.12.24.02.44.04.6.04.15,0,.23,0,.24,0v-5.32h5.41v4h0ZM98.83,51c.46,0,.84-.07,1.12-.2.28-.13.5-.31.64-.54.14-.23.24-.48.29-.75.05-.28.07-.57.07-.87,0,0-.1.03-.28.07-.19.04-.46.09-.82.13-.36.04-.79.07-1.31.07h-6.29c-.51,0-.95-.03-1.31-.07s-.64-.09-.83-.13c-.19-.05-.29-.07-.29-.07,0,.3.02.59.07.87.05.28.15.53.3.75.15.23.37.4.65.54.28.13.66.2,1.11.2h1.8v9.2c0,.22.08.4.24.56.15.15.35.27.6.37.24.1.5.17.77.23.27.05.53.09.77.12.25.02.44.04.6.04.15,0,.23,0,.24,0v-10.51h1.87,0ZM86.35,55.85c.46,0,.83-.07,1.11-.2.28-.13.49-.31.64-.54.14-.23.24-.48.29-.75.05-.28.07-.57.07-.87,0,0-.07.03-.21.07-.15.04-.4.09-.75.13-.36.04-.84.07-1.45.07h-3.52v-2.77h4.94c.29,0,.53-.05.73-.15.2-.1.37-.23.49-.39.13-.16.22-.33.3-.5.07-.18.12-.35.15-.5.03-.16.05-.29.06-.39,0-.1,0-.15,0-.15h-9.9v11.11c0,.22.06.41.18.56s.27.27.45.37c.18.1.37.17.58.23.21.05.4.09.58.12.18.02.33.04.45.04.12,0,.17,0,.18,0h5.75c.28,0,.52-.05.72-.15.2-.09.36-.21.49-.37.13-.15.23-.31.3-.48.07-.17.12-.33.16-.49.03-.16.05-.29.06-.4,0-.11,0-.17,0-.19h-6.68v-3.42h3.82ZM71.49,51c.41,0,.77.02,1.11.08.33.06.62.17.87.32.24.15.43.38.57.67.14.29.2.67.2,1.13,0,.5-.07.9-.2,1.2-.14.31-.33.53-.57.69-.25.16-.54.26-.87.31-.34.05-.7.07-1.11.07h-.92v-4.48h.92ZM67.35,60.19c0,.22.08.4.24.56.15.15.35.27.6.37.24.1.5.17.77.23.27.05.53.09.77.12.24.02.44.04.6.04.15,0,.23,0,.24,0v-3.95h.92c.64,0,1.25-.04,1.84-.12.59-.08,1.13-.22,1.63-.41.5-.19.94-.44,1.31-.76.37-.32.67-.72.87-1.2.21-.48.31-1.05.32-1.72v-.31c0-.68-.11-1.26-.32-1.74-.21-.48-.5-.88-.87-1.19-.37-.31-.81-.56-1.31-.73-.5-.17-1.04-.3-1.63-.37-.59-.07-1.2-.11-1.84-.1h-4.14v11.28h0Z"/>
      <g>
        <polygon class="cls-7" points="55.56 65.79 204.67 65.79 199.02 72.91 47.59 72.91 55.56 65.79"/>
        <g class="cls-11">
          <g>
            <rect class="cls-7" x="47.59" y="65.79" width="157.08" height="7.11"/>
            <g class="cls-9">
              <rect class="cls-7" x="47.59" y="65.79" width="1.59" height="7.11"/>
              <rect class="cls-7" x="49.17" y="65.79" width="1.59" height="7.11"/>
              <rect class="cls-7" x="50.76" y="65.79" width="1.59" height="7.11"/>
              <rect class="cls-7" x="52.35" y="65.79" width="1.59" height="7.11"/>
              <rect class="cls-7" x="53.93" y="65.79" width="1.59" height="7.11"/>
              <rect class="cls-7" x="55.52" y="65.79" width="1.59" height="7.11"/>
              <rect class="cls-7" x="57.11" y="65.79" width="1.59" height="7.11"/>
              <rect class="cls-7" x="58.69" y="65.79" width="1.59" height="7.11"/>
              <rect class="cls-7" x="60.28" y="65.79" width="1.59" height="7.11"/>
              <rect class="cls-7" x="61.87" y="65.79" width="1.59" height="7.11"/>
              <rect class="cls-7" x="63.45" y="65.79" width="1.59" height="7.11"/>
              <rect class="cls-7" x="65.04" y="65.79" width="1.59" height="7.11"/>
              <rect class="cls-7" x="66.63" y="65.79" width="1.59" height="7.11"/>
              <rect class="cls-7" x="68.21" y="65.79" width="1.59" height="7.11"/>
              <rect class="cls-7" x="69.8" y="65.79" width="1.59" height="7.11"/>
              <rect class="cls-7" x="71.39" y="65.79" width="1.59" height="7.11"/>
              <rect class="cls-7" x="72.97" y="65.79" width="1.59" height="7.11"/>
              <rect class="cls-7" x="74.56" y="65.79" width="1.59" height="7.11"/>
              <rect class="cls-7" x="76.15" y="65.79" width="1.59" height="7.11"/>
              <rect class="cls-7" x="77.74" y="65.79" width="1.59" height="7.11"/>
              <rect class="cls-7" x="79.32" y="65.79" width="1.59" height="7.11"/>
              <rect class="cls-7" x="80.91" y="65.79" width="1.59" height="7.11"/>
              <rect class="cls-7" x="82.5" y="65.79" width="1.59" height="7.11"/>
              <rect class="cls-7" x="84.08" y="65.79" width="1.59" height="7.11"/>
              <rect class="cls-7" x="85.67" y="65.79" width="1.59" height="7.11"/>
              <rect class="cls-7" x="87.25" y="65.79" width="1.59" height="7.11"/>
              <rect class="cls-7" x="88.84" y="65.79" width="1.59" height="7.11"/>
              <rect class="cls-7" x="90.43" y="65.79" width="1.59" height="7.11"/>
              <rect class="cls-7" x="92.01" y="65.79" width="1.59" height="7.11"/>
              <rect class="cls-7" x="93.6" y="65.79" width="1.59" height="7.11"/>
              <rect class="cls-7" x="95.19" y="65.79" width="1.59" height="7.11"/>
              <rect class="cls-7" x="96.77" y="65.79" width="1.59" height="7.11"/>
              <rect class="cls-7" x="98.36" y="65.79" width="1.59" height="7.11"/>
              <rect class="cls-7" x="99.95" y="65.79" width="1.59" height="7.11"/>
              <rect class="cls-7" x="101.53" y="65.79" width="1.59" height="7.11"/>
              <rect class="cls-7" x="103.12" y="65.79" width="1.59" height="7.11"/>
              <rect class="cls-7" x="104.71" y="65.79" width="1.59" height="7.11"/>
              <rect class="cls-7" x="106.29" y="65.79" width="1.59" height="7.11"/>
              <rect class="cls-7" x="107.88" y="65.79" width="1.59" height="7.11"/>
              <rect class="cls-7" x="109.47" y="65.79" width="1.59" height="7.11"/>
              <rect class="cls-7" x="111.05" y="65.79" width="1.59" height="7.11"/>
              <rect class="cls-7" x="112.64" y="65.79" width="1.59" height="7.11"/>
              <rect class="cls-7" x="114.23" y="65.79" width="1.59" height="7.11"/>
              <rect class="cls-7" x="115.81" y="65.79" width="1.59" height="7.11"/>
              <rect class="cls-7" x="117.4" y="65.79" width="1.59" height="7.11"/>
              <rect class="cls-7" x="118.99" y="65.79" width="1.59" height="7.11"/>
              <rect class="cls-7" x="120.58" y="65.79" width="1.59" height="7.11"/>
              <rect class="cls-7" x="122.16" y="65.79" width="1.59" height="7.11"/>
              <rect class="cls-7" x="123.75" y="65.79" width="1.59" height="7.11"/>
              <rect class="cls-7" x="125.34" y="65.79" width="1.59" height="7.11"/>
              <rect class="cls-7" x="126.92" y="65.79" width="1.59" height="7.11"/>
              <rect class="cls-7" x="128.51" y="65.79" width="1.59" height="7.11"/>
              <rect class="cls-7" x="130.1" y="65.79" width="1.59" height="7.11"/>
              <rect class="cls-7" x="131.68" y="65.79" width="1.59" height="7.11"/>
              <rect class="cls-7" x="133.27" y="65.79" width="1.59" height="7.11"/>
              <rect class="cls-7" x="134.85" y="65.79" width="1.59" height="7.11"/>
              <rect class="cls-7" x="136.44" y="65.79" width="1.59" height="7.11"/>
              <rect class="cls-7" x="138.03" y="65.79" width="1.59" height="7.11"/>
              <rect class="cls-7" x="139.61" y="65.79" width="1.59" height="7.11"/>
              <rect class="cls-7" x="141.2" y="65.79" width="1.59" height="7.11"/>
              <rect class="cls-7" x="142.79" y="65.79" width="1.59" height="7.11"/>
              <rect class="cls-7" x="144.37" y="65.79" width="1.59" height="7.11"/>
              <rect class="cls-7" x="145.96" y="65.79" width="1.59" height="7.11"/>
              <rect class="cls-7" x="147.55" y="65.79" width="1.59" height="7.11"/>
              <rect class="cls-7" x="149.13" y="65.79" width="1.59" height="7.11"/>
              <rect class="cls-7" x="150.72" y="65.79" width="1.59" height="7.11"/>
              <rect class="cls-7" x="152.31" y="65.79" width="1.59" height="7.11"/>
              <rect class="cls-7" x="153.89" y="65.79" width="1.59" height="7.11"/>
              <rect class="cls-7" x="155.48" y="65.79" width="1.59" height="7.11"/>
              <rect class="cls-7" x="157.07" y="65.79" width="1.59" height="7.11"/>
              <rect class="cls-7" x="158.65" y="65.79" width="1.59" height="7.11"/>
              <rect class="cls-7" x="160.24" y="65.79" width="1.59" height="7.11"/>
              <rect class="cls-7" x="161.83" y="65.79" width="1.59" height="7.11"/>
              <rect class="cls-7" x="163.41" y="65.79" width="1.59" height="7.11"/>
              <rect class="cls-7" x="165" y="65.79" width="1.59" height="7.11"/>
              <rect class="cls-7" x="166.59" y="65.79" width="1.59" height="7.11"/>
              <rect class="cls-7" x="168.18" y="65.79" width="1.59" height="7.11"/>
              <rect class="cls-7" x="169.76" y="65.79" width="1.59" height="7.11"/>
              <rect class="cls-7" x="171.35" y="65.79" width="1.59" height="7.11"/>
              <rect class="cls-7" x="172.94" y="65.79" width="1.59" height="7.11"/>
              <rect class="cls-7" x="174.52" y="65.79" width="1.59" height="7.11"/>
              <rect class="cls-7" x="176.11" y="65.79" width="1.59" height="7.11"/>
              <rect class="cls-7" x="177.69" y="65.79" width="1.59" height="7.11"/>
              <rect class="cls-7" x="179.28" y="65.79" width="1.59" height="7.11"/>
              <rect class="cls-7" x="180.87" y="65.79" width="1.59" height="7.11"/>
              <rect class="cls-7" x="182.45" y="65.79" width="1.59" height="7.11"/>
              <rect class="cls-7" x="184.04" y="65.79" width="1.59" height="7.11"/>
              <rect class="cls-7" x="185.63" y="65.79" width="1.59" height="7.11"/>
              <rect class="cls-7" x="187.21" y="65.79" width="1.59" height="7.11"/>
              <rect class="cls-7" x="188.8" y="65.79" width="1.59" height="7.11"/>
              <rect class="cls-7" x="190.39" y="65.79" width="1.59" height="7.11"/>
              <rect class="cls-7" x="191.97" y="65.79" width="1.59" height="7.11"/>
              <rect class="cls-7" x="193.56" y="65.79" width="1.59" height="7.11"/>
              <rect class="cls-7" x="195.15" y="65.79" width="1.59" height="7.11"/>
              <rect class="cls-7" x="196.73" y="65.79" width="1.59" height="7.11"/>
              <rect class="cls-7" x="198.32" y="65.79" width="1.59" height="7.11"/>
              <rect class="cls-7" x="199.91" y="65.79" width="1.59" height="7.11"/>
              <rect class="cls-7" x="201.49" y="65.79" width="1.59" height="7.11"/>
              <rect class="cls-7" x="203.08" y="65.79" width="1.59" height="7.11"/>
            </g>
          </g>
        </g>
      </g>
      <path class="cls-6" d="M180.69,72.03v-5.36h3.97v.91h-2.89v1.19h2.69v.9h-2.69v1.46h2.99v.9h-4.07,0ZM176.38,68.94h.8c.52,0,.84-.02.97-.06.13-.04.23-.12.3-.23.07-.11.11-.24.11-.4,0-.18-.05-.33-.14-.44-.1-.11-.23-.18-.41-.21-.09-.01-.35-.02-.79-.02h-.84v1.36h0ZM175.29,72.03v-5.36h2.28c.57,0,.99.05,1.25.14s.47.27.62.51c.15.25.23.53.23.84,0,.4-.12.73-.35,1s-.59.43-1.06.49c.23.14.43.29.58.45.15.16.36.45.62.87l.66,1.04h-1.29l-.78-1.17c-.28-.42-.47-.68-.57-.79s-.21-.18-.33-.22c-.12-.04-.29-.06-.54-.06h-.22v2.24h-1.08ZM172.72,69.91l-.74-1.99-.72,1.99h1.46ZM174.72,72.03h-1.18l-.47-1.22h-2.14l-.44,1.22h-1.15l2.09-5.36h1.14l2.15,5.36h0ZM167.91,70.06l1.05.33c-.16.58-.43,1.02-.8,1.3-.37.28-.85.43-1.42.43-.71,0-1.3-.24-1.75-.73-.46-.49-.69-1.15-.69-1.99,0-.89.23-1.58.69-2.08.46-.49,1.06-.74,1.82-.74.66,0,1.19.19,1.6.58.24.23.43.56.55.99l-1.07.25c-.06-.28-.19-.5-.4-.66-.2-.16-.44-.24-.73-.24-.4,0-.72.14-.97.43-.25.28-.37.75-.37,1.38,0,.68.12,1.16.37,1.45.24.29.56.43.95.43.29,0,.54-.09.74-.27.21-.18.36-.47.45-.86h0ZM159.04,72.03v-4.45h-1.59v-.91h4.26v.91h-1.59v4.45h-1.08,0ZM152.84,72.03v-5.36h3.97v.91h-2.89v1.19h2.69v.9h-2.69v1.46h2.99v.9h-4.07,0ZM148.93,67.58v1.52h.59c.43,0,.71-.03.85-.08.14-.06.25-.14.34-.26.08-.12.12-.26.12-.42,0-.19-.06-.36-.17-.48-.11-.13-.26-.21-.43-.24-.13-.02-.39-.04-.78-.04h-.52,0ZM147.85,72.03v-5.36h1.74c.66,0,1.09.03,1.29.08.31.08.56.25.77.52s.31.62.31,1.04c0,.33-.06.61-.18.83s-.27.4-.46.53c-.18.13-.37.21-.56.25-.26.05-.63.08-1.12.08h-.7v2.02h-1.08ZM140.38,72.03v-5.36h1.05l2.19,3.58v-3.58h1.01v5.36h-1.09l-2.16-3.49v3.49h-1.01,0ZM138.26,72.03v-5.36h1.08v5.36h-1.08ZM132.76,72.03v-2.25l-1.96-3.1h1.27l1.26,2.12,1.24-2.12h1.25l-1.97,3.11v2.25h-1.08ZM129.48,69.91l-.74-1.99-.72,1.99h1.46ZM131.47,72.03h-1.18l-.47-1.22h-2.14l-.44,1.22h-1.15l2.09-5.36h1.14l2.15,5.36h0ZM120.75,72.03l-1.28-5.36h1.11l.81,3.68.98-3.68h1.29l.94,3.74.82-3.74h1.09l-1.3,5.36h-1.15l-1.07-4-1.06,4h-1.17ZM112.92,72.03v-5.36h3.97v.91h-2.89v1.19h2.69v.9h-2.69v1.46h2.99v.9h-4.07,0ZM107.52,72.03v-5.36h1.08v2.11h2.12v-2.11h1.08v5.36h-1.08v-2.34h-2.12v2.34h-1.08ZM104.15,72.03v-4.45h-1.59v-.91h4.26v.91h-1.59v4.45h-1.08,0ZM97.54,70.06v-.9h2.33v2.13c-.23.22-.56.41-.99.58-.43.17-.87.25-1.31.25-.56,0-1.05-.12-1.47-.35s-.73-.57-.94-1.01c-.21-.44-.31-.91-.31-1.43,0-.56.12-1.05.35-1.49.23-.43.58-.77,1.03-1,.34-.18.77-.27,1.28-.27.66,0,1.18.14,1.56.42s.62.66.72,1.16l-1.07.2c-.08-.26-.22-.47-.43-.62s-.47-.23-.78-.23c-.47,0-.85.15-1.13.45-.28.3-.42.74-.42,1.33,0,.64.14,1.11.43,1.43.28.32.65.48,1.11.48.23,0,.45-.04.68-.13.23-.09.42-.2.59-.32v-.68h-1.24ZM89.66,72.03v-5.36h1.05l2.19,3.58v-3.58h1.01v5.36h-1.09l-2.16-3.49v3.49h-1.01,0ZM87.54,72.03v-5.36h1.08v5.36h-1.08ZM83.24,67.58v3.55h.81c.3,0,.52-.02.66-.05.17-.04.32-.12.44-.22s.21-.28.28-.52.11-.57.11-.98-.04-.73-.11-.95-.17-.4-.31-.52c-.13-.12-.3-.21-.5-.25-.15-.04-.45-.05-.89-.05h-.48,0ZM82.16,66.67h1.98c.44,0,.78.03,1.02.1.31.09.58.26.81.49.22.23.4.52.51.87.12.34.17.76.17,1.27,0,.44-.06.82-.16,1.14-.13.39-.32.7-.57.95-.19.18-.44.33-.76.43-.24.08-.56.11-.96.11h-2.03v-5.36h0ZM79.6,69.91l-.74-1.99-.72,1.99h1.46,0ZM81.59,72.03h-1.18l-.47-1.22h-2.14l-.44,1.22h-1.15l2.09-5.36h1.14l2.15,5.36h0ZM71.77,72.03v-5.36h3.97v.91h-2.89v1.19h2.69v.9h-2.69v1.46h2.99v.9h-4.07,0ZM67.23,72.03v-5.31h1.08v4.41h2.69v.9h-3.77,0Z"/>
    </g>
  </g>
</svg>