<?xml version="1.0" encoding="UTF-8"?>
<svg id="Layer_2" data-name="Layer 2" xmlns="http://www.w3.org/2000/svg" viewBox="0 0 210 100">
  <defs>
    <style>
      .cls-1 {
        fill: #4e4e4e;
      }

      .cls-2 {
        fill: #fff;
      }

      .cls-3 {
        opacity: 0;
      }

      .cls-4 {
        fill: #979797;
      }
    </style>
  </defs>
  <g id="Layer_1-2" data-name="Layer 1">
    <rect class="cls-3" width="210" height="100"/>
    <g>
      <g>
        <path class="cls-1" d="M39.55,82.7c-1.93,3.77-5.78,6.55-10.01,6.77-2.99.2-5.9-.79-8.37-2.4-2.17-1.42-4.09-3.35-5.45-5.53,2.49,1.66,5.34,2.78,8.28,3.01,2.46.18,5.25-.44,6.46-2.7.52-.97.78-2.22.3-3.25-.63-1.56-2.67-3.31-4.24-4.64,1.85-.05,3.63-.33,5.29-.85,2.32-.72,4.69-1.98,7.23-3.83.11-.08.22-.16.34-.25.57,1.44,1.04,2.92,1.33,4.46.58,3.05.29,6.45-1.16,9.22Z"/>
        <path class="cls-1" d="M57.01,23.49c-1.49.07-2.99.16-4.47.34-.23.03-.5.07-.73.1-.22.03-.48.08-.71.11-1.77.29-3.69.75-5.31,1.32-.47.17-1.01.36-1.47.56-.46.18-.92.41-1.36.61-.2.1-.45.23-.64.33-.3.16-.61.34-.9.51l-.28.18c-.06.04-.16.1-.21.13-.16.11-.31.21-.47.32-.07.05-.31.22-.38.27-.1.07-.28.21-.37.28-1.94,1.5-3.45,3.5-4.65,5.62-.57,1.01-1.09,2.05-1.6,3.08-.24.48-.47.96-.69,1.45-1.67,3.6-1.89,7.07-1.14,10.96.46,2.44,1.2,4.82,2.1,7.14-.69,1.29-1.58,2.52-2.65,3.69-2.65,2.88-5.87,5.2-9.3,6.72-.57.25-1.14.48-1.72.68-3.58-3.88-6.62-8.32-8.67-13.2-3.07-7.45-4.37-15.85-2.15-23.75.46-1.62,1.07-3.21,1.81-4.72,5.29-10.87,17.89-17.64,29.83-15.23,4.72.93,9.21,3.28,12.5,6.78.52.56,1.01,1.14,1.46,1.76.9,1.21,1.66,2.54,2.18,3.95Z"/>
        <path class="cls-4" d="M46.6,58.76c-.19.37-.38.73-.59,1.08-.61,1.05-1.29,2.07-2.03,3.03-1.46,1.89-3.16,3.59-5.06,5.05-.18.14-.37.28-.55.42-2.09,1.52-4.42,2.89-6.9,3.66-2,.62-4.16.88-6.32.79-3.29-.13-6.59-1.07-9.33-2.71,1.73-.23,3.44-.66,5.07-1.27.45-.17.89-.35,1.33-.54,3.63-1.6,7-4.08,9.69-6.99.88-.96,1.68-2,2.35-3.11.62-1.02,1.14-2.11,1.53-3.25.08-.23.15-.46.22-.69l10.58,4.53Z"/>
        <path class="cls-2" d="M24.51,45.72c0-.25-.15-.47-.21-.7-.07-.26-.09-.54-.11-.8-.04-.55.02-1.12.21-1.64.3-.82.97-1.54,1.82-1.74.8-.19,1.53-.02,2.2-.6-.95.83-.49,2.37-1.27,3.34-.41.51-.98.73-1.55,1.01-.4.19-1.07.62-1.07,1.15,0,0,0,0,0,0Z"/>
      </g>
      <g>
        <path class="cls-1" d="M71.72,43.53c0-2.05-1.6-3.67-3.16-5.15-1.35-1.33-3.08-3.21-3.08-5,0-2.57,2.76-3.97,4.58-3.97.46,0,1.33.1,2.09.55l.7-.48c.21-.13.34.02.42.23l.95,3.38c.06.21-.17.42-.51.4-.21-.02-.38-.13-.44-.3-.42-1.06-1.43-2.87-3.16-2.87-1.24,0-2.36.93-2.36,2.19,0,1.48,1.25,2.76,2.66,4.2,1.64,1.67,3.44,3.54,3.44,5.97,0,4.37-4.35,6.84-7.87,6.84-3.33,0-6.67-2.07-6.67-5.25,0-2.74,2.45-4.49,4.85-4.49,1.52,0,3.02.74,3.1,2-.02.84-.53,1.29-1.08,1.29-.21,0-.48-.11-.65-.29.21-.21.25-.48.25-.8,0-.78-.57-1.56-1.71-1.56-1.58,0-2.97,1.5-2.97,3.73,0,3.04,2.55,4.51,4.94,4.51,2.64,0,5.67-2.05,5.67-5.13Z"/>
        <path class="cls-1" d="M81.64,43.61c-.19-.42-.36-.74-.49-1.03-.38-.78-.63-1.33-1.27-2.87-.1-.21-.06-.34.13-.34.15,0,.3-.02.36-.02,1.92-.17,3.44-2.02,3.14-3.95-.15-1.05-.67-2.21-2.59-2.21-.89,0-1.22.74-1.41,1.65-.3,1.39-.97,5.1-1.16,6.56-.04.25-.08.46-.08.7,0,.61.21,1.01.89,1.01.11,0,.15.06.13.17-.02.15-.08.3-.1.46-.02.13-.11.19-.23.21-.68-.06-1.43-.1-2.13-.1s-1.46.04-2.17.1c-.06,0-.13-.04-.11-.15.02-.15.08-.32.1-.48.02-.15.1-.21.25-.21.82,0,1.16-.74,1.35-1.65.32-1.44.99-5.21,1.16-6.56v.02c.04-.25.06-.49.06-.7,0-.63-.19-1.03-.87-1.03-.06,0-.15-.02-.13-.15.02-.15.08-.32.1-.48.02-.13.11-.19.23-.21.46.06,1.03.08,1.56.08.42,0,.97-.02,1.41-.04.51-.02,1.05-.04,1.56-.04,3.31,0,4.26,1.58,4.43,3.1.23,1.94-1.33,3.94-3.56,4.54l1.05,1.77c.57.97,1.06,1.35,1.75,1.35.11,0,.19.06.17.17l-.08.46c-.02.13-.21.21-.36.21-.38-.02-.87-.02-1.37-.02s-1.01,0-1.31.02c-.23,0-.32-.17-.4-.34Z"/>
        <path class="cls-1" d="M85.54,43.8l.11-.51c.04-.13.1-.17.25-.17.82,0,1.14-.84,1.35-1.71.3-1.37.93-5.1,1.12-6.45.04-.23.06-.48.06-.68,0-.63-.19-1.05-.87-1.05-.06,0-.15-.02-.13-.15l.1-.51c.02-.13.13-.19.25-.21,1.24.06,2.41.08,3.61.08s2.38-.02,3.63-.08c.19-.02.3.06.36.21l.95,2.97c.02.15-.11.23-.3.23s-.38-.04-.49-.25c-.61-1.1-1.64-2.28-3.23-2.28h-.48c-.84,0-1.14.76-1.35,1.65-.13.61-.36,1.73-.44,2.22-.08.4.06.61.49.61h1.12c.44,0,.87-.36.97-.74l.08-.3c.04-.13.11-.23.25-.23h.7c.06,0,.13.04.13.13-.27.95-.53,2.34-.57,3.25-.04.13-.13.19-.25.19h-.7c-.11,0-.15-.04-.13-.15l.06-.34c.08-.46-.19-.89-.8-.89h-1.06c-.38,0-.57.17-.63.53-.06.27-.29,1.69-.34,2.17-.13.97.02,1.73,1.6,1.73h.59c1.5,0,2.98-1.6,3.65-2.78.1-.17.27-.32.59-.32.23,0,.25.11.21.19l-1.46,3.57c-.08.15-.21.23-.38.23-1.48-.06-2.93-.1-4.37-.1-1.33,0-2.68.04-4.09.1-.06,0-.17-.02-.13-.15Z"/>
        <path class="cls-1" d="M95.84,43.8l.11-.51c.04-.13.1-.17.25-.17.82,0,1.14-.84,1.35-1.71.3-1.37.93-5.1,1.12-6.45.04-.23.06-.48.06-.68,0-.63-.19-1.05-.87-1.05-.06,0-.15-.02-.13-.15l.1-.51c.02-.13.13-.19.25-.21,1.24.06,2.41.08,3.61.08s2.38-.02,3.63-.08c.19-.02.3.06.36.21l.95,2.97c.02.15-.11.23-.3.23s-.38-.04-.49-.25c-.61-1.1-1.64-2.28-3.23-2.28h-.48c-.84,0-1.14.76-1.35,1.65-.13.61-.36,1.73-.44,2.22-.08.4.06.61.49.61h1.12c.44,0,.87-.36.97-.74l.08-.3c.04-.13.11-.23.25-.23h.7c.06,0,.13.04.13.13-.27.95-.53,2.34-.57,3.25-.04.13-.13.19-.25.19h-.7c-.11,0-.15-.04-.13-.15l.06-.34c.08-.46-.19-.89-.8-.89h-1.06c-.38,0-.57.17-.63.53-.06.27-.29,1.69-.34,2.17-.13.97.02,1.73,1.6,1.73h.59c1.5,0,2.98-1.6,3.65-2.78.1-.17.27-.32.59-.32.23,0,.25.11.21.19l-1.46,3.57c-.08.15-.21.23-.38.23-1.48-.06-2.93-.1-4.37-.1-1.33,0-2.68.04-4.09.1-.06,0-.17-.02-.13-.15Z"/>
        <path class="cls-4" d="M125.6,44.08c-.08.13-.36.23-.65.23-.23,0-.48-.1-.51-.23l-2.47-12.03c-.19-.8-.53-2.02-3.14-2.02-2.81,0-5.74,2.3-5.74,5.27,0,1.6,1.05,2.87,2.41,2.87,1.27,0,1.9-.89,1.9-1.69,0-.21-.06-.44-.19-.61.23-.21.51-.32.76-.32.51,0,1.01.51.91,1.29-.29,1.22-1.86,1.96-3.46,1.96-2.11,0-4.24-1.48-4.24-3.84,0-3.59,3.99-5.74,7.72-5.74.4,0,.95.04,1.5.1.65.08,1.6.15,2.57.17.27.02.57.02.86.02.67,0,1.33-.04,2.03-.11.1-.02.11.04.1.13l-.08.48c-.04.11-.13.23-.27.23-.84,0-1.39.7-1.25,1.71l.13.89,1.56,8.46,4.7-9.13c.21-.4.32-.76.32-1.08,0-.53-.3-.87-1.03-.87-.08,0-.1-.04-.08-.13l.13-.48c.04-.13.13-.21.25-.23.53.08,1.39.1,2.26.1s1.79-.02,2.41-.1c.04,0,.1.08.1.15l-.13.46c-.04.15-.15.23-.3.23-.78,0-1.96.65-2.91,2.34l-6.18,11.54Z"/>
        <path class="cls-4" d="M132.06,43.8c.02-.15.08-.32.1-.48.02-.15.1-.21.25-.21.82,0,1.14-.76,1.35-1.65.3-1.37.97-5.19,1.16-6.56.04-.21.06-.46.06-.67,0-.63-.19-1.05-.87-1.05-.06,0-.15-.02-.13-.15.02-.15.08-.32.1-.48.02-.13.11-.19.23-.21.63.08,1.35.1,2.05.1s1.44-.02,2.17-.1c.08,0,.13.06.11.17-.02.15-.08.3-.1.46-.02.15-.1.21-.25.21-.84,0-1.14.76-1.35,1.65-.3,1.37-.97,5.19-1.16,6.56v-.02c-.04.25-.06.49-.06.72,0,.61.19,1.01.87,1.01.11,0,.15.06.13.17-.02.15-.08.3-.1.46-.02.13-.11.19-.23.21-.67-.06-1.39-.1-2.09-.1s-1.43.04-2.13.1c-.06,0-.13-.02-.11-.15Z"/>
        <path class="cls-4" d="M146.72,43.87h-.38c-.17,0-.27-.04-.34-.19-.1-.36-2.22-6.71-3.59-9.77-.48,2.05-1.12,6.1-1.31,7.49-.02.21-.06.68-.06.63,0,.65.27,1.08,1.33,1.08.11,0,.15.06.13.17-.02.15-.08.3-.1.46-.02.13-.11.19-.23.21-.68-.06-1.43-.1-2.13-.1s-1.46.04-2.17.1c-.06,0-.13-.04-.11-.15.02-.15.08-.32.1-.48.02-.15.1-.21.25-.21,1.06,0,1.6-.68,1.81-1.65.3-1.35.95-5.17,1.14-6.56.02-.19.04-.38.04-.57,0-.68-.25-1.14-1.31-1.14-.06,0-.15-.02-.13-.15.02-.15.08-.32.1-.48.02-.13.11-.19.23-.21.34.04,1.22.1,2.13.1.61,0,1.27-.02,1.81-.1.23,0,.34.06.4.21l2.97,8.12c.29-1.52.86-4.81.99-5.78v.02c.04-.21.06-.42.06-.61,0-.68-.29-1.12-1.33-1.12-.06,0-.15-.02-.13-.15.02-.15.08-.32.1-.48.02-.13.11-.19.23-.21.65.08,1.39.1,2.09.1s1.46-.02,2.21-.1c.08,0,.13.06.11.17-.02.15-.08.3-.1.46-.02.15-.1.21-.25.21-1.08,0-1.62.68-1.81,1.65-.59,2.49-1.18,6.35-1.5,8.82-.06.19-.23.19-1.22.21Z"/>
        <path class="cls-4" d="M158.09,34.92c.1.99.17,1.96.29,2.95l.46,3.82c.13,1.01.55,1.43,1.22,1.43.1,0,.11.1.11.15l-.11.46c-.04.13-.13.21-.25.23-.65-.04-1.46-.08-2.26-.08-.61,0-1.18.08-1.71.08-.13,0-.17-.1-.15-.21l.1-.4c.04-.15.11-.23.27-.23.61,0,.74-.32.74-.82,0-.19-.02-.38-.04-.61,0-.08-.02-.17-.02-.27l-.06-.76c-.04-.34-.23-.55-.59-.55h-2.59c-.3,0-.57.23-.7.46-.13.32-.34.76-.49,1.08-.13.27-.19.53-.19.72,0,.49.3.74,1.01.74.1,0,.11.1.11.15l-.11.46c-.04.13-.13.21-.25.23-.65-.06-1.31-.1-1.92-.1s-1.29.04-1.94.1c-.06,0-.13-.04-.1-.15l.11-.46c.04-.15.11-.23.27-.23.87,0,1.54-.84,2-1.71l3.56-7.34c.19-.49.13-.87-.44-.87-.06,0-.13-.06-.13-.15l.13-.44c.06-.15.11-.23.23-.25.42.04,1.03.06,1.56.06.61,0,1.22-.02,1.46-.06.1,0,.17.11.21.21l.23,2.36ZM156.09,33.65l-2.28,4.89c-.21.44-.11.61.38.61h1.79c.42,0,.57-.17.55-.59l-.23-3.04-.21-1.86Z"/>
        <path class="cls-4" d="M161.74,34.56v.02c-.34-.95-.76-1.39-1.27-1.39-.1,0-.11-.1-.11-.15l.11-.46c.04-.13.13-.21.25-.23.61.04,1.54.08,2.45.08.7,0,1.41-.02,1.9-.08.04,0,.08.08.08.15l-.11.46c-.04.15-.11.23-.27.23-1.06,0-1.08.95-.93,1.48.38,1.08.84,2.19,1.18,3.27.17.53.34.57.67.06l2.05-3.33c.19-.3.27-.55.27-.74,0-.46-.34-.74-1.03-.74-.1,0-.11-.1-.11-.15l.11-.46v.02c.06-.15.13-.23.27-.25.7.08,1.35.1,1.96.1s1.25-.02,1.98-.1c.06,0,.13.04.1.15l-.11.46c-.04.15-.11.23-.27.23-.99,0-1.54.8-2.15,1.69l-2.87,4.77c-.29.51-.29,1.05-.38,1.75-.04.25-.06.48-.06.7,0,.61.19,1.01.87,1.01.11,0,.15.06.13.17l-.1.46c-.02.13-.11.19-.23.21-.68-.06-1.41-.1-2.11-.1s-1.46.04-2.15.1c-.06,0-.13-.04-.11-.15.02-.15.08-.32.1-.48.02-.15.1-.21.25-.21.86,0,1.14-.68,1.35-1.65.15-.97.32-1.46.17-1.96l-1.86-4.94Z"/>
        <path class="cls-4" d="M177.38,34.92c.1.99.17,1.96.29,2.95l.46,3.82c.13,1.01.55,1.43,1.22,1.43.1,0,.11.1.11.15l-.11.46c-.04.13-.13.21-.25.23-.65-.04-1.46-.08-2.26-.08-.61,0-1.18.08-1.71.08-.13,0-.17-.1-.15-.21l.1-.4c.04-.15.11-.23.27-.23.61,0,.74-.32.74-.82,0-.19-.02-.38-.04-.61,0-.08-.02-.17-.02-.27l-.06-.76c-.04-.34-.23-.55-.59-.55h-2.59c-.3,0-.57.23-.7.46-.13.32-.34.76-.49,1.08-.13.27-.19.53-.19.72,0,.49.3.74,1.01.74.1,0,.11.1.11.15l-.11.46c-.04.13-.13.21-.25.23-.65-.06-1.31-.1-1.92-.1s-1.29.04-1.94.1c-.06,0-.13-.04-.1-.15l.11-.46c.04-.15.11-.23.27-.23.87,0,1.54-.84,2-1.71l3.56-7.34c.19-.49.13-.87-.44-.87-.06,0-.13-.06-.13-.15l.13-.44c.06-.15.11-.23.23-.25.42.04,1.03.06,1.56.06.61,0,1.22-.02,1.46-.06.1,0,.17.11.21.21l.23,2.36ZM175.39,33.65l-2.28,4.89c-.21.44-.11.61.38.61h1.79c.42,0,.57-.17.55-.59l-.23-3.04-.21-1.86Z"/>
        <path class="cls-4" d="M179.65,43.8c.02-.15.08-.32.1-.48.02-.15.1-.21.25-.21.82,0,1.14-.76,1.35-1.65.3-1.37.97-5.19,1.16-6.56v.02c.04-.23.06-.48.06-.68,0-.63-.19-1.05-.87-1.05-.06,0-.15-.02-.13-.15.02-.15.08-.32.1-.48.02-.13.11-.19.23-.21.65.08,1.39.1,2.09.1s1.46-.02,2.21-.1c.08,0,.13.06.11.17-.02.15-.08.3-.1.46-.02.15-.1.21-.25.21-.84,0-1.14.76-1.35,1.65-.3,1.37-.97,5.19-1.16,6.56v-.02c-.04.25-.06.49-.06.72,0,.61.19,1.01.87,1.01.11,0,.15.06.13.17-.02.15-.08.3-.1.46-.02.13-.11.19-.23.21-.68-.06-1.43-.1-2.13-.1s-1.44.04-2.17.1c-.06,0-.13-.02-.11-.15ZM186.91,38.34l1.88,3.42c.53.99,1.05,1.35,1.75,1.35.11,0,.19.06.17.17l-.08.46c-.02.13-.21.21-.36.21-.38-.02-.87-.02-1.37-.02-.44,0-1.01,0-1.31.02-.21-.02-.32-.17-.4-.34-.15-.34-.3-.63-.44-.91-.48-1.01-.86-1.81-1.54-3.46-.08-.17-.06-.3.04-.36,1.12-1.35,2.38-2.81,3.52-4.16.23-.27.34-.55.34-.76,0-.46-.38-.76-1.03-.76-.1,0-.11-.1-.11-.15l.11-.46c.04-.13.13-.21.25-.23.67.08,1.41.1,2.13.1s1.46-.02,2.15-.1c.06,0,.13.04.1.15l-.11.46c-.04.15-.11.23-.27.23-.91,0-1.75.89-2.4,1.67v-.02l-3.02,3.5Z"/>
        <path class="cls-4" d="M199.82,34.92c.1.99.17,1.96.29,2.95l.46,3.82c.13,1.01.55,1.43,1.22,1.43.1,0,.11.1.11.15l-.11.46c-.04.13-.13.21-.25.23-.65-.04-1.46-.08-2.26-.08-.61,0-1.18.08-1.71.08-.13,0-.17-.1-.15-.21l.1-.4c.04-.15.11-.23.27-.23.61,0,.74-.32.74-.82,0-.19-.02-.38-.04-.61,0-.08-.02-.17-.02-.27l-.06-.76c-.04-.34-.23-.55-.59-.55h-2.59c-.3,0-.57.23-.7.46-.13.32-.34.76-.49,1.08-.13.27-.19.53-.19.72,0,.49.3.74,1.01.74.1,0,.11.1.11.15l-.11.46c-.04.13-.13.21-.25.23-.65-.06-1.31-.1-1.92-.1s-1.29.04-1.94.1c-.06,0-.13-.04-.1-.15l.11-.46c.04-.15.11-.23.27-.23.87,0,1.54-.84,2-1.71l3.56-7.34c.19-.49.13-.87-.44-.87-.06,0-.13-.06-.13-.15l.13-.44c.06-.15.11-.23.23-.25.42.04,1.03.06,1.56.06.61,0,1.22-.02,1.46-.06.1,0,.17.11.21.21l.23,2.36ZM197.82,33.65l-2.28,4.89c-.21.44-.11.61.38.61h1.79c.42,0,.57-.17.55-.59l-.23-3.04-.21-1.86Z"/>
        <path class="cls-1" d="M90.01,59.17c0,2.76,1.14,4.96,3.86,4.96,2.34,0,4.47-1.79,5.15-4.03.21-.65.1-1.71-.82-1.71-.06,0-.15-.02-.13-.15.02-.15.08-.32.1-.48.02-.13.11-.19.23-.21.65.08,1.39.1,2.09.1s1.46-.02,2.21-.1c.08,0,.13.06.11.17-.02.15-.08.3-.1.46-.02.15-.1.21-.25.21-1.25,0-1.77,2.64-2.02,4.3-.78,5.4-3.12,8.1-7.8,8.1-2.17,0-3.71-1.01-3.71-2.4,0-1.05.74-1.64,1.48-1.64.44,0,.86.23,1.08.53-.4.17-.61.72-.61,1.08,0,.89.65,1.77,1.9,1.77,3.44,0,4.64-3.52,5.48-6.71-1.24,1.01-2.66,1.6-4.39,1.6-3.69,0-6.37-2.45-6.45-6.77.19-4.33,3.52-8.65,8.73-8.67.8,0,1.98.17,2.76.59l.84-.55c.29-.19.48-.02.53.3l1.01,3.99s-.04.1-.04.11c-.06.32-.38.46-.67.46-.27,0-.49-.11-.59-.3-.72-1.92-1.64-3.78-3.94-3.78-3.75.13-6.06,4.85-6.06,8.76Z"/>
        <path class="cls-1" d="M109.29,63.98c-.19-.42-.36-.74-.49-1.03-.38-.78-.63-1.33-1.27-2.87-.1-.21-.06-.34.13-.34.15,0,.3-.02.36-.02,1.92-.17,3.44-2.02,3.14-3.95-.15-1.05-.67-2.21-2.59-2.21-.89,0-1.22.74-1.41,1.65-.3,1.39-.97,5.1-1.16,6.56-.04.25-.08.46-.08.7,0,.61.21,1.01.89,1.01.11,0,.15.06.13.17-.02.15-.08.3-.1.46-.02.13-.11.19-.23.21-.68-.06-1.43-.1-2.13-.1s-1.46.04-2.17.1c-.06,0-.13-.04-.11-.15.02-.15.08-.32.1-.48.02-.15.1-.21.25-.21.82,0,1.16-.74,1.35-1.65.32-1.44.99-5.21,1.16-6.56v.02c.04-.25.06-.49.06-.7,0-.63-.19-1.03-.87-1.03-.06,0-.15-.02-.13-.15.02-.15.08-.32.1-.48.02-.13.11-.19.23-.21.46.06,1.03.08,1.56.08.42,0,.97-.02,1.41-.04.51-.02,1.05-.04,1.56-.04,3.31,0,4.26,1.58,4.43,3.1.23,1.94-1.33,3.94-3.56,4.54l1.05,1.77c.57.97,1.06,1.35,1.75,1.35.11,0,.19.06.17.17l-.08.46c-.02.13-.21.21-.36.21-.38-.02-.87-.02-1.37-.02s-1.01,0-1.31.02c-.23,0-.32-.17-.4-.34Z"/>
        <path class="cls-1" d="M121.35,55.29c.1.99.17,1.96.29,2.95l.46,3.82c.13,1.01.55,1.43,1.22,1.43.1,0,.11.1.11.15l-.11.46c-.04.13-.13.21-.25.23-.65-.04-1.46-.08-2.26-.08-.61,0-1.18.08-1.71.08-.13,0-.17-.1-.15-.21l.1-.4c.04-.15.11-.23.27-.23.61,0,.74-.32.74-.82,0-.19-.02-.38-.04-.61,0-.08-.02-.17-.02-.27l-.06-.76c-.04-.34-.23-.55-.59-.55h-2.59c-.3,0-.57.23-.7.46-.13.32-.34.76-.49,1.08-.13.27-.19.53-.19.72,0,.49.3.74,1.01.74.1,0,.11.1.11.15l-.11.46c-.04.13-.13.21-.25.23-.65-.06-1.31-.1-1.92-.1s-1.29.04-1.94.1c-.06,0-.13-.04-.1-.15l.11-.46c.04-.15.11-.23.27-.23.87,0,1.54-.84,2-1.71l3.56-7.34c.19-.49.13-.87-.44-.87-.06,0-.13-.06-.13-.15l.13-.44c.06-.15.11-.23.23-.25.42.04,1.03.06,1.56.06.61,0,1.22-.02,1.46-.06.1,0,.17.11.21.21l.23,2.36ZM119.35,54.02l-2.28,4.89c-.21.44-.11.61.38.61h1.79c.42,0,.57-.17.55-.59l-.23-3.04-.21-1.86Z"/>
        <path class="cls-1" d="M129.1,59.99c0-.15.08-.27.21-.27h.1c1.9-.17,3.44-2.02,3.14-3.95-.15-1.05-.67-2.21-2.59-2.21-.89,0-1.22.74-1.41,1.65-.3,1.39-.97,5.1-1.16,6.56-.04.25-.08.46-.08.7,0,.61.21,1.01.89,1.01.11,0,.15.06.13.17-.02.15-.08.3-.1.46-.02.13-.11.19-.23.21-.68-.06-1.43-.1-2.13-.1s-1.46.04-2.17.1c-.06,0-.13-.04-.11-.15.02-.15.08-.32.1-.48.02-.15.1-.21.25-.21.82,0,1.16-.74,1.35-1.65.32-1.44.99-5.21,1.16-6.56v.02c.04-.25.06-.49.06-.7,0-.63-.19-1.03-.87-1.03-.06,0-.15-.02-.13-.15.02-.15.08-.32.1-.48.02-.13.11-.19.23-.21.46.06,1.03.08,1.56.08.42,0,.97-.02,1.41-.04.51-.02,1.05-.04,1.56-.04,3.1,0,4.16,1.67,4.43,3.1.25,2.59-1.88,4.79-4.91,4.62-.57-.02-.78-.21-.78-.46Z"/>
        <path class="cls-1" d="M141.71,64.17c.02-.15.08-.32.1-.48.02-.15.1-.21.25-.21.86,0,1.14-.68,1.35-1.65l.34-1.75c.08-.4-.06-.61-.49-.61h-4.35c-.38,0-.57.17-.63.53-.08.4-.23,1.29-.29,1.75-.04.23-.06.51-.06.72,0,.61.19,1.01.87,1.01.11,0,.15.06.13.17-.02.15-.08.3-.1.46-.02.13-.11.19-.23.21-.68-.06-1.43-.1-2.13-.1s-1.46.04-2.17.1c-.06,0-.13-.04-.11-.15.02-.15.08-.32.1-.48.02-.15.1-.21.25-.21.82,0,1.14-.76,1.35-1.65.3-1.37.97-5.19,1.16-6.56v.02c.04-.23.06-.48.06-.68,0-.63-.19-1.05-.87-1.05-.06,0-.15-.02-.13-.15.02-.15.08-.32.1-.48.02-.13.11-.19.23-.21.65.08,1.39.1,2.09.1s1.46-.02,2.21-.1c.08,0,.13.06.11.17-.02.15-.08.3-.1.46-.02.15-.1.21-.25.21-.84,0-1.14.76-1.35,1.65-.15.65-.34,1.67-.49,2.53-.08.4.06.61.49.61h4.37c.38,0,.57-.17.63-.53.15-.86.32-1.86.42-2.53.04-.21.06-.49.06-.68,0-.63-.19-1.05-.87-1.05-.06,0-.15-.02-.13-.15.02-.15.08-.32.1-.48.02-.13.11-.19.23-.21.65.08,1.39.1,2.09.1s1.46-.02,2.21-.1c.08,0,.13.06.11.17-.02.15-.08.3-.1.46-.02.15-.1.21-.25.21-.84,0-1.14.76-1.35,1.65-.3,1.37-.97,5.19-1.16,6.56v-.02c-.04.25-.06.49-.06.72,0,.61.19,1.01.87,1.01.11,0,.15.06.13.17-.02.15-.08.3-.1.46-.02.13-.11.19-.23.21-.68-.06-1.43-.1-2.13-.1s-1.44.04-2.17.1c-.06,0-.13-.02-.11-.15Z"/>
        <path class="cls-1" d="M147.66,64.17c.02-.15.08-.32.1-.48.02-.15.1-.21.25-.21.82,0,1.14-.76,1.35-1.65.3-1.37.97-5.19,1.16-6.56.04-.21.06-.46.06-.67,0-.63-.19-1.05-.87-1.05-.06,0-.15-.02-.13-.15.02-.15.08-.32.1-.48.02-.13.11-.19.23-.21.63.08,1.35.1,2.05.1s1.44-.02,2.17-.1c.08,0,.13.06.11.17-.02.15-.08.3-.1.46-.02.15-.1.21-.25.21-.84,0-1.14.76-1.35,1.65-.3,1.37-.97,5.19-1.16,6.56v-.02c-.04.25-.06.49-.06.72,0,.61.19,1.01.87,1.01.11,0,.15.06.13.17-.02.15-.08.3-.1.46-.02.13-.11.19-.23.21-.67-.06-1.39-.1-2.09-.1s-1.43.04-2.13.1c-.06,0-.13-.02-.11-.15Z"/>
        <path class="cls-1" d="M163.72,56.18c-.51-1.48-1.16-2.81-2.89-2.81-2.6,0-4.54,3.31-4.62,6.5-.04,1.98.61,3.94,2.87,3.94,1.75,0,2.78-1.31,2.79-2.36.02-.53-.25-.89-.65-.93.15-.59.61-.99,1.27-.99.53,0,1.24.34,1.2,1.39-.04,1.92-2.28,3.76-4.91,3.76s-4.85-1.92-4.77-5.11c.08-3.48,2.74-7.03,6.83-7.03.65,0,1.33.1,2.05.53l.67-.46c.06-.04.13-.06.17-.06.1,0,.17.11.19.32l.7,3.14s-.02.06-.02.08c-.06.21-.29.3-.51.3-.19,0-.32-.08-.38-.23v.02Z"/>
        <path class="cls-1" d="M171.92,53.1l.67-.44c.23-.13.42-.04.49.23.23.76.46,1.65.68,2.43v.06c0,.17-.29.3-.53.3-.21,0-.4-.08-.49-.25-.63-1.05-1.43-1.88-2.81-1.88-.74,0-1.73.44-1.73,1.44,0,.87.87,1.56,1.88,2.32,1.27.95,2.78,2.03,2.78,3.8,0,2.28-2.05,3.56-4.45,3.56-1.83,0-4.14-.7-4.14-2.55,0-1.1.84-1.67,1.58-1.67.38,0,.74.1.99.46-.44.19-.68.63-.68,1.1,0,.87.72,1.75,2.28,1.75,1.35,0,2.17-.84,2.17-1.92,0-1.14-1.05-2-2.13-2.79-1.2-.87-2.51-1.92-2.51-3.37,0-2.05,2.11-3.12,3.88-3.12.51,0,1.37.11,2.09.53Z"/>
      </g>
    </g>
  </g>
</svg>