<?xml version="1.0" encoding="UTF-8"?>
<svg id="Layer_2" data-name="Layer 2" xmlns="http://www.w3.org/2000/svg" viewBox="0 0 210 100">
  <defs>
    <style>
      .cls-1 {
        fill: #fff;
      }

      .cls-2 {
        opacity: 0;
      }

      .cls-3 {
        fill: #ff1313;
      }
    </style>
  </defs>
  <g id="Layer_1-2" data-name="Layer 1">
    <rect class="cls-2" width="210" height="100"/>
    <g>
      <path class="cls-3" d="M8.69,75.07H3.13v-4.26c1.44,1.78,3.3,3.24,5.56,4.26ZM9.6,24.93H3.13v4.92c1.69-2.1,3.91-3.81,6.47-4.92ZM12.7,55.06c-4.13-1.47-7.35-3.17-9.57-5.53v10.85h8.4c0,2.91,2.33,5.23,5.15,5.23,3.08,0,4.99-1.74,4.99-4.32,0-3.74-4.91-4.82-8.98-6.23ZM24.3,24.93c5.85,2.52,8.77,8.11,9.26,14.84h-11.47c0-2.82-1.74-5.15-5.15-5.15-2.66,0-5.24,1.58-5.24,4.82,0,3.74,4.57,4.41,8.81,5.65,8.89,2.66,13.05,7.64,13.05,15.46,0,6.34-3.88,11.91-9.55,14.53h16.25v-24.71l-4.88,4.79c-.62-2.21-1.65-4.18-3.08-5.88-.72-.86-1.54-1.65-2.46-2.38l4.34-4.62,1.94-2.06,6.62-7.05h10.55v-8.23h-28.98Z"/>
      <g>
        <g>
          <path d="M159.57,41.04c-.52-.15-1.08-.23-1.67-.23-1.51,0-2.79.49-3.76,1.31,0,0,0,0,0,0,0,0,0,0,0,0,0,0,0,0,0,0,.97-.82,2.24-1.31,3.76-1.31.59,0,1.15.07,1.67.22,0,0,0,0,0,0Z"/>
          <path class="cls-1" d="M64.17,51.22c0,1.19.94,2.15,2.07,2.15,1.24,0,2.01-.72,2.01-1.77,0-1.53-1.98-1.98-3.62-2.56-3.38-1.23-5.26-2.83-5.26-6.34s3.05-6.61,6.83-6.61c4.45,0,6.56,2.9,6.83,6.68h-4.62c0-1.16-.7-2.11-2.07-2.11-1.07,0-2.11.65-2.11,1.98,0,1.53,1.84,1.81,3.55,2.32,3.58,1.09,5.26,3.14,5.26,6.34,0,3.61-3.01,6.61-6.79,6.61-4.39,0-6.86-3-6.86-6.68h4.79,0Z"/>
          <path class="cls-1" d="M79.57,41.19h-4.49v-4.43h14v4.43h-4.55v16.02h-4.95v-16.02h0Z"/>
          <path class="cls-1" d="M91.36,36.76h4.89v12.82c0,2.73,1.27,3.68,2.98,3.68,1.87,0,3.05-.95,3.05-3.68v-12.82h4.92v13.57c0,4.84-3.55,7.57-7.97,7.57s-7.87-2.86-7.87-7.57v-13.57h0Z"/>
          <path class="cls-1" d="M110.4,36.76h7c5.93,0,10.51,4.43,10.51,10.19,0,5.45-4.08,10.26-10.51,10.26h-7v-20.45ZM117.3,52.65c3.15,0,5.56-2.25,5.56-5.69,0-3.17-2.11-5.66-5.56-5.66h-1.98v11.35h1.98Z"/>
          <path class="cls-1" d="M131.25,36.76h4.92v20.45h-4.92v-20.45Z"/>
          <path d="M159.57,41.04c-.52-.15-1.08-.23-1.67-.23-1.51,0-2.79.49-3.76,1.31,0,0,0,0,0,0,.97-.82,2.24-1.31,3.76-1.31.59,0,1.15.07,1.67.22,0,0,0,0,0,0Z"/>
          <path class="cls-1" d="M161.21,46.99c0,2.21-.59,4.24-1.64,5.95h0c-1.23,2.01-3.11,3.55-5.43,4.35-1.14.4-2.41.62-3.74.62-6.36,0-10.81-4.81-10.81-10.91s4.45-10.91,10.81-10.91c.41,0,.82.02,1.21.06.89.09,1.74.28,2.53.56-.92.31-1.77.75-2.53,1.27-1.17.81-2.15,1.86-2.9,3.07-2.58.71-4.14,3.08-4.14,5.95s1.56,5.24,4.14,5.95c.52.15,1.09.23,1.68.23,1.51,0,2.77-.49,3.74-1.31,1.32-1.13,2.08-2.87,2.08-4.87,0-1.18-.27-2.28-.76-3.21-.34-.64-.78-1.19-1.32-1.65.97-.82,2.24-1.31,3.76-1.31.59,0,1.15.08,1.67.23,0,0,0,0,0,0,0,0,0,0,0,0h0c.52.84.92,1.75,1.2,2.74.29,1.01.44,2.09.44,3.21Z"/>
          <path class="cls-3" d="M168.72,46.99c0,6.1-4.49,10.91-10.81,10.91-1.34,0-2.61-.22-3.76-.62,2.32-.8,4.19-2.34,5.43-4.35h0c2.58-.71,4.15-3.08,4.15-5.95,0-2-.77-3.77-2.11-4.89-.58-.48-1.26-.85-2.04-1.06h0s0,0,0,0c-.52-.15-1.08-.22-1.67-.22-1.52,0-2.79.49-3.76,1.31,0,0,0,0,0,0-.54.46-.98,1.02-1.31,1.65-.49.93-.76,2.03-.76,3.21,0,1.99.75,3.74,2.07,4.87-.97.82-2.24,1.31-3.74,1.31-.6,0-1.17-.07-1.68-.23-1.05-1.71-1.63-3.74-1.63-5.95s.58-4.25,1.63-5.95c0,0,0,0,0,0,.74-1.21,1.72-2.26,2.89-3.07h0c.76-.53,1.61-.96,2.53-1.28,1.15-.4,2.42-.62,3.76-.62s2.57.21,3.71.6c4.3,1.47,7.1,5.48,7.1,10.31Z"/>
          <path class="cls-3" d="M159.57,41.04c-.52-.15-1.08-.23-1.67-.23-1.51,0-2.79.49-3.76,1.31,0,0,0,0,0,0,0,0,0,0,0,0,0,0,0,0,0,0,.97-.82,2.24-1.31,3.76-1.31.59,0,1.15.07,1.67.22,0,0,0,0,0,0Z"/>
          <path class="cls-1" d="M172.12,36.76h5.19l7.8,12.14v-12.14h4.89v20.45h-5.12l-7.83-12.17v12.17h-4.92v-20.45h0Z"/>
          <path class="cls-1" d="M193.21,36.76h13.29v4.43h-8.37v3.68h7.73v4.36h-7.73v3.68h8.74v4.3h-13.66v-20.45h0Z"/>
        </g>
        <g>
          <polygon class="cls-1" points="131.25 66.27 131.25 62 133.81 62 133.81 62.41 131.8 62.41 131.8 63.96 133.66 63.96 133.66 64.35 131.8 64.35 131.8 65.89 133.9 65.89 133.9 66.27 131.25 66.27"/>
          <polygon class="cls-1" points="134.98 62 135.51 62 136.7 64.89 137.89 62 138.42 62 136.7 66.1 134.98 62"/>
          <polygon class="cls-1" points="139.69 66.27 139.69 62 142.25 62 142.25 62.41 140.24 62.41 140.24 63.96 142.1 63.96 142.1 64.35 140.24 64.35 140.24 65.89 142.34 65.89 142.34 66.27 139.69 66.27"/>
          <path class="cls-1" d="M145.82,66.27l-1.43-2.14h.98c.43,0,.76-.39.76-.89s-.36-.87-.8-.87h-1.24v3.9h-.54v-4.27h1.7c.85,0,1.4.49,1.4,1.24,0,.67-.29,1.05-.9,1.21l-.46.12,1.22,1.7h-.69Z"/>
          <polygon class="cls-1" points="148.94 66.27 148.94 64.12 147.51 62 148.07 62 149.2 63.74 150.35 62 150.9 62 149.47 64.12 149.47 66.27 148.94 66.27"/>
          <polygon class="cls-1" points="154.3 66.27 154.3 62 156.78 62 156.78 62.41 154.84 62.41 154.84 64.12 156.62 64.12 156.62 64.52 154.84 64.52 154.84 66.27 154.3 66.27"/>
          <path class="cls-1" d="M160.18,66.27l-1.43-2.14h.98c.43,0,.76-.39.76-.89s-.36-.87-.8-.87h-1.24v3.9h-.54v-4.27h1.7c.85,0,1.4.49,1.4,1.24,0,.67-.29,1.05-.9,1.21l-.46.12,1.22,1.7h-.69Z"/>
          <path class="cls-1" d="M165.51,66.27l-.24-.51h-2.32l-.23.51h-.56l1.95-4.22,1.97,4.22h-.56ZM163.8,63.84l-.77,1.71h2.14l-.85-1.9-.22-.49c-.1.23-.2.45-.29.68h0Z"/>
          <path class="cls-1" d="M170.91,66.27c-.01-1.01-.02-2.01-.04-3.02-.48.98-.96,1.96-1.44,2.94-.48-.92-.96-1.85-1.44-2.78-.01.95-.02,1.9-.04,2.86h-.54v-4.27h.58l1.44,3.1,1.45-3.1h.56v4.27h-.54Z"/>
          <polygon class="cls-1" points="172.86 66.27 172.86 62 175.42 62 175.42 62.41 173.41 62.41 173.41 63.96 175.27 63.96 175.27 64.35 173.41 64.35 173.41 65.89 175.51 65.89 175.51 66.27 172.86 66.27"/>
          <path class="cls-1" d="M182.27,66.27v-1.86c0-.39,0-.78,0-1.17-.49.98-.98,1.97-1.47,2.95-.49-.97-.98-1.95-1.48-2.92v3h-.54v-4.27h.58l1.44,3.1,1.45-3.1h.56v4.27h-.53Z"/>
          <path class="cls-1" d="M187.5,66.27l-.24-.51h-2.32l-.23.51h-.56l1.95-4.22,1.97,4.22h-.56ZM185.02,65.56h2.14l-1.05-2.53c-.36.84-.73,1.68-1.09,2.53h0Z"/>
          <polygon class="cls-1" points="189.54 66.27 189.54 62.41 188.46 62.41 188.46 62 191.19 62 191.19 62.41 190.09 62.41 190.09 66.27 189.54 66.27"/>
          <polygon class="cls-1" points="193.23 66.27 193.23 62.41 192.15 62.41 192.15 62 194.88 62 194.88 62.41 193.78 62.41 193.78 66.27 193.23 66.27"/>
          <polygon class="cls-1" points="196.07 66.27 196.07 62 198.63 62 198.63 62.41 196.61 62.41 196.61 63.96 198.47 63.96 198.47 64.35 196.61 64.35 196.61 65.89 198.71 65.89 198.71 66.27 196.07 66.27"/>
          <path class="cls-1" d="M202.2,66.27l-1.43-2.14h.98c.43,0,.76-.39.76-.89s-.36-.87-.8-.87h-1.24v3.9h-.54v-4.27h1.7c.85,0,1.4.49,1.4,1.24,0,.67-.29,1.05-.9,1.21l-.46.12,1.22,1.7h-.69Z"/>
          <path class="cls-1" d="M205.56,66.44c-.69,0-1.17-.37-1.3-.96h.54c.12.3.42.52.76.52.47,0,.8-.31.8-.75,0-.56-.54-.74-.94-.87-.05-.02-.1-.03-.14-.05-.78-.29-1.05-.59-1.05-1.22,0-.7.59-1.26,1.32-1.26.82,0,1.15.46,1.27.96h-.47c-.11-.31-.4-.51-.76-.51-.48,0-.83.34-.83.8,0,.57.53.72.92.83.05.01.11.03.16.05.73.22,1.04.58,1.04,1.21,0,.7-.59,1.26-1.32,1.26h0Z"/>
        </g>
      </g>
    </g>
  </g>
</svg>