<?xml version="1.0" encoding="UTF-8"?>
<svg id="Layer_2" data-name="Layer 2" xmlns="http://www.w3.org/2000/svg" viewBox="0 0 210 100">
  <defs>
    <style>
      .cls-1 {
        fill: #a6a6a6;
      }

      .cls-2 {
        fill: #404040;
      }

      .cls-3 {
        opacity: 0;
      }
    </style>
  </defs>
  <g id="Layer_1-2" data-name="Layer 1">
    <rect class="cls-3" width="210" height="100"/>
    <g id="uuid-5e6acccd-5650-4fab-99f3-c54256d118b5" data-name="Layer 1-2">
      <path class="cls-1" d="M37.94,37.4c-8.4,10.04-13.23,23.23-16.52,35.68L1.66,36.85h26.54c-3.52,3.47-5.98,7.74-8.04,12.2l-3.49-6.39h-6.1l10.07,18.4c3.09-9.28,8.13-19.16,15.48-26.13.83.62,1.47,1.47,1.82,2.46Z"/>
      <path class="cls-1" d="M51.44,26.4l-3.78,2.13c-1.29.88-2.52,1.81-3.7,2.81-.67-.24-1.27-.61-1.78-1.09,2.82-1.74,5.9-3.06,9.26-3.84Z"/>
      <g>
        <path class="cls-1" d="M65.31,65.52h-.17l-10.31-21.24h4.88l2.73,6.04c1.08,2.41,2.03,4.47,2.76,6.51.61-1.48,1.89-4.45,2.82-6.51l2.73-6.04h4.85l-10.29,21.24h0Z"/>
        <path class="cls-1" d="M79.46,44.17c1.45,0,2.41.9,2.41,2.35s-.96,2.32-2.41,2.32-2.41-.93-2.41-2.32.93-2.35,2.41-2.35ZM81.64,50.67v14.52h-4.36v-14.52h4.36Z"/>
        <path class="cls-1" d="M98.87,50.67l-6.42,14.7h-2.73l-6.45-14.7h4.53c1.16,2.96,2.56,6.33,3.25,8.75.32-.78.93-2.85,1.45-4.15l1.83-4.59h4.53,0Z"/>
        <path class="cls-1" d="M100.4,51.26c.81-.38,2.76-.99,5.32-.99,4.47,0,6.71,2.15,6.71,5.78v9.15h-3.92l-.09-1.34c-.03-.61.06-1.02.06-1.02h-.06c-.38.87-1.83,2.76-4.5,2.76-2.5,0-4.62-1.45-4.62-4.42,0-3.54,3.6-5.29,8.83-4.56v-.35c0-1.74-1.19-2.38-3.11-2.38s-3.66.64-4.62,1.25v-3.89h0ZM108.01,58.9c-3.25-.52-4.62.49-4.62,1.86,0,.93.64,1.54,1.66,1.54,1.69,0,2.96-1.54,2.96-3.4Z"/>
        <path class="cls-2" d="M136.66,50.67l-6.42,14.7h-2.73l-6.45-14.7h4.53c1.16,2.96,2.56,6.33,3.25,8.75.32-.78.93-2.85,1.45-4.15l1.83-4.59h4.53,0Z"/>
        <path class="cls-2" d="M151.29,57.07c0,.78-.09,1.48-.12,1.77h-9.53c.17,1.98,1.69,3.11,4.04,3.11,2.06,0,4.21-.61,5.03-1.07v3.69c-.9.46-2.85,1.05-5.43,1.05-5,0-8.14-3.23-8.14-7.67s3.23-7.67,7.38-7.67c4.47,0,6.77,3.2,6.77,6.8h0ZM144.5,53.7c-1.74,0-2.73,1.34-2.85,2.91h5.49c.06-1.57-.87-2.91-2.64-2.91Z"/>
        <path class="cls-2" d="M154.29,50.67h3.95l.09,1.42c0,.44,0,.78.03.96.9-1.57,2.41-2.79,4.3-2.79.47,0,.87.06.93.09v4.24c-.06-.03-.41-.17-.96-.17-2.21,0-4.01,1.95-4.01,4.59v6.19h-4.33v-14.52h0Z"/>
        <path class="cls-2" d="M167.3,50.67v-4.36h4.21v4.36h3.86v3.4h-3.86v5.84c0,1.54.9,2.06,1.86,2.06.9,0,1.83-.29,2.47-.61v3.57c-.64.32-1.98.67-3.69.67-2.3,0-4.53-1.07-4.85-4.13-.03-.46-.09-.96-.09-1.48v-5.93h-2v-3.4h2.09,0Z"/>
        <path class="cls-2" d="M191.32,57.07c0,.78-.09,1.48-.12,1.77h-9.53c.17,1.98,1.69,3.11,4.04,3.11,2.06,0,4.21-.61,5.03-1.07v3.69c-.9.46-2.85,1.05-5.43,1.05-5,0-8.14-3.23-8.14-7.67s3.23-7.67,7.38-7.67c4.47,0,6.77,3.2,6.77,6.8h0ZM184.52,53.7c-1.74,0-2.73,1.34-2.85,2.91h5.49c.06-1.57-.87-2.91-2.64-2.91Z"/>
        <path class="cls-2" d="M203.26,57.65l5.08,7.55h-4.76l-2.96-4.42-2.91,4.42h-4.79l4.97-7.15-4.85-7.38h4.85l2.61,4.45,2.64-4.45h4.97l-4.85,6.97h0Z"/>
      </g>
      <g>
        <path class="cls-1" d="M161.86,67.06h.05l3.08,6.42h-1.42l-.51-1.11h-2.36l-.49,1.11h-1.42l3.06-6.42h0ZM162.66,71.41c-.29-.66-.57-1.33-.76-1.88-.18.44-.52,1.28-.78,1.88h1.55Z"/>
        <path class="cls-1" d="M166.67,71.73c-.82-.23-1.4-.57-1.4-1.42s.65-1.34,1.67-1.34c.63,0,1.16.16,1.42.27v1.13c-.29-.15-.73-.29-1.11-.32-.14,0-.28,0-.4.02-.18.03-.37.12-.37.32,0,.22.22.34.69.47,1,.28,1.48.63,1.48,1.42,0,.84-.69,1.34-1.81,1.34-.67,0-1.18-.15-1.49-.29v-1.15c.41.22,1.05.4,1.48.4.32,0,.62-.09.62-.35,0-.24-.26-.34-.76-.48h0Z"/>
        <path class="cls-1" d="M170.63,71.73c-.82-.23-1.4-.57-1.4-1.42s.65-1.34,1.67-1.34c.63,0,1.16.16,1.42.27v1.13c-.29-.15-.73-.29-1.11-.32-.14,0-.28,0-.4.02-.18.03-.37.12-.37.32,0,.22.22.34.69.47,1,.28,1.48.63,1.48,1.42,0,.84-.69,1.34-1.81,1.34-.67,0-1.18-.15-1.49-.29v-1.15c.41.22,1.05.4,1.48.4.32,0,.62-.09.62-.35,0-.24-.26-.34-.76-.48h0Z"/>
        <path class="cls-1" d="M177.83,71.28c0,1.34-.99,2.32-2.35,2.32s-2.34-.98-2.34-2.32.98-2.32,2.34-2.32,2.35.98,2.35,2.32ZM176.59,71.28c0-.73-.48-1.21-1.11-1.21s-1.1.48-1.1,1.21.47,1.21,1.1,1.21,1.11-.48,1.11-1.21Z"/>
        <path class="cls-1" d="M181.11,72.45c.53,0,1-.24,1.17-.36v1.19c-.18.09-.63.32-1.34.32-1.4,0-2.34-.98-2.34-2.32s.93-2.32,2.34-2.32c.7,0,1.14.23,1.32.32v1.19c-.24-.18-.69-.36-1.14-.36-.69,0-1.19.46-1.19,1.17s.47,1.17,1.19,1.17h0Z"/>
        <path class="cls-1" d="M183.85,67.12c.44,0,.73.27.73.71s-.29.7-.73.7-.73-.28-.73-.7.28-.71.73-.71ZM184.51,69.09v4.39h-1.32v-4.39h1.32Z"/>
        <path class="cls-1" d="M185.71,69.26c.24-.11.84-.3,1.61-.3,1.35,0,2.03.65,2.03,1.75v2.77h-1.19l-.03-.4c0-.18.02-.31.02-.31h-.02c-.11.26-.55.84-1.36.84-.76,0-1.4-.44-1.4-1.34,0-1.07,1.09-1.6,2.67-1.38v-.11c0-.53-.36-.72-.94-.72s-1.11.19-1.4.38v-1.18h0ZM188.01,71.57c-.98-.16-1.4.15-1.4.56,0,.28.19.47.5.47.51,0,.9-.47.9-1.03Z"/>
        <path class="cls-1" d="M190.67,69.09v-1.32h1.27v1.32h1.17v1.03h-1.17v1.77c0,.47.27.62.56.62.27,0,.55-.09.75-.18v1.08c-.19.1-.6.2-1.11.2-.69,0-1.37-.32-1.47-1.25,0-.14-.03-.29-.03-.45v-1.79h-.61v-1.03h.64Z"/>
        <path class="cls-1" d="M197.94,71.02c0,.24-.03.45-.03.53h-2.88c.05.6.51.94,1.22.94.62,0,1.27-.18,1.52-.32v1.11c-.27.14-.86.32-1.64.32-1.51,0-2.46-.98-2.46-2.32s.98-2.32,2.23-2.32c1.35,0,2.05.97,2.05,2.06h0ZM195.88,70c-.53,0-.82.4-.86.88h1.66c.02-.47-.26-.88-.8-.88Z"/>
        <path class="cls-1" d="M199.93,71.73c-.82-.23-1.4-.57-1.4-1.42s.65-1.34,1.67-1.34c.63,0,1.16.16,1.42.27v1.13c-.29-.15-.73-.29-1.11-.32-.14,0-.28,0-.4.02-.18.03-.37.12-.37.32,0,.22.22.34.69.47,1,.28,1.48.63,1.48,1.42,0,.84-.69,1.34-1.81,1.34-.67,0-1.18-.15-1.49-.29v-1.15c.41.22,1.05.4,1.48.4.32,0,.62-.09.62-.35,0-.24-.26-.34-.76-.48h0Z"/>
      </g>
      <path class="cls-2" d="M39.37,39.16h0c0-3.52-2.86-6.38-6.38-6.38h0c3.52,0,6.38-2.86,6.38-6.38h0c0,3.52,2.86,6.38,6.38,6.38h0c-3.52,0-6.38,2.86-6.38,6.38Z"/>
    </g>
  </g>
</svg>