<svg width="32" height="32" viewBox="0 0 32 32" fill="none" xmlns="http://www.w3.org/2000/svg">
<path d="M6.50001 10.4H24.7C25.0448 10.4 25.3754 10.263 25.6192 10.0192C25.863 9.77544 26 9.44478 26 9.1C26 8.75522 25.863 8.42456 25.6192 8.18076C25.3754 7.93696 25.0448 7.8 24.7 7.8H6.50001C6.15522 7.8 5.82456 7.93696 5.58077 8.18076C5.33697 8.42456 5.20001 8.75522 5.20001 9.1C5.20001 9.44478 5.33697 9.77544 5.58077 10.0192C5.82456 10.263 6.15522 10.4 6.50001 10.4ZM27.3 14.3H3.90001C3.55522 14.3 3.22456 14.437 2.98077 14.6808C2.73697 14.9246 2.60001 15.2552 2.60001 15.6C2.60001 15.9448 2.73697 16.2754 2.98077 16.5192C3.22456 16.763 3.55522 16.9 3.90001 16.9H27.3C27.6448 16.9 27.9754 16.763 28.2192 16.5192C28.463 16.2754 28.6 15.9448 28.6 15.6C28.6 15.2552 28.463 14.9246 28.2192 14.6808C27.9754 14.437 27.6448 14.3 27.3 14.3ZM24.7 20.8H6.50001C6.15522 20.8 5.82456 20.937 5.58077 21.1808C5.33697 21.4246 5.20001 21.7552 5.20001 22.1C5.20001 22.4448 5.33697 22.7754 5.58077 23.0192C5.82456 23.263 6.15522 23.4 6.50001 23.4H24.7C25.0448 23.4 25.3754 23.263 25.6192 23.0192C25.863 22.7754 26 22.4448 26 22.1C26 21.7552 25.863 21.4246 25.6192 21.1808C25.3754 20.937 25.0448 20.8 24.7 20.8Z" fill="white"/>
</svg>
